<?xml version="1.0" encoding="UTF-8" standalone="no"?>
<!DOCTYPE svg PUBLIC "-//W3C//DTD SVG 1.1//EN" "http://www.w3.org/Graphics/SVG/1.1/DTD/svg11.dtd">
<svg width="100%" height="100%" viewBox="0 0 110 26" version="1.1" xmlns="http://www.w3.org/2000/svg" xmlns:xlink="http://www.w3.org/1999/xlink" xml:space="preserve" xmlns:serif="http://www.serif.com/" style="fill-rule:evenodd;clip-rule:evenodd;stroke-linejoin:round;stroke-miterlimit:2;">
    <path d="M10.313,0L10.313,26L36.313,26L36.313,0L10.313,0ZM17.625,5.688L23.114,5.688C24.731,5.688 25.984,6.012 26.872,6.659C27.76,7.307 28.205,8.238 28.205,9.451C28.205,10.147 28.045,10.75 27.727,11.261C27.409,11.773 26.938,12.179 26.315,12.478C27.177,12.765 27.837,13.218 28.294,13.839C28.751,14.459 28.98,15.213 28.98,16.099C28.98,16.972 28.758,17.722 28.314,18.349C27.87,18.976 27.237,19.46 26.415,19.801C25.593,20.142 24.605,20.313 23.452,20.313L17.625,20.313L17.625,5.688ZM22.835,8.06C24.413,8.06 25.202,8.64 25.202,9.799C25.202,10.399 24.999,10.866 24.595,11.2C24.191,11.534 23.604,11.701 22.835,11.701L20.588,11.701L20.588,8.06L22.835,8.06ZM23.213,13.992L20.588,13.992L20.588,17.94L23.173,17.94C24.061,17.94 24.744,17.773 25.222,17.439C25.699,17.105 25.938,16.624 25.938,15.997C25.938,14.66 25.029,13.992 23.213,13.992ZM42.813,0L42.813,26L68.813,26L68.813,0L42.813,0ZM50.125,5.688L55.614,5.688C57.231,5.688 58.484,6.012 59.372,6.659C60.26,7.307 60.704,8.238 60.704,9.451C60.704,10.147 60.545,10.75 60.227,11.261C59.909,11.773 59.438,12.179 58.815,12.478C59.677,12.765 60.337,13.218 60.794,13.839C61.251,14.459 61.48,15.213 61.48,16.099C61.48,16.972 61.258,17.722 60.814,18.349C60.37,18.976 59.737,19.46 58.915,19.801C58.093,20.142 57.105,20.313 55.952,20.313L50.125,20.313L50.125,5.688ZM55.335,8.06C56.913,8.06 57.702,8.64 57.702,9.799C57.702,10.399 57.499,10.866 57.095,11.2C56.691,11.534 56.104,11.701 55.335,11.701L53.088,11.701L53.088,8.06L55.335,8.06ZM55.713,13.992L53.088,13.992L53.088,17.94L55.673,17.94C56.561,17.94 57.244,17.773 57.722,17.439C58.199,17.105 58.438,16.624 58.438,15.997C58.438,14.66 57.529,13.992 55.713,13.992ZM101.313,0L101.313,26L75.313,26L75.313,0L101.313,0ZM91.88,20.177C92.678,19.984 93.38,19.72 93.985,19.386L93.985,16.599C92.706,17.388 91.309,17.782 89.795,17.782C88.804,17.782 87.961,17.595 87.266,17.22C86.571,16.846 86.041,16.301 85.677,15.586C85.312,14.871 85.13,14.006 85.13,12.99C85.13,11.974 85.319,11.112 85.697,10.404C86.076,9.695 86.619,9.154 87.328,8.78C88.037,8.406 88.894,8.218 89.898,8.218C90.628,8.218 91.323,8.315 91.983,8.509C92.644,8.703 93.256,8.987 93.82,9.361L93.82,6.514C93.201,6.193 92.53,5.95 91.808,5.782C91.085,5.615 90.318,5.532 89.506,5.532C88.336,5.532 87.28,5.706 86.337,6.053C85.395,6.401 84.586,6.902 83.912,7.557C83.237,8.212 82.721,8.997 82.364,9.913C82.006,10.828 81.827,11.854 81.827,12.99C81.827,14.153 81.999,15.199 82.343,16.128C82.687,17.057 83.182,17.842 83.829,18.483C84.476,19.125 85.267,19.616 86.203,19.957C87.139,20.298 88.192,20.468 89.362,20.468C90.242,20.468 91.082,20.371 91.88,20.177Z" style="fill:rgb(254,255,254);fill-rule:nonzero;"/>
</svg>
