<?xml version="1.0" encoding="UTF-8" standalone="no"?>
<!DOCTYPE svg PUBLIC "-//W3C//DTD SVG 1.1//EN" "http://www.w3.org/Graphics/SVG/1.1/DTD/svg11.dtd">
<svg width="100%" height="100%" viewBox="0 0 56 49" version="1.1" xmlns="http://www.w3.org/2000/svg" xmlns:xlink="http://www.w3.org/1999/xlink" xml:space="preserve" xmlns:serif="http://www.serif.com/" style="fill-rule:evenodd;clip-rule:evenodd;stroke-linejoin:round;stroke-miterlimit:2;">
    <g>
        <g>
            <path d="M3.901,48.77C2.181,48.77 0.65,47.634 0.178,46.008C-0.206,44.686 0.033,43.459 0.888,42.361C1.535,41.529 5.134,38.937 6.084,38.351C6.308,38.212 6.653,38.004 7.076,37.749C8.637,36.808 11.25,35.233 12.698,34.193C14.214,33.101 14.463,31.663 14.366,29.554C14.262,29.057 14.091,28.554 13.923,28.08C13.303,26.329 12.92,24.503 12.783,22.65C12.598,20.152 12.857,17.641 13.548,15.234C14.208,12.934 15.212,10.835 16.528,8.997C16.89,8.494 17.283,8.015 17.663,7.553C17.912,7.25 18.161,6.947 18.4,6.638C18.68,6.276 18.897,5.946 19.067,5.631C19.823,4.231 20.967,3.336 22.469,2.971C23.179,2.799 23.856,2.463 24.512,2.139C26.937,0.936 29.572,0.213 32.272,0.009C35.092,-0.211 37.928,0.136 40.612,1.03C41.065,1.18 41.504,1.358 41.928,1.53C42.267,1.666 42.605,1.803 42.948,1.925C43.586,2.149 44.273,2.235 45.008,2.187C46.318,2.104 47.698,2.034 49.354,1.967C50.231,1.933 51.006,2.252 51.684,2.917C53.152,4.357 54.445,5.966 55.534,7.711C56.016,8.478 56.124,9.321 55.858,10.216L55.373,11.858C55.121,12.717 54.866,13.576 54.608,14.433C54.408,15.097 54.373,15.817 54.5,16.7L54.564,17.146C54.713,18.164 54.83,18.968 54.857,20.556C54.888,22.433 54.702,23.956 54.147,26.376C53.567,28.896 52.019,31.644 51.731,32.043C51.236,32.731 50.726,33.412 50.217,34.091L49.984,34.402C49.862,34.565 49.738,34.726 49.614,34.886C49.224,35.386 48.858,35.859 48.592,36.391C47.935,37.706 46.817,38.598 45.36,38.971C44.738,39.136 44.137,39.372 43.569,39.675C42.391,40.284 41.16,40.785 39.892,41.172C38.412,41.627 37.028,41.889 35.662,41.973C35.224,42.001 34.748,42.014 34.205,42.014C33.711,42.014 33.218,42.004 32.725,41.993L32.441,41.986C32.031,41.98 31.634,41.929 31.251,41.879L30.933,41.839C30.065,41.73 29.245,41.504 28.453,41.285L28.186,41.211C26.884,40.85 25.619,40.367 24.408,39.769C23.753,39.449 23.128,39.079 22.524,38.72C22.307,38.592 22.156,38.48 22.01,38.37C21.813,38.216 21.602,38.08 21.379,37.966L21.272,37.9C20.697,37.474 20.001,37.243 19.286,37.24C18.366,37.24 17.469,37.634 16.692,38.38C15.905,39.082 15.165,39.838 14.449,40.569C14.084,40.941 13.719,41.314 13.349,41.679C12.999,42.029 12.643,42.376 12.287,42.723C11.946,43.056 11.605,43.389 11.267,43.726C10.917,44.071 10.573,44.416 10.228,44.763C9.825,45.166 9.423,45.57 9.016,45.97C7.849,47.124 6.654,47.946 5.363,48.48C4.899,48.672 4.403,48.77 3.901,48.77" style="fill:white;"/>
            <g transform="matrix(1,0,0,1,0,-0.056)">
                <path d="M15.942,29.355L15.957,29.471C16.064,31.677 15.857,33.939 13.63,35.543C12.129,36.623 9.482,38.218 7.9,39.171C7.483,39.422 7.143,39.628 6.922,39.764C5.696,40.521 2.539,42.894 2.147,43.397C1.609,44.087 1.471,44.793 1.71,45.618C1.986,46.567 2.886,47.23 3.9,47.23C4.195,47.23 4.482,47.173 4.755,47.06C5.849,46.607 6.877,45.897 7.895,44.89C8.3,44.492 8.699,44.092 9.098,43.691C9.445,43.343 9.793,42.994 10.143,42.648C10.483,42.31 10.828,41.973 11.173,41.638C11.524,41.294 11.876,40.95 12.225,40.602C12.592,40.24 12.95,39.874 13.309,39.508C14.043,38.758 14.803,37.981 15.609,37.265C16.666,36.248 17.945,35.7 19.286,35.7C20.313,35.7 21.306,36.021 22.162,36.63C22.532,36.824 22.77,37.003 22.964,37.147C23.075,37.23 23.181,37.311 23.316,37.39C23.915,37.745 24.512,38.099 25.108,38.391C26.298,38.971 27.444,39.409 28.608,39.728L28.878,39.802C29.649,40.016 30.378,40.217 31.126,40.312L31.453,40.352C31.81,40.398 32.146,40.442 32.471,40.447L32.759,40.453C33.241,40.463 33.723,40.474 34.205,40.474C34.714,40.474 35.157,40.462 35.562,40.436C36.802,40.359 38.065,40.12 39.423,39.702C40.599,39.344 41.741,38.879 42.833,38.315C43.509,37.956 44.224,37.676 44.965,37.481C45.975,37.222 46.715,36.634 47.165,35.734C47.5,35.061 47.934,34.503 48.353,33.963C48.471,33.81 48.59,33.658 48.706,33.503L48.94,33.19C49.445,32.52 49.944,31.845 50.436,31.165C50.586,30.952 52.053,28.414 52.591,26.075C53.121,23.765 53.291,22.393 53.261,20.639C53.237,19.153 53.131,18.431 52.986,17.432L52.92,16.982C52.762,15.877 52.814,14.91 53.08,14.027C53.338,13.173 53.59,12.318 53.842,11.463L54.329,9.817C54.462,9.368 54.416,8.986 54.183,8.614C53.161,6.976 51.947,5.465 50.569,4.113C50.226,3.778 49.869,3.615 49.479,3.615L49.418,3.616C47.981,3.673 46.544,3.746 45.109,3.836C44.198,3.901 43.282,3.782 42.418,3.485C42.051,3.355 41.691,3.21 41.331,3.065C40.911,2.895 40.514,2.735 40.11,2.6C37.627,1.774 35.005,1.453 32.396,1.655C29.9,1.844 27.463,2.513 25.22,3.625C24.486,3.988 23.727,4.363 22.846,4.577C21.787,4.834 21.011,5.445 20.472,6.443C20.262,6.834 19.997,7.236 19.662,7.669C19.413,7.991 19.155,8.306 18.896,8.621C18.516,9.084 18.156,9.521 17.826,9.983C16.616,11.671 15.692,13.606 15.081,15.731C14.442,17.959 14.203,20.282 14.375,22.593M3.901,48.825C2.181,48.825 0.65,47.689 0.178,46.063C-0.206,44.742 0.033,43.515 0.888,42.416C1.535,41.585 5.134,38.993 6.084,38.406C6.308,38.268 6.653,38.06 7.076,37.805C8.637,36.863 11.25,35.289 12.698,34.248C14.214,33.156 14.463,31.718 14.366,29.61C14.262,29.113 14.091,28.61 13.923,28.135C13.303,26.384 12.92,24.558 12.783,22.706C12.597,20.208 12.857,17.697 13.548,15.289C14.208,12.989 15.212,10.891 16.528,9.053C16.89,8.549 17.283,8.071 17.663,7.608C17.912,7.305 18.161,7.003 18.4,6.693C18.68,6.331 18.897,6.002 19.067,5.686C19.823,4.286 20.967,3.392 22.469,3.026C23.179,2.854 23.856,2.519 24.512,2.195C26.937,0.992 29.572,0.269 32.272,0.065C35.092,-0.155 37.928,0.192 40.612,1.085C41.065,1.236 41.504,1.413 41.928,1.585C42.267,1.722 42.605,1.859 42.948,1.98C43.586,2.205 44.273,2.29 45.008,2.243C46.318,2.159 47.698,2.089 49.354,2.022C50.231,1.989 51.006,2.308 51.684,2.972C53.152,4.412 54.445,6.021 55.534,7.766C56.016,8.533 56.124,9.376 55.858,10.272L55.373,11.914C55.121,12.773 54.866,13.631 54.608,14.488C54.408,15.153 54.373,15.873 54.5,16.755L54.564,17.202C54.713,18.22 54.83,19.024 54.857,20.612C54.888,22.488 54.702,24.012 54.147,26.432C53.567,28.952 52.019,31.7 51.731,32.098C51.236,32.787 50.726,33.468 50.217,34.147L49.984,34.458C49.862,34.621 49.738,34.781 49.614,34.942C49.224,35.442 48.858,35.915 48.592,36.447C47.935,37.762 46.817,38.654 45.36,39.027C44.738,39.192 44.137,39.428 43.569,39.731C42.391,40.34 41.16,40.841 39.892,41.228C38.412,41.682 37.028,41.944 35.662,42.028C35.224,42.056 34.748,42.07 34.205,42.07C33.711,42.07 33.218,42.059 32.725,42.048L32.441,42.042C32.031,42.035 31.634,41.984 31.251,41.935L30.933,41.895C30.065,41.785 29.245,41.56 28.453,41.34L28.186,41.267C26.884,40.906 25.619,40.423 24.408,39.825C23.753,39.505 23.128,39.134 22.524,38.775C22.307,38.648 22.156,38.535 22.01,38.426C21.813,38.272 21.602,38.136 21.379,38.022L21.272,37.956C20.697,37.53 20.001,37.299 19.286,37.296C18.366,37.296 17.469,37.69 16.692,38.436C15.905,39.137 15.165,39.893 14.449,40.624C14.084,40.997 13.719,41.369 13.349,41.735C12.999,42.085 12.643,42.432 12.287,42.779C11.596,43.454 10.91,44.134 10.228,44.819C9.825,45.222 9.423,45.626 9.016,46.026C7.849,47.18 6.654,48.001 5.363,48.536C4.899,48.728 4.403,48.826 3.901,48.826"/>
            </g>
            <path d="M49.11,21.33C49.11,29.77 42.267,36.615 33.826,36.615C25.386,36.615 18.543,29.77 18.543,21.329C18.543,12.889 25.386,6.047 33.826,6.047C40.254,6.047 45.755,10.013 48.013,15.633C48.739,17.444 49.112,19.378 49.11,21.329" style="fill:rgb(234,234,234);"/>
            <path d="M33.826,6.844C25.839,6.844 19.34,13.342 19.34,21.329C19.34,29.318 25.839,35.817 33.826,35.817C41.814,35.817 48.312,29.317 48.312,21.329C48.312,19.466 47.962,17.649 47.272,15.929C45.084,10.439 39.735,6.825 33.826,6.844M33.826,37.412C24.959,37.412 17.745,30.198 17.745,21.329C17.745,12.462 24.959,5.249 33.826,5.249C40.432,5.249 46.291,9.208 48.753,15.335C49.518,17.241 49.91,19.276 49.908,21.329C49.908,30.198 42.694,37.412 33.826,37.412" style="fill:rgb(42,42,42);"/>
            <path d="M45.346,24.36C44.579,25.205 44.991,27.368 42.876,27.883C41.182,28.293 40.236,27.99 39.126,28.773C37.868,29.657 37.303,31.396 34.67,32.185C32.037,32.978 29.848,31.85 28.157,30.861C26.35,29.804 24.39,28.085 24.113,25.526C23.9,23.551 22.539,21.837 22.805,19.957C23.1,17.889 24.775,17.519 26.083,16.075C27.301,14.733 27.035,12.385 28.203,11.055C30.338,8.631 33.902,9.319 36.156,11.123C37.44,12.153 38.419,13.47 39.496,14.693C40.391,15.708 41.456,16.103 42.706,16.533C44.318,17.092 45.259,17.83 45.758,19.551C46.002,20.395 47.742,21.718 45.346,24.36" style="fill:white;"/>
            <path d="M31.757,10.289C30.552,10.289 29.557,10.723 28.802,11.582C28.354,12.092 28.155,12.882 27.945,13.717C27.689,14.733 27.425,15.783 26.675,16.611C26.194,17.141 25.674,17.538 25.215,17.888C24.363,18.538 23.747,19.008 23.595,20.07C23.47,20.95 23.815,21.868 24.18,22.84C24.487,23.657 24.805,24.502 24.906,25.44C25.154,27.73 27.03,29.277 28.56,30.173C29.786,30.89 31.233,31.655 32.878,31.655C33.399,31.655 33.925,31.575 34.439,31.421C35.981,30.959 36.703,30.138 37.402,29.343C37.78,28.913 38.172,28.468 38.666,28.12C39.532,27.51 40.326,27.429 41.165,27.344C41.629,27.296 42.11,27.247 42.689,27.108C43.584,26.89 43.783,26.328 44.057,25.352C44.209,24.812 44.367,24.252 44.755,23.824C46.283,22.139 45.807,21.314 45.346,20.518C45.203,20.269 45.067,20.034 44.991,19.774C44.605,18.441 43.963,17.814 42.445,17.286C41.286,16.888 39.969,16.436 38.898,15.22C38.631,14.915 38.368,14.608 38.108,14.298C37.315,13.361 36.566,12.475 35.656,11.745C34.517,10.833 33.059,10.289 31.757,10.289M32.878,33.25C30.931,33.25 29.265,32.433 27.754,31.55C25.105,30 23.572,27.947 23.32,25.612C23.24,24.874 22.971,24.158 22.687,23.4C22.267,22.284 21.833,21.13 22.015,19.845C22.259,18.135 23.315,17.33 24.247,16.619C24.671,16.296 25.11,15.962 25.492,15.539C25.975,15.006 26.18,14.191 26.397,13.329C26.645,12.345 26.9,11.329 27.604,10.528C28.662,9.328 30.097,8.693 31.757,8.693C33.435,8.693 35.22,9.351 36.654,10.5C37.684,11.327 38.519,12.314 39.326,13.267C39.58,13.568 39.835,13.869 40.096,14.165C40.832,15.001 41.711,15.347 42.966,15.778C44.427,16.285 45.868,17.066 46.524,19.329C46.546,19.404 46.647,19.579 46.728,19.719C47.258,20.639 48.247,22.349 45.937,24.896C45.801,25.046 45.696,25.421 45.594,25.784C45.322,26.75 44.912,28.209 43.066,28.658C42.379,28.824 41.82,28.881 41.326,28.931C40.594,29.005 40.11,29.055 39.586,29.425C39.244,29.665 38.946,30.005 38.6,30.397C37.832,31.27 36.877,32.357 34.899,32.949C34.236,33.149 33.555,33.25 32.879,33.25" style="fill:rgb(42,42,42);"/>
            <path d="M35.018,23.587C32.86,24.38 30.488,23.329 29.72,21.238C28.949,19.148 30.075,16.809 32.232,16.014C34.389,15.221 36.761,16.272 37.53,18.364C38.3,20.455 37.175,22.792 35.018,23.587" style="fill:rgb(252,197,28);"/>
            <path d="M33.707,16.548C33.3,16.548 32.897,16.62 32.507,16.763C31.67,17.066 30.984,17.685 30.597,18.486C30.217,19.276 30.171,20.156 30.469,20.962C30.929,22.214 32.164,23.054 33.543,23.054C33.953,23.053 34.359,22.98 34.743,22.838C36.483,22.197 37.397,20.314 36.781,18.64C36.321,17.388 35.086,16.548 33.707,16.548M33.543,24.649C31.497,24.649 29.66,23.389 28.971,21.513C28.523,20.3 28.591,18.955 29.159,17.794C29.726,16.619 30.731,15.711 31.957,15.266C32.517,15.059 33.11,14.952 33.707,14.952C35.752,14.952 37.589,16.213 38.279,18.09C39.199,20.588 37.859,23.39 35.294,24.336C34.733,24.543 34.141,24.649 33.543,24.649M47.398,5.885C47.349,6.194 47.582,6.348 47.766,6.539C48.328,7.118 48.898,7.694 49.432,8.299C50.12,9.079 50.662,9.965 51.181,10.859C51.318,11.102 51.526,11.212 51.792,11.179C52.06,11.147 52.235,10.984 52.313,10.721C52.427,10.34 52.538,9.959 52.657,9.579C52.735,9.349 52.694,9.095 52.547,8.901C52.189,8.399 51.862,7.871 51.472,7.396C50.93,6.734 50.345,6.108 49.771,5.476C49.618,5.306 49.411,5.253 49.172,5.276C48.777,5.313 48.378,5.333 47.98,5.331C47.595,5.33 47.398,5.5 47.398,5.885M3.588,44.924C3.984,45.47 4.723,45.514 5.238,45.101C6.473,44.119 6.631,43.737 7.684,42.563C7.971,42.244 8.259,41.925 8.511,41.578C8.591,41.469 8.591,41.261 8.546,41.124C8.527,41.067 8.279,41.025 8.167,41.067C7.721,41.231 7.257,41.38 6.855,41.629C5.607,42.397 5.36,42.502 4.12,43.281C3.728,43.525 3.19,44.379 3.588,44.924" style="fill:rgb(42,42,42);"/>
        </g>
    </g>
</svg>
