<svg viewBox="0 0 100 100" xmlns="http://www.w3.org/2000/svg"><path d="m3.49 70.53c-.32 1.37-.11 3 .67 3.23 1.2.35 4.35.17 6.26.17 21.08 0 33-4.8 39.6-9.31 5.22-3.59 8.14-6.47 10.6-10.46s14-22.81 14-22.81h-9.19c-5.57.18-9.4 2-11.53 5.53l-8.74 14.24a34.1 34.1 0 0 1 -12.1 12.25 43.17 43.17 0 0 1 -7.8 3.41 74.46 74.46 0 0 1 -20.26 3.14c-.77 0-1.37 0-1.51.61z" fill="#fff"/><path d="m94.93 26.49a10.28 10.28 0 0 0 -3.48-.49h-9.15s-14.69 24.24-17.12 28.17-1.82 9.82.15 12.69c2.9 4.23 9.29 7.08 19.34 7.08h5.66a7.25 7.25 0 0 0 .93-2.08c.93-3.15 0-4.18-3.48-5.3q-8.13-2.68-5.78-10.56a19.18 19.18 0 0 1 2.26-4.84l11-18c2.91-4.79.49-6.37-.33-6.67z" fill="#faa81a"/></svg>