<?xml version="1.0" encoding="UTF-8" standalone="no"?>
<!DOCTYPE svg PUBLIC "-//W3C//DTD SVG 1.1//EN" "http://www.w3.org/Graphics/SVG/1.1/DTD/svg11.dtd">
<svg width="100%" height="100%" viewBox="0 0 209 209" version="1.1" xmlns="http://www.w3.org/2000/svg" xmlns:xlink="http://www.w3.org/1999/xlink" xml:space="preserve" xmlns:serif="http://www.serif.com/" style="fill-rule:evenodd;clip-rule:evenodd;stroke-linejoin:round;stroke-miterlimit:2;">
    <g transform="matrix(1,0,0,1,-11.17,-8.33)">
        <path id="Radar_xA0_Urklippsbana" d="M77.17,88.43C75.07,88.43 73.37,90.13 73.37,92.23C73.37,94.33 75.07,96.03 77.17,96.03C79.27,96.03 80.97,94.33 80.97,92.23C80.97,90.13 79.27,88.43 77.17,88.43ZM60.37,173.33C62.47,173.33 64.17,171.63 64.17,169.53C64.17,167.43 62.47,165.73 60.37,165.73C58.27,165.73 56.57,167.43 56.57,169.53C56.57,171.63 58.27,173.33 60.37,173.33ZM115.57,8.33C57.97,8.33 11.17,55.13 11.17,112.73C11.17,170.33 57.87,217.13 115.57,217.13C173.27,217.13 219.97,170.43 219.97,112.73C219.97,55.03 173.27,8.33 115.57,8.33ZM79.97,156.03C67.87,145.93 60.27,130.73 60.27,113.73C60.27,107.53 61.27,101.53 63.17,95.93C63.87,96.93 64.97,97.53 66.27,97.53C68.37,97.53 70.07,95.83 70.07,93.73C70.07,91.63 68.37,89.93 66.27,89.93C66.07,89.93 65.77,89.93 65.57,90.03C74.47,71.43 93.47,58.53 115.47,58.53C145.97,58.53 170.67,83.23 170.67,113.73C170.67,136.33 157.07,155.83 137.57,164.33C137.67,164.03 137.67,163.73 137.67,163.43C137.67,161.33 135.97,159.63 133.87,159.63C131.77,159.63 130.07,161.33 130.07,163.43C130.07,164.73 130.67,165.83 131.67,166.53C126.57,168.13 121.07,168.93 115.47,168.93C112.07,168.93 108.77,168.63 105.67,168.03L108.47,146.73C110.77,147.23 113.17,147.53 115.67,147.53C131.57,147.53 144.87,136.63 148.67,122.03C149.37,123.03 150.47,123.63 151.77,123.63C153.87,123.63 155.57,121.93 155.57,119.83C155.57,117.73 153.87,116.03 151.77,116.03C150.97,116.03 150.17,116.33 149.57,116.73C149.67,115.63 149.77,114.63 149.77,113.53C149.77,94.73 134.57,79.53 115.77,79.53C96.97,79.53 81.77,94.73 81.77,113.53C81.77,123.83 86.37,133.03 93.57,139.23L79.97,156.03ZM87.27,113.73C87.27,98.23 99.87,85.63 115.37,85.63C130.87,85.63 143.47,98.23 143.47,113.73C143.47,129.23 130.87,141.83 115.37,141.83C113.27,141.83 111.27,141.63 109.27,141.13L112.67,115.53C113.37,116.53 114.47,117.13 115.77,117.13C117.87,117.13 119.57,115.43 119.57,113.33C119.57,111.23 117.87,109.53 115.77,109.53C113.67,109.53 111.97,111.23 111.97,113.33C111.97,114.03 112.17,114.73 112.57,115.33L96.97,134.83C90.97,129.73 87.27,122.13 87.27,113.73ZM115.67,201.63C110.77,201.63 105.97,201.23 101.27,200.43L104.87,173.73C108.37,174.33 111.97,174.63 115.57,174.63C149.47,174.63 176.97,147.13 176.97,113.23C176.97,79.33 149.47,51.83 115.57,51.83C81.67,51.83 54.17,79.33 54.17,113.23C54.17,132.23 62.77,149.23 76.37,160.43L59.57,181.43C39.97,165.23 27.37,140.73 27.37,113.23C27.37,64.43 66.87,24.93 115.67,24.93C164.47,24.93 203.97,64.43 203.97,113.23C203.97,162.03 164.47,201.63 115.67,201.63ZM147.07,39.13C144.97,39.13 143.27,40.83 143.27,42.93C143.27,45.03 144.97,46.73 147.07,46.73C149.17,46.73 150.87,45.03 150.87,42.93C150.87,40.83 149.17,39.13 147.07,39.13Z" style="fill:white;fill-rule:nonzero;"/>
    </g>
</svg>
