<?xml version="1.0" encoding="UTF-8" standalone="no"?>
<!DOCTYPE svg PUBLIC "-//W3C//DTD SVG 1.1//EN" "http://www.w3.org/Graphics/SVG/1.1/DTD/svg11.dtd">
<svg width="100%" height="100%" viewBox="0 0 70 45" version="1.1" xmlns="http://www.w3.org/2000/svg" xmlns:xlink="http://www.w3.org/1999/xlink" xml:space="preserve" xmlns:serif="http://www.serif.com/" style="fill-rule:evenodd;clip-rule:evenodd;stroke-linejoin:round;stroke-miterlimit:2;">
    <g id="Vrstva-1" serif:id="Vrstva 1" transform="matrix(1,0,0,1,-340,-510.362)">
        <path id="rect4235" d="M344,514.362L356,510.362L374,514.362L382,512.362L400,520.362L402,518.362L404,520.362L404,522.362L406,528.362L406,530.362L410,538.362L406,540.362L398,536.362L390,538.362L388,550.362L390,552.362L390,554.362L382,554.362L380,552.362L376,540.362L362,542.362L354,540.362L352,550.362L354,552.362L354,554.362L346,554.362L344,552.362L340,540.362L340,526.362L344,514.362Z" style="fill:rgb(242,242,242);fill-rule:nonzero;"/>
    </g>
</svg>
