<?xml version="1.0" encoding="UTF-8" standalone="no"?>
<!DOCTYPE svg PUBLIC "-//W3C//DTD SVG 1.1//EN" "http://www.w3.org/Graphics/SVG/1.1/DTD/svg11.dtd">
<svg width="100%" height="100%" viewBox="0 0 331 247" version="1.1" xmlns="http://www.w3.org/2000/svg" xmlns:xlink="http://www.w3.org/1999/xlink" xml:space="preserve" xmlns:serif="http://www.serif.com/" style="fill-rule:evenodd;clip-rule:evenodd;stroke-linejoin:round;stroke-miterlimit:2;">
    <g transform="matrix(1,0,0,1,-6.63963e-06,-9.38768)">
        <path d="M279.039,214.021C293.477,213.781 306.904,207.861 316.818,197.37C336.26,176.724 335.202,143.132 314.508,122.438L259.404,67.335C238.758,46.689 205.167,46.689 184.473,67.287C179.323,72.388 179.323,80.762 184.473,85.863C189.622,91.013 197.948,91.013 203.049,85.863C213.492,75.468 230.433,75.468 240.828,85.863L295.931,140.967C306.663,151.699 307.433,168.88 297.664,179.275C292.659,184.568 285.921,187.552 278.654,187.697C271.387,187.648 264.553,185.05 259.404,179.9L146.694,67.239C126.048,46.593 92.457,46.593 71.811,67.239L15.504,123.546C5.301,133.748 -0.233,147.367 0.008,161.805C0.248,176.243 6.168,189.67 16.659,199.584C37.257,219.026 70.897,217.968 91.59,197.274L117.504,171.36C120.458,172.38 123.63,172.934 126.931,172.934C142.878,172.934 155.806,160.006 155.806,144.058C155.806,128.111 142.878,115.183 126.931,115.183C110.983,115.183 98.055,128.111 98.055,144.058C98.055,146.968 98.486,149.777 99.286,152.425L73.014,178.697C62.282,189.429 45.101,190.199 34.706,180.43C29.412,175.425 26.429,168.687 26.284,161.42C26.188,154.153 28.931,147.32 34.08,142.17L90.387,85.863C95.441,80.81 102.13,78.067 109.252,78.067C116.375,78.067 123.064,80.858 128.118,85.863L240.828,198.525C250.838,208.535 264.12,214.021 278.269,214.021L279.039,214.021ZM126.931,153.684C132.247,153.684 136.556,149.375 136.556,144.059C136.556,138.743 132.247,134.434 126.931,134.434C121.616,134.434 117.306,138.743 117.306,144.059C117.306,149.375 121.616,153.684 126.931,153.684Z" style="fill:url(#_Linear1);"/>
    </g>
    <defs>
        <linearGradient id="_Linear1" x1="0" y1="0" x2="1" y2="0" gradientUnits="userSpaceOnUse" gradientTransform="matrix(197.004,0,0,197.004,46.9321,149.208)"><stop offset="0" style="stop-color:rgb(254,43,124);stop-opacity:1"/><stop offset="1" style="stop-color:rgb(251,11,241);stop-opacity:1"/></linearGradient>
    </defs>
</svg>
