<?xml version="1.0" encoding="UTF-8" standalone="no"?>
<!DOCTYPE svg PUBLIC "-//W3C//DTD SVG 1.1//EN" "http://www.w3.org/Graphics/SVG/1.1/DTD/svg11.dtd">
<svg width="100%" height="100%" viewBox="0 0 80 80" version="1.1" xmlns="http://www.w3.org/2000/svg" xmlns:xlink="http://www.w3.org/1999/xlink" xml:space="preserve" xmlns:serif="http://www.serif.com/" style="fill-rule:evenodd;clip-rule:evenodd;stroke-linejoin:round;stroke-miterlimit:2;">
    <g transform="matrix(1,0,0,1,-270,-9.86072e-06)">
        <path d="M310.027,0.093L344.54,20.129L344.54,34.799L335.422,40.053L344.54,45.307L344.54,59.98L310.026,79.907L275.46,59.927L275.46,20.128L310.027,0.093ZM333.592,36.896L340.891,32.69L340.891,24.337L333.592,28.543L333.592,36.896ZM331.768,25.382L339.071,21.174L310.025,4.312L280.944,21.168L288.331,25.383L310.025,12.815L331.768,25.382ZM286.513,28.548L279.109,24.322L279.109,57.822L308.201,74.638L308.201,66.137L286.513,53.729L286.513,28.548ZM311.851,66.137L311.851,74.639L340.891,57.873L340.891,49.509L311.851,66.137ZM339.052,46.357L310.026,62.976L291.966,52.644L299.182,48.377L310.021,54.787L324.457,46.349L313.642,40.131L320.833,35.859L339.052,46.357ZM321.733,32.166L329.942,36.896L329.942,28.541L311.851,18.086L311.851,26.437L321.729,32.164L321.733,32.166ZM308.201,26.434L308.201,18.089L290.162,28.54L290.162,49.471L297.357,45.217L297.357,32.691L308.201,26.434ZM301.006,45.217L308.201,49.471L308.201,39.119L317.213,33.764L310.024,29.596L301.006,34.799L301.006,45.217ZM311.851,49.49L317.18,46.375L311.851,43.311L311.851,49.49Z" style="fill:rgb(254,254,254);"/>
    </g>
</svg>
