<?xml version="1.0" encoding="UTF-8" standalone="no"?>
<!DOCTYPE svg PUBLIC "-//W3C//DTD SVG 1.1//EN" "http://www.w3.org/Graphics/SVG/1.1/DTD/svg11.dtd">
<svg width="100%" height="100%" viewBox="0 0 380 92" version="1.1" xmlns="http://www.w3.org/2000/svg" xmlns:xlink="http://www.w3.org/1999/xlink" xml:space="preserve" xmlns:serif="http://www.serif.com/" style="fill-rule:evenodd;clip-rule:evenodd;stroke-linejoin:round;stroke-miterlimit:2;">
    <path d="M51.07,4.922L88.734,4.922C94.831,4.922 99.774,10.029 99.774,16.33L99.774,60.618C99.774,66.918 94.831,72.025 88.734,72.025L34.835,72.025L51.07,4.922Z" style="fill:white;fill-rule:nonzero;"/>
    <path d="M41.287,17.635L10.945,17.635C4.9,17.635 0,22.742 0,29.042L0,73.33C0,79.631 4.9,84.738 10.945,84.738L48.289,84.738L49.786,78.495L26.688,78.495L41.287,17.635Z" style="fill:white;fill-rule:nonzero;"/>
    <path d="M145.001,71.998L128.396,17.654L137.777,17.654L149.53,59.167L162.253,17.654L171.095,17.654L183.818,59.167L195.463,17.654L205.06,17.654L188.347,71.998L179.397,71.998L166.674,30.701L153.95,71.998L145.001,71.998ZM246.426,36.632C246.426,29.192 241.142,24.447 233.163,24.447C225.723,24.447 220.44,28.868 219.685,36.2L211.167,34.583C212.784,23.801 221.734,16.792 233.163,16.792C246.318,16.792 255.483,24.555 255.483,37.171L255.483,71.998L246.426,71.998L246.426,62.725C243.299,68.979 236.182,72.861 228.311,72.861C217.421,72.861 209.981,66.176 209.981,56.795C209.981,46.336 218.499,40.621 235.859,38.896L246.426,37.71L246.426,36.632ZM219.146,56.687C219.146,61.755 223.459,65.313 229.713,65.313C240.28,65.313 246.426,58.304 246.426,47.414L246.426,44.826L235.859,46.012C224.861,47.199 219.146,50.972 219.146,56.687ZM317.181,36.093L308.016,37.818C307.584,29.731 302.517,25.094 294.322,25.094C284.294,25.094 277.825,34.152 277.825,48.708L277.825,71.998L268.66,71.998L268.66,17.654L277.825,17.654L277.825,28.329C281.814,20.566 288.499,16.792 296.478,16.792C308.555,16.792 316.75,24.34 317.181,36.093ZM326.95,91.622L326.95,17.654L336.115,17.654L336.115,25.526C339.027,20.566 346.143,16.792 354.014,16.792C370.727,16.792 380,28.868 380,44.826C380,60.784 370.512,72.861 353.799,72.861C346.898,72.861 339.781,69.41 336.115,64.451L336.115,91.622L326.95,91.622ZM352.936,64.666C363.719,64.666 370.727,56.795 370.727,44.826C370.727,32.858 363.719,24.987 352.936,24.987C342.369,24.987 335.361,32.858 335.361,44.826C335.361,56.795 342.369,64.666 352.936,64.666Z" style="fill:white;fill-rule:nonzero;"/>
</svg>
