<?xml version="1.0" encoding="UTF-8" standalone="no"?>
<!DOCTYPE svg PUBLIC "-//W3C//DTD SVG 1.1//EN" "http://www.w3.org/Graphics/SVG/1.1/DTD/svg11.dtd">
<svg width="100%" height="100%" viewBox="0 0 33 44" version="1.1" xmlns="http://www.w3.org/2000/svg" xmlns:xlink="http://www.w3.org/1999/xlink" xml:space="preserve" xmlns:serif="http://www.serif.com/" style="fill-rule:evenodd;clip-rule:evenodd;stroke-linejoin:round;stroke-miterlimit:2;">
    <g id="_1" serif:id="1" transform="matrix(1,0,0,1,-35.3519,-31.8508)">
        <g id="VBA-FInal">
            <g id="_11" serif:id="1">
                <path id="AD-G-" serif:id="AD-G*" d="M46.873,48.065L40.992,48.065L39.835,52.156L35.852,52.156L42.271,32.563L45.702,32.563L52,52.156L48.017,52.156L46.873,48.065ZM41.921,44.849L45.985,44.849L43.98,37.636L41.921,44.849ZM53.695,52.156L53.695,32.563L58.769,32.563C60.069,32.563 61.247,32.785 62.301,33.229C63.355,33.673 64.257,34.292 65.006,35.086C65.755,35.88 66.334,36.829 66.742,37.933C67.15,39.036 67.354,40.247 67.354,41.566L67.354,43.181C67.354,44.499 67.15,45.708 66.742,46.807C66.334,47.906 65.762,48.853 65.026,49.647C64.29,50.441 63.407,51.057 62.375,51.497C61.343,51.936 60.204,52.156 58.957,52.156L53.695,52.156ZM57.504,35.631L57.504,49.115L58.957,49.115C59.666,49.115 60.3,48.98 60.861,48.711C61.422,48.442 61.897,48.052 62.288,47.541C62.678,47.029 62.976,46.408 63.182,45.677C63.389,44.946 63.492,44.114 63.492,43.181L63.492,41.539C63.492,40.66 63.391,39.859 63.189,39.137C62.987,38.415 62.687,37.793 62.288,37.273C61.888,36.753 61.395,36.349 60.807,36.062C60.22,35.775 59.54,35.631 58.769,35.631L57.504,35.631ZM50.708,73.294C50.466,73.59 50.134,73.891 49.712,74.196C49.291,74.501 48.79,74.776 48.212,75.023C47.633,75.27 46.985,75.469 46.267,75.622C45.55,75.775 44.778,75.851 43.953,75.851C42.84,75.851 41.836,75.653 40.939,75.259C40.041,74.864 39.274,74.294 38.637,73.55C38,72.805 37.509,71.892 37.164,70.811C36.819,69.73 36.646,68.503 36.646,67.131L36.646,64.466C36.646,63.094 36.827,61.867 37.191,60.786C37.554,59.705 38.057,58.788 38.698,58.034C39.339,57.281 40.093,56.706 40.959,56.312C41.824,55.917 42.764,55.72 43.778,55.72C44.881,55.72 45.843,55.859 46.664,56.137C47.485,56.415 48.178,56.816 48.743,57.341C49.309,57.866 49.75,58.505 50.069,59.259C50.387,60.012 50.596,60.86 50.695,61.802L47.007,61.802C46.882,60.797 46.579,60.041 46.099,59.535C45.619,59.028 44.877,58.774 43.872,58.774C43.388,58.774 42.939,58.898 42.526,59.144C42.114,59.391 41.755,59.752 41.45,60.228C41.145,60.703 40.903,61.293 40.723,61.997C40.544,62.701 40.454,63.515 40.454,64.439L40.454,67.131C40.463,68.961 40.768,70.363 41.369,71.336C41.97,72.309 42.89,72.801 44.128,72.81C44.424,72.81 44.715,72.787 45.002,72.742C45.29,72.697 45.559,72.635 45.81,72.554C46.061,72.473 46.283,72.381 46.476,72.278C46.669,72.175 46.815,72.065 46.913,71.948L46.927,68.396L43.684,68.396L43.684,65.57L50.695,65.57L50.708,73.294ZM59.361,67.01L54.086,65.718L54.974,62.959L60.02,65.193L59.536,59.393L62.483,59.393L61.958,65.287L66.964,63.094L67.852,65.906L62.496,67.131L66.103,71.477L63.707,73.213L60.868,68.207L58.028,73.065L55.62,71.41L59.361,67.01Z" style="fill:rgb(254,255,254);"/>
            </g>
        </g>
    </g>
</svg>
