<?xml version="1.0" encoding="UTF-8" standalone="no"?>
<!DOCTYPE svg PUBLIC "-//W3C//DTD SVG 1.1//EN" "http://www.w3.org/Graphics/SVG/1.1/DTD/svg11.dtd">
<svg width="100%" height="100%" viewBox="0 0 35 28" version="1.1" xmlns="http://www.w3.org/2000/svg" xmlns:xlink="http://www.w3.org/1999/xlink" xml:space="preserve" xmlns:serif="http://www.serif.com/" style="fill-rule:evenodd;clip-rule:evenodd;stroke-linejoin:round;stroke-miterlimit:2;">
    <g id="Airalo-Logo" transform="matrix(1,0,0,1,-7.7e-05,0.034209)">
        <g id="Symbols">
            <g id="Web--_Assets-Logo-Horizontal-Light-Mode" serif:id="Web/*_Assets/Logo/Horizontal/Light-Mode">
                <g id="Airalo-Logo1" serif:id="Airalo-Logo">
                    <g id="Group" transform="matrix(1,0,0,1,0.304444,-0.00076405)">
                        <path id="Path" d="M34.391,1.382L34.391,19.483C34.391,19.483 34.453,22.285 32.12,24.948C29.787,27.61 26.724,27.932 25.912,27.932L22.423,27.932L22.864,7.797C22.864,7.797 22.922,4.77 25.466,2.241C27.89,-0.168 30.984,0.003 30.984,0.003L33.054,0.003C33.054,0.002 34.391,-0.123 34.391,1.382Z" style="fill:url(#_Linear1);fill-rule:nonzero;"/>
                        <path id="Path1" serif:id="Path" d="M11.31,15.669L11.412,27.932L1.214,27.932C1.214,27.932 0,27.904 0,26.962L0,23.284C0,23.284 -0.045,20.576 2.062,18.302C4.168,16.028 6.681,15.729 7.464,15.729C8.247,15.729 11.31,15.669 11.31,15.669Z" style="fill:url(#_Linear2);fill-rule:nonzero;"/>
                        <path id="Path2" serif:id="Path" d="M22.915,27.932L10.844,27.932L11.309,15.669C11.309,15.669 11.166,12.75 13.879,10.154C15.741,8.374 17.469,7.924 18.978,7.924L22.861,7.924L22.915,27.932Z" style="fill:url(#_Linear3);fill-rule:nonzero;"/>
                        <path id="Path3" serif:id="Path" d="M22.412,27.933L22.915,27.933L22.862,7.925L22.412,27.933Z" style="fill:rgb(181,13,49);fill-opacity:0.61;fill-rule:nonzero;"/>
                        <path id="Path4" serif:id="Path" d="M11.309,15.518L10.833,27.932L11.4,27.932L11.309,15.518Z" style="fill:rgb(200,78,40);fill-opacity:0.59;fill-rule:nonzero;"/>
                    </g>
                    <g id="Group1" serif:id="Group">
                    </g>
                </g>
            </g>
        </g>
    </g>
    <defs>
        <linearGradient id="_Linear1" x1="0" y1="0" x2="1" y2="0" gradientUnits="userSpaceOnUse" gradientTransform="matrix(0.296547,28.3708,-28.3708,0.296547,28.238,-1.55882)"><stop offset="0" style="stop-color:rgb(167,85,132);stop-opacity:1"/><stop offset="0.02" style="stop-color:rgb(167,85,132);stop-opacity:1"/><stop offset="0.42" style="stop-color:rgb(182,73,111);stop-opacity:1"/><stop offset="0.57" style="stop-color:rgb(191,72,104);stop-opacity:1"/><stop offset="0.82" style="stop-color:rgb(214,68,85);stop-opacity:1"/><stop offset="0.91" style="stop-color:rgb(224,67,77);stop-opacity:1"/><stop offset="1" style="stop-color:rgb(224,67,77);stop-opacity:1"/></linearGradient>
        <linearGradient id="_Linear2" x1="0" y1="0" x2="1" y2="0" gradientUnits="userSpaceOnUse" gradientTransform="matrix(-8.71178,25.5766,-25.5766,-8.71178,8.4976,16.8215)"><stop offset="0" style="stop-color:rgb(255,224,101);stop-opacity:1"/><stop offset="0" style="stop-color:rgb(255,224,101);stop-opacity:1"/><stop offset="0.02" style="stop-color:rgb(255,220,84);stop-opacity:1"/><stop offset="0.13" style="stop-color:rgb(255,201,6);stop-opacity:1"/><stop offset="0.14" style="stop-color:rgb(254,195,12);stop-opacity:1"/><stop offset="0.26" style="stop-color:rgb(245,157,49);stop-opacity:1"/><stop offset="0.32" style="stop-color:rgb(242,143,63);stop-opacity:1"/><stop offset="0.47" style="stop-color:rgb(237,105,72);stop-opacity:1"/><stop offset="1" style="stop-color:rgb(237,105,72);stop-opacity:1"/></linearGradient>
        <linearGradient id="_Linear3" x1="0" y1="0" x2="1" y2="0" gradientUnits="userSpaceOnUse" gradientTransform="matrix(1.50369,21.971,-21.971,1.50369,16.1848,7.91559)"><stop offset="0" style="stop-color:rgb(207,92,108);stop-opacity:1"/><stop offset="0.02" style="stop-color:rgb(207,92,108);stop-opacity:1"/><stop offset="0.09" style="stop-color:rgb(216,95,104);stop-opacity:1"/><stop offset="0.27" style="stop-color:rgb(235,102,97);stop-opacity:1"/><stop offset="0.4" style="stop-color:rgb(241,104,95);stop-opacity:1"/><stop offset="0.96" style="stop-color:rgb(240,132,65);stop-opacity:1"/><stop offset="1" style="stop-color:rgb(240,132,65);stop-opacity:1"/></linearGradient>
    </defs>
</svg>
