<?xml version="1.0" encoding="UTF-8" standalone="no"?>
<!DOCTYPE svg PUBLIC "-//W3C//DTD SVG 1.1//EN" "http://www.w3.org/Graphics/SVG/1.1/DTD/svg11.dtd">
<svg width="100%" height="100%" viewBox="0 0 500 525" version="1.1" xmlns="http://www.w3.org/2000/svg" xmlns:xlink="http://www.w3.org/1999/xlink" xml:space="preserve" xmlns:serif="http://www.serif.com/" style="fill-rule:evenodd;clip-rule:evenodd;stroke-linejoin:round;stroke-miterlimit:2;">
    <g id="layer7" transform="matrix(1,0,0,1,250,525)">
        <g id="path1639" transform="matrix(1,0,0,1,-350,-550)">
            <path d="M475,150L350,150L349.998,550L483.732,455.273L460,390L515.635,432.674L600,372.916L475,150Z" style="fill:rgb(44,44,44);"/>
        </g>
        <path id="path1627" d="M-250,-177.083L0,0L15,-45L21.341,-300L0,-347.674L0,-360L-100,-400L-125,-400L-250,-177.083Z" style="fill:rgb(211,80,111);"/>
        <path id="path1629" d="M-125,-400L0,-442.453L59.406,-422.277L40,-405L125,-400L0,-347.674" style="fill:rgb(166,18,0);"/>
        <path id="path1631" d="M-25,-475L50,-475L40,-525L-25,-475Z" style="fill:rgb(0,166,124);"/>
        <path id="path1633" d="M0,-400L0,-525L-50,-500L0,-400Z" style="fill:rgb(237,187,96);"/>
        <path id="path1641" d="M133.732,-94.727L100.913,-140.34L-0.002,0L0,-347.674L165.636,-117.325L133.732,-94.727Z" style="fill:white;"/>
        <path id="path1643" d="M40,-106.791L40,-225L82.566,-165.893L40,-106.791Z" style="fill:rgb(150,202,243);"/>
        <path id="path1955" d="M0,-400L125,-400L59.406,-422.277" style="fill:rgb(83,9,0);"/>
    </g>
</svg>
