<?xml version="1.0" encoding="UTF-8" standalone="no"?>
<!DOCTYPE svg PUBLIC "-//W3C//DTD SVG 1.1//EN" "http://www.w3.org/Graphics/SVG/1.1/DTD/svg11.dtd">
<svg width="100%" height="100%" viewBox="0 0 60 64" version="1.1" xmlns="http://www.w3.org/2000/svg" xmlns:xlink="http://www.w3.org/1999/xlink" xml:space="preserve" xmlns:serif="http://www.serif.com/" style="fill-rule:evenodd;clip-rule:evenodd;stroke-linejoin:round;stroke-miterlimit:2;">
    <g id="Layer1" transform="matrix(1,0,0,1,0.280731,-0.05)">
        <path d="M58.1,10.5L56.5,9.4L56.5,6.2C56.5,2.8 53.7,0 50.3,0L39.1,0C35.7,0 32.9,2.8 32.9,6.2L32.9,31.2L29.4,31.2L29.4,27.4C29.4,26.3 28.5,25.5 27.5,25.5C26.5,25.5 25.6,26.4 25.6,27.4L25.6,31.2L21.8,31.2C20.7,31.2 19.9,32.1 19.9,33.1C19.9,34.2 20.8,35 21.8,35L25.6,35L25.6,38.8C25.6,39.9 26.5,40.7 27.5,40.7C28.5,40.7 29.4,39.8 29.4,38.8L29.4,35L32.9,35L32.9,47.3C32.9,51.5 36.3,54.9 40.5,54.9L43.2,54.9C50.5,54.9 56.5,48.9 56.5,41.6L56.5,38.8C56.5,34.6 53.1,31.2 48.9,31.2L36.7,31.2L36.7,6.2C36.7,4.9 37.8,3.9 39,3.9L50.2,3.9C51.5,3.9 52.5,5 52.5,6.2L52.5,11.5L55.2,13.3L52.5,15.1L52.5,17.6C52.5,19.6 50.8,21.3 48.8,21.3L47.3,21.3C45.3,21.3 43.6,19.6 43.6,17.6L43.6,17.5C43.6,16.4 42.7,15.6 41.7,15.6C40.7,15.6 39.8,16.5 39.8,17.5L39.8,17.6C39.8,21.8 43.2,25.1 47.3,25.1L48.8,25.1C53,25.1 56.3,21.7 56.3,17.6L56.3,17.1L57.9,16C58.8,15.4 59.4,14.3 59.4,13.2C59.6,12.1 59,11.1 58.1,10.5ZM48.9,35C51,35 52.7,36.7 52.7,38.8L52.7,41.6C52.7,46.8 48.5,51 43.3,51L40.6,51C38.5,51 36.8,49.3 36.8,47.2L36.8,35L48.9,35Z" style="fill:url(#_Linear1);fill-rule:nonzero;"/>
        <path d="M8.5,19.7L8.5,21.7C8.5,25.1 11.3,27.9 14.7,27.9L16.1,27.9C19.5,27.9 22.3,25.1 22.3,21.7L22.3,20.3C22.3,19.2 21.4,18.4 20.4,18.4C19.3,18.4 18.5,19.3 18.5,20.3L18.5,21.7C18.5,23 17.4,24 16.2,24L14.8,24C13.5,24 12.5,22.9 12.5,21.7L12.5,18.1L10.5,16.1L12.5,14.1L12.5,10.5C12.5,10 12.9,9.6 13.4,9.6L24.8,9.6C25.3,9.6 25.7,10 25.7,10.5L25.7,21.9C25.7,23 26.6,23.8 27.6,23.8C28.6,23.8 29.5,22.9 29.5,21.9L29.5,10.4C29.5,7.8 27.4,5.6 24.7,5.6L13.3,5.6C10.7,5.6 8.5,7.7 8.5,10.4L8.5,12.4L6.7,14.2C6.2,14.7 6,15.4 6,16.1C6,16.8 6.3,17.5 6.8,18L8.5,19.7Z" style="fill:url(#_Linear2);fill-rule:nonzero;"/>
        <path d="M27.5,42.6C26.4,42.6 25.6,43.5 25.6,44.5L25.6,55.9C25.6,58 23.9,59.7 21.8,59.7L13.3,59.7C8.1,59.7 3.9,55.5 3.9,50.3L3.9,38.8C3.9,36.7 5.6,35 7.7,35L16.2,35C17.3,35 18.1,34.1 18.1,33.1C18.1,32 17.2,31.2 16.2,31.2L7.6,31.2C3.4,31.2 0,34.6 0,38.8L0,50.2C0,57.5 6,63.5 13.3,63.5L21.8,63.5C26,63.5 29.4,60.1 29.4,55.9L29.4,44.5C29.4,43.4 28.5,42.6 27.5,42.6Z" style="fill:url(#_Linear3);fill-rule:nonzero;"/>
        <circle cx="46.1" cy="11" r="2.2" style="fill:url(#_Linear4);"/>
        <circle cx="18.1" cy="15" r="2.2" style="fill:url(#_Linear5);"/>
    </g>
    <defs>
        <linearGradient id="_Linear1" x1="0" y1="0" x2="1" y2="0" gradientUnits="userSpaceOnUse" gradientTransform="matrix(33.4554,42.7387,-42.7387,33.4554,27.1045,4.786)"><stop offset="0" style="stop-color:rgb(134,85,161);stop-opacity:1"/><stop offset="1" style="stop-color:rgb(79,114,182);stop-opacity:1"/></linearGradient>
        <linearGradient id="_Linear2" x1="0" y1="0" x2="1" y2="0" gradientUnits="userSpaceOnUse" gradientTransform="matrix(33.4553,42.7387,-42.7387,33.4553,16.4313,13.1409)"><stop offset="0" style="stop-color:rgb(134,85,161);stop-opacity:1"/><stop offset="1" style="stop-color:rgb(79,114,182);stop-opacity:1"/></linearGradient>
        <linearGradient id="_Linear3" x1="0" y1="0" x2="1" y2="0" gradientUnits="userSpaceOnUse" gradientTransform="matrix(33.4554,42.7388,-42.7388,33.4554,-2.1887,27.7163)"><stop offset="0" style="stop-color:rgb(134,85,161);stop-opacity:1"/><stop offset="1" style="stop-color:rgb(79,114,182);stop-opacity:1"/></linearGradient>
        <linearGradient id="_Linear4" x1="0" y1="0" x2="1" y2="0" gradientUnits="userSpaceOnUse" gradientTransform="matrix(33.4554,42.7388,-42.7388,33.4554,35.8218,-2.1572)"><stop offset="0" style="stop-color:rgb(134,85,161);stop-opacity:1"/><stop offset="1" style="stop-color:rgb(79,114,182);stop-opacity:1"/></linearGradient>
        <linearGradient id="_Linear5" x1="0" y1="0" x2="1" y2="0" gradientUnits="userSpaceOnUse" gradientTransform="matrix(33.4554,42.7387,-42.7387,33.4554,16.55,13.0479)"><stop offset="0" style="stop-color:rgb(134,85,161);stop-opacity:1"/><stop offset="1" style="stop-color:rgb(79,114,182);stop-opacity:1"/></linearGradient>
    </defs>
</svg>
