<?xml version="1.0" encoding="UTF-8" standalone="no"?>
<!DOCTYPE svg PUBLIC "-//W3C//DTD SVG 1.1//EN" "http://www.w3.org/Graphics/SVG/1.1/DTD/svg11.dtd">
<svg width="100%" height="100%" viewBox="0 0 302 220" version="1.1" xmlns="http://www.w3.org/2000/svg" xmlns:xlink="http://www.w3.org/1999/xlink" xml:space="preserve" xmlns:serif="http://www.serif.com/" style="fill-rule:evenodd;clip-rule:evenodd;stroke-linejoin:round;stroke-miterlimit:2;">
    <g id="Ebene-1" serif:id="Ebene 1" transform="matrix(1,0,0,1,398.49,-50.678)">
        <g id="path5085" transform="matrix(1,0,0,1,-16.6675,-36.6463)">
            <path d="M-84.207,87.325C-87.349,87.352 -96.902,88.045 -127.869,90.178C-166.219,92.815 -204.668,95.466 -242.547,98.06C-280.855,100.683 -277.067,100.327 -278.889,101.466C-280.936,102.744 -282.092,104.913 -282.771,108.752C-288.441,136.156 -292.986,155.821 -296.654,171.76C-296.847,172.266 -297.241,174.002 -297.528,175.62C-298.014,178.359 -298.004,178.623 -297.382,179.479C-296.07,181.286 -294.485,181.695 -283.052,183.181C-239.717,188.844 -194.453,194.824 -154.517,200.061C-138.794,202.122 -124.669,203.99 -114.269,205.384C-102.556,206.953 -102.341,206.958 -101.825,205.668C-101.416,204.645 -100.668,201.142 -99.214,193.446C-93.217,162.389 -86.256,125.92 -81.182,100.086C-79.594,92.005 -79.52,91.121 -80.312,89.766C-80.707,89.088 -81.573,88.217 -82.235,87.831C-82.745,87.533 -82.322,87.309 -84.207,87.325L-84.207,87.325ZM-306.32,188.096C-307.828,188.08 -309.262,188.189 -310.73,188.417C-312.751,188.73 -328.547,190.99 -345.831,193.438C-363.116,195.886 -377.975,198.149 -378.851,198.467C-381.488,199.422 -382.554,202.049 -381.295,204.485C-380.518,205.987 -378.582,206.883 -372.48,208.564C-371.671,208.786 -370.596,209.105 -370.09,209.271C-312.964,225.3 -252.59,242.978 -199.175,258.187C-196.176,259.088 -192.084,260.664 -189.477,260.672C-187.505,260.14 -176.239,254.581 -150.699,241.73C-129.955,231.291 -112.676,222.484 -112.302,222.158C-110.88,220.922 -110.126,218.253 -110.875,217.108C-111.023,216.881 -113.047,216.414 -115.372,216.071C-120.894,215.257 -138.097,212.742 -144.409,211.827C-147.138,211.431 -151.025,210.853 -153.047,210.542C-155.068,210.231 -161.271,209.319 -166.83,208.514C-172.39,207.71 -181.486,206.386 -187.046,205.572C-192.605,204.759 -200.544,203.603 -204.689,203.004C-214.254,201.621 -234.603,198.638 -246.039,196.942C-250.891,196.222 -258.251,195.145 -262.396,194.547C-287.733,190.894 -295.554,189.72 -297.681,189.25C-301.093,188.497 -303.808,188.122 -306.32,188.096ZM-327.466,229.166C-327.557,229.159 -327.624,229.159 -327.662,229.167C-328.34,229.31 -341.789,258.149 -341.789,259.46C-341.789,260.802 -340.823,262.449 -339.67,263.075C-338.394,263.767 -337.586,263.778 -335.736,263.13C-330.146,261.391 -324.186,259.45 -318.632,257.782C-302.072,252.815 -301.799,252.713 -300.044,250.882C-298.59,249.365 -295.919,243.808 -295.134,240.669C-294.981,240.058 -294.659,239.189 -294.418,238.739C-294.177,238.289 -294.042,237.921 -294.118,237.921C-303.781,235.42 -313.813,232.696 -322.963,230.187C-324.959,229.64 -326.827,229.22 -327.466,229.166L-327.466,229.166ZM-155.781,251.681C-156.063,251.67 -156.507,251.879 -157.326,252.357C-158.207,252.871 -160.747,254.313 -162.971,255.56C-169.023,259.221 -174.766,263.025 -181.165,266.046C-186.358,269.296 -188.646,270.004 -191.247,269.167C-193.784,268.351 -200.539,266.59 -201.133,266.59C-201.484,266.59 -201.864,266.88 -201.978,267.233C-202.177,267.852 -202.809,269.625 -204.366,273.941C-206.874,280.398 -209.033,286.917 -211.296,293.055C-212.376,295.98 -214.262,302.709 -214.232,303.529C-214.203,304.338 -212.447,305.994 -211.089,306.494C-210.257,306.8 -209.032,306.942 -208.181,306.831C-192.367,300.431 -180.31,292.358 -166.859,285.314C-162.742,283.165 -161.231,281.661 -160.639,279.123C-160.142,276.995 -159.211,272.856 -158.606,270.082C-158.297,268.667 -157.691,265.938 -157.258,264.017C-154.961,253.81 -154.815,252.858 -155.402,251.93C-155.501,251.775 -155.612,251.688 -155.781,251.681L-155.781,251.681Z" style="fill:white;fill-rule:nonzero;"/>
        </g>
        <g id="flowRoot4483">
        </g>
    </g>
</svg>
