<svg xmlns="http://www.w3.org/2000/svg" fill-rule="evenodd" stroke-linejoin="round" stroke-miterlimit="2" clip-rule="evenodd" viewBox="0 0 1252 1254">
  <defs/>
  <path fill="#213e52" fill-rule="nonzero" d="M611 0c-22 1-51 3-57 5-15 5-31 19-45 40-6 9-10 17-9 17l7-1a1882 1882 0 01179-4 958 958 0 01281 51 321 321 0 00-70-45A583 583 0 00675 2l-52-2h-12z"/>
  <path fill="#3f769a" fill-rule="nonzero" d="M527 8a646 646 0 00-275 117 571 571 0 01220-61l4-4c7-11 20-26 30-35 9-8 20-14 30-17 5-2 2-2-9 0z"/>
  <path fill="#3f769a" fill-rule="nonzero" d="M594 70c-104 2-204 15-278 37-22 6-46 15-50 18a604 604 0 00-131 189l3-1 35-9c68-16 162-27 270-33a3351 3351 0 01372 0 772 772 0 00-55-195 1106 1106 0 00-166-6z"/>
  <path fill="#213e52" fill-rule="nonzero" d="M788 79l2 4 18 35a800 800 0 0147 155l22 2c123 11 219 28 271 50 14 5 27 13 35 19a632 632 0 00-151-195c-31-22-84-42-155-57-32-6-89-15-89-13z"/>
  <path fill="#9abed6" fill-rule="nonzero" d="M243 136c-9 4-20 12-25 16A621 621 0 0069 344c8-7 22-14 38-21l10-4 5-10a662 662 0 0186-134 667 667 0 0142-43l-7 4z"/>
  <path fill="#3f769a" fill-rule="nonzero" d="M586 296c-54 0-153 4-154 5l-3 14a2029 2029 0 00-21 287v6h303c273 0 381 1 447 2l22 1v-11a854 854 0 00-51-259l-47-11c-90-18-221-30-367-33-28-1-104-2-129-1z"/>
  <path fill="#9abed6" fill-rule="nonzero" d="M375 304c-148 12-250 30-299 54-11 5-19 11-24 18l-14 36A643 643 0 000 614l1-2h6l32-1a10482 10482 0 01291-3h34v-15a1891 1891 0 0125-277l2-12v-1l-16 1z"/>
  <path fill="#213e52" fill-rule="nonzero" d="M1147 347l4 11a750 750 0 0148 251v2h18l26 1h8l1 2-2-39a647 647 0 00-55-204c-6-7-18-14-36-20l-12-4z"/>
  <path fill="#9abed6" fill-rule="nonzero" d="M0 649a626 626 0 0052 228l12 11a155 155 0 0041 18l-4-11a750 750 0 01-48-251v-2H35l-26-1H1l-1-2v10z"/>
  <path fill="#213e52" fill-rule="nonzero" d="M1251 639v2h-6l-33 1a10482 10482 0 01-291 3h-33v15a1944 1944 0 01-27 290l23-2c141-11 243-29 292-53 11-5 19-11 24-18l14-36a643 643 0 0037-202z"/>
  <path fill="#3f769a" fill-rule="nonzero" d="M72 653a854 854 0 0051 259l47 11c90 18 216 30 368 34a5318 5318 0 00282-5l2-13a2029 2029 0 0022-288v-6H541c-273 0-382-1-447-2H72v10z"/>
  <path fill="#9abed6" fill-rule="nonzero" d="M69 909c-3-3 15 31 19 39a632 632 0 00132 155c31 24 84 43 155 58 32 6 88 15 88 13l-2-4-17-35a797 797 0 01-47-155l-22-2c-123-11-219-28-271-49-14-6-27-14-35-20z"/>
  <path fill="#213e52" fill-rule="nonzero" d="M1164 948l19-39c-8 7-22 15-38 21l-10 4-5 10a662 662 0 01-85 133 613 613 0 01-44 45c1 0 24-13 32-20a605 605 0 00131-154z"/>
  <path fill="#3f769a" fill-rule="nonzero" d="M1114 940l-35 9c-68 16-162 27-270 34a3351 3351 0 01-372 0l8 44c12 57 28 111 45 146 2 5 0 5 20 6 72 6 145 6 214 1 81-5 154-17 212-34 21-6 46-15 50-18a594 594 0 00131-189l-3 1z"/>
  <path fill="#213e52" fill-rule="nonzero" d="M1000 1128a569 569 0 01-220 61l-4 4c-10 17-27 34-40 43a97 97 0 01-23 11l35-6a628 628 0 00257-116l-5 3z"/>
  <path fill="#3f769a" fill-rule="nonzero" d="M285 1145a357 357 0 0069 46 593 593 0 00335 59c18-2 37-17 54-42l9-16h-7a1884 1884 0 01-179 4 960 960 0 01-281-51z"/>
</svg>
