<?xml version="1.0" encoding="UTF-8" standalone="no"?>
<!DOCTYPE svg PUBLIC "-//W3C//DTD SVG 1.1//EN" "http://www.w3.org/Graphics/SVG/1.1/DTD/svg11.dtd">
<svg width="100%" height="100%" viewBox="0 0 125 125" version="1.1" xmlns="http://www.w3.org/2000/svg" xmlns:xlink="http://www.w3.org/1999/xlink" xml:space="preserve" xmlns:serif="http://www.serif.com/" style="fill-rule:evenodd;clip-rule:evenodd;stroke-linejoin:round;stroke-miterlimit:2;">
    <g transform="matrix(0.968,0,0,0.968,-37.8393,-46.7698)">
        <path d="M119.748,148.903C137.915,146.885 155.041,137.205 164.471,121.049C160.006,161.009 116.309,186.267 80.642,170.76C77.356,169.334 74.527,166.964 72.585,163.916C64.57,151.33 61.935,135.315 65.721,120.781C76.537,139.449 98.531,150.892 119.748,148.903Z" style="fill:rgb(243,176,28);fill-rule:nonzero;"/>
        <path d="M65.058,109.055C57.694,126.072 57.375,145.996 66.403,162.392C34.632,138.489 34.979,87.34 66.014,63.677C68.885,61.49 72.296,60.191 75.874,59.994C90.588,59.218 105.537,64.904 116.021,75.501C94.72,75.713 73.974,89.357 65.058,109.055Z" style="fill:rgb(141,38,118);fill-rule:nonzero;"/>
        <path d="M126.293,80.737C115.546,65.752 98.725,55.55 80.295,55.24C115.921,39.069 159.742,65.286 164.512,104.047C164.956,107.645 164.374,111.314 162.779,114.559C156.122,128.077 143.78,138.561 129.358,142.441C139.925,122.842 138.622,98.897 126.293,80.737Z" style="fill:rgb(238,52,47);fill-rule:nonzero;"/>
    </g>
</svg>
