<svg width="101" height="25" xmlns="http://www.w3.org/2000/svg" xmlns:xlink="http://www.w3.org/1999/xlink">
    <defs>
        <path id="a" d="M0 0h31.65v25H0z"/>
    </defs>
    <g fill="none" fill-rule="evenodd">
        <g>
            <mask id="b" fill="#fff">
                <use xlink:href="#a"/>
            </mask>
            <path d="M21.25 0H0v25h21.25c7.607 0 10.4-4.617 10.4-12.5 0-7.884-2.793-12.5-10.4-12.5m-.59 21.5H12.786l-9.27-.01-.01-17.99h17.113c5.52 0 7.516 3.28 7.516 9 0 5.72-1.956 9-7.475 9" fill="#FFF" mask="url(#b)"/>
        </g>
        <path d="M64.875 24.952c-.365 0-.732-.114-1.045-.35l-8.587-6.491a1.718 1.718 0 0 1-.331-2.415 1.735 1.735 0 0 1 2.424-.33l8.587 6.491c.761.575.91 1.656.332 2.414-.34.446-.857.681-1.38.681M45.222 10.076c-.364 0-.73-.114-1.043-.35l-8.71-6.563A1.717 1.717 0 0 1 35.135.75a1.734 1.734 0 0 1 2.424-.334l8.71 6.563c.762.574.912 1.655.335 2.413a1.73 1.73 0 0 1-1.381.684M56.235 10.095a1.73 1.73 0 0 1-1.385-.688 1.718 1.718 0 0 1 .345-2.413L63.9.492a1.735 1.735 0 0 1 2.423.344c.574.761.419 1.841-.346 2.412L57.272 9.75a1.727 1.727 0 0 1-1.037.345M36.454 24.871a1.73 1.73 0 0 1-1.385-.688 1.718 1.718 0 0 1 .346-2.413l8.77-6.551a1.734 1.734 0 0 1 2.422.344 1.718 1.718 0 0 1-.345 2.412l-8.77 6.552a1.727 1.727 0 0 1-1.038.344M90.6 0H79.75c-7.607 0-10.4 4.616-10.4 12.5 0 7.883 2.793 12.5 10.4 12.5H90.6c7.607 0 10.4-4.617 10.4-12.5C101 4.616 98.207 0 90.6 0m-.59 21.57H80.34c-5.52 0-7.547-3.35-7.547-9.07 0-5.72 2.027-9.071 7.547-9.071h9.668c5.52 0 7.547 3.35 7.547 9.071 0 5.72-2.027 9.07-7.547 9.07" fill="#FFF"/>
    </g>
</svg>
