<?xml version="1.0" encoding="UTF-8" standalone="no"?>
<!DOCTYPE svg PUBLIC "-//W3C//DTD SVG 1.1//EN" "http://www.w3.org/Graphics/SVG/1.1/DTD/svg11.dtd">
<svg width="100%" height="100%" viewBox="0 0 171 22" version="1.1" xmlns="http://www.w3.org/2000/svg" xmlns:xlink="http://www.w3.org/1999/xlink" xml:space="preserve" xmlns:serif="http://www.serif.com/" style="fill-rule:evenodd;clip-rule:evenodd;stroke-linejoin:round;stroke-miterlimit:2;">
    <rect x="0" y="0" width="4.537" height="21.636" style="fill:white;fill-rule:nonzero;"/>
    <rect x="9.013" y="0" width="4.537" height="21.636" style="fill:white;fill-rule:nonzero;"/>
    <path d="M18.025,0L31.453,0L31.453,3.606L22.562,3.606L22.562,8.758L30.844,8.758L30.844,12.364L22.562,12.364L22.562,18.03L31.453,18.03L31.453,21.636L18.025,21.636L18.025,0Z" style="fill:white;fill-rule:nonzero;"/>
    <rect x="34.224" y="0" width="4.293" height="21.636" style="fill:white;fill-rule:nonzero;"/>
    <path d="M41.105,13.515C41.105,7.606 44.059,5.061 48.656,5.061C53.254,5.061 55.873,7.576 55.873,13.576L55.873,14.546L45.338,14.546C45.49,18.061 46.555,19.242 48.596,19.242C50.209,19.242 51.214,18.303 51.397,16.667L55.69,16.667C55.416,20.242 52.432,22 48.596,22C43.724,22 41.105,19.424 41.105,13.515ZM51.64,11.727C51.427,8.758 50.392,7.788 48.596,7.788C46.799,7.788 45.672,8.788 45.368,11.727L51.64,11.727Z" style="fill:white;fill-rule:nonzero;"/>
    <path d="M61.171,5.424L56.786,5.424L62.084,21.636L66.804,21.636L72.102,5.424L67.718,5.424L64.4,17.636L61.171,5.424Z" style="fill:white;fill-rule:nonzero;"/>
    <path d="M72.924,13.515C72.924,7.606 75.878,5.061 80.476,5.061C85.074,5.061 87.692,7.576 87.692,13.576L87.692,14.546L77.157,14.546C77.309,18.061 78.375,19.242 80.415,19.242C82.029,19.242 83.033,18.303 83.216,16.667L87.509,16.667C87.235,20.242 84.251,22 80.415,22C75.543,22 72.924,19.424 72.924,13.515ZM83.46,11.727C83.247,8.758 82.211,7.788 80.415,7.788C78.618,7.788 77.492,8.788 77.187,11.727L83.46,11.727Z" style="fill:white;fill-rule:nonzero;"/>
    <path d="M94.635,12.091C94.635,9.545 95.852,8.152 97.74,8.152C99.293,8.152 100.176,9.121 100.176,11.212L100.176,21.636L104.47,21.636L104.47,10.546C104.47,6.788 102.338,5.061 99.232,5.061C97.131,5.061 95.396,6.121 94.635,7.515L94.635,5.424L90.28,5.424L90.28,21.636L94.635,21.636L94.635,12.091Z" style="fill:white;fill-rule:nonzero;"/>
    <path d="M108.031,0L112.568,0L112.568,18.03L121.094,18.03L121.094,21.636L108.031,21.636L108.031,0Z" style="fill:white;fill-rule:nonzero;"/>
    <path d="M122.16,13.515C122.16,7.333 125.022,5.061 128.706,5.061C130.533,5.061 132.208,6.091 132.878,7.182L132.878,5.424L137.262,5.424L137.262,21.636L133,21.636L133,19.727C132.36,21 130.564,22 128.584,22C124.687,22 122.16,19.515 122.16,13.515ZM129.833,8.242C131.964,8.242 133.121,9.848 133.121,13.515C133.121,17.182 131.964,18.818 129.833,18.818C127.701,18.818 126.483,17.182 126.483,13.515C126.483,9.848 127.701,8.242 129.833,8.242Z" style="fill:white;"/>
    <path d="M144.844,19.727L144.844,21.636L140.581,21.636L140.581,0L144.875,0L144.875,7.182C145.605,6.061 147.311,5.061 149.138,5.061C152.731,5.061 155.593,7.333 155.593,13.515C155.593,19.697 152.791,22 149.046,22C147.067,22 145.453,21 144.844,19.727ZM147.92,8.273C150.051,8.273 151.269,9.848 151.269,13.515C151.269,17.182 150.051,18.818 147.92,18.818C145.788,18.818 144.631,17.182 144.631,13.515C144.631,9.848 145.788,8.273 147.92,8.273Z" style="fill:white;"/>
    <path d="M157.359,16.818L161.652,16.818C161.713,18.515 162.627,19.333 164.24,19.333C165.854,19.333 166.768,18.606 166.768,17.333C166.768,16.182 166.067,15.758 164.545,15.394L163.235,15.061C159.521,14.121 157.663,13.121 157.663,10.061C157.663,7 160.526,5.061 164.179,5.061C167.833,5.061 170.604,6.485 170.726,9.848L166.433,9.848C166.341,8.364 165.428,7.727 164.119,7.727C162.809,7.727 161.896,8.364 161.896,9.576C161.896,10.697 162.627,11.121 163.905,11.424L165.245,11.758C168.777,12.636 171,13.515 171,16.788C171,20.061 168.077,22 164.119,22C159.825,22 157.45,20.394 157.359,16.818Z" style="fill:white;fill-rule:nonzero;"/>
</svg>
