<?xml version="1.0" encoding="UTF-8" standalone="no"?>
<!DOCTYPE svg PUBLIC "-//W3C//DTD SVG 1.1//EN" "http://www.w3.org/Graphics/SVG/1.1/DTD/svg11.dtd">
<svg width="100%" height="100%" viewBox="0 0 201 201" version="1.1" xmlns="http://www.w3.org/2000/svg" xmlns:xlink="http://www.w3.org/1999/xlink" xml:space="preserve" xmlns:serif="http://www.serif.com/" style="fill-rule:evenodd;clip-rule:evenodd;stroke-linejoin:round;stroke-miterlimit:2;">
    <g>
        <path d="M198,73.3C200.9,70.4 200.9,65.7 198,62.8L137.4,2.2C134.5,-0.7 129.8,-0.7 126.9,2.2L105.2,23.9C102.3,26.8 97.6,26.8 94.7,23.9L73.2,2.3C70.3,-0.6 65.6,-0.6 62.7,2.3L2.2,62.9C-0.7,65.8 -0.7,70.5 2.2,73.4L23.9,95.1C26.8,98 26.8,102.7 23.9,105.6L2.2,127.1C-0.7,130 -0.7,134.7 2.2,137.6L62.8,198.2C65.7,201.1 70.4,201.1 73.3,198.2L95,176.5C97.9,173.6 102.6,173.6 105.5,176.5L127.2,198.2C130.1,201.1 134.8,201.1 137.7,198.2L198.3,137.6C201.2,134.7 201.2,130 198.3,127.1L176.6,105.4C173.7,102.5 173.7,97.8 176.6,94.9L198,73.3ZM154.3,112.1C154.3,135.4 135.3,154.4 112,154.4L88.2,154.4C64.9,154.4 45.9,135.4 45.9,112.1L45.9,88.3C45.9,65 64.9,46 88.2,46L112,46C135.3,46 154.3,65 154.3,88.3L154.3,112.1Z" style="fill:rgb(25,186,25);fill-rule:nonzero;"/>
    </g>
</svg>
