<?xml version="1.0" encoding="UTF-8" standalone="no"?>
<!DOCTYPE svg PUBLIC "-//W3C//DTD SVG 1.1//EN" "http://www.w3.org/Graphics/SVG/1.1/DTD/svg11.dtd">
<svg width="100%" height="100%" viewBox="0 0 25 22" version="1.1" xmlns="http://www.w3.org/2000/svg" xmlns:xlink="http://www.w3.org/1999/xlink" xml:space="preserve" xmlns:serif="http://www.serif.com/" style="fill-rule:evenodd;clip-rule:evenodd;stroke-linejoin:round;stroke-miterlimit:2;">
    <path d="M13.462,7.626L7.816,7.626L6.05,4.606L15.228,4.606L17.902,0L2.732,0C1.762,-0.001 0.861,0.516 0.372,1.354C-0.123,2.187 -0.123,3.228 0.372,4.061L10.045,20.667C10.805,21.955 12.488,22.384 13.792,21.625C14.189,21.389 14.524,21.06 14.766,20.667L15.079,20.122L10.639,12.463L13.462,7.626Z" style="fill:rgb(23,209,198);fill-rule:nonzero;"/>
    <path d="M24.473,1.354C23.987,0.513 23.084,-0.005 22.112,0L21.452,0L14.188,12.463L16.863,17.069L24.473,4.028C24.951,3.202 24.951,2.18 24.473,1.354Z" style="fill:rgb(23,209,198);fill-rule:nonzero;"/>
</svg>
