<?xml version="1.0" encoding="UTF-8" standalone="no"?>
<!DOCTYPE svg PUBLIC "-//W3C//DTD SVG 1.1//EN" "http://www.w3.org/Graphics/SVG/1.1/DTD/svg11.dtd">
<svg width="100%" height="100%" viewBox="0 0 160 44" version="1.1" xmlns="http://www.w3.org/2000/svg" xmlns:xlink="http://www.w3.org/1999/xlink" xml:space="preserve" xmlns:serif="http://www.serif.com/" style="fill-rule:evenodd;clip-rule:evenodd;stroke-linejoin:round;stroke-miterlimit:2;">
    <path d="M42.294,25.092C42.222,25.018 42.274,24.894 42.378,24.894L42.849,24.894C46.69,24.503 49.899,22.022 49.899,17.62C49.899,12.548 45.807,10.204 41.119,10.204L19.164,10.204C18.87,10.204 18.629,10.443 18.629,10.739L18.629,33.245C18.629,33.539 18.867,33.78 19.164,33.78L26.175,33.78C26.47,33.78 26.71,33.542 26.71,33.245L26.71,26.058C26.71,25.764 26.948,25.524 27.245,25.524L31.802,25.524C32.434,25.524 33.036,25.796 33.456,26.267L39.948,33.598C40.088,33.661 40.209,33.715 40.348,33.778L49.602,33.778C50.076,33.778 50.315,33.207 49.982,32.867L42.297,25.092L42.294,25.092ZM39.371,20.243L27.243,20.243C26.948,20.243 26.708,20.004 26.708,19.708L26.708,16.299C26.708,16.004 26.946,15.764 27.243,15.764L39.196,15.764C40.91,15.764 42.029,16.604 42.029,17.933C42.029,19.472 40.98,20.24 39.371,20.24L39.371,20.243Z" style="fill:white;fill-rule:nonzero;"/>
    <path d="M130.91,10.204L123.901,10.204C123.606,10.204 123.366,10.444 123.366,10.739L123.366,25.679C123.366,25.974 123.606,26.213 123.901,26.213L130.91,26.213C131.205,26.213 131.445,25.974 131.445,25.679L131.445,10.739C131.445,10.444 131.205,10.204 130.91,10.204Z" style="fill:white;fill-rule:nonzero;"/>
    <path d="M130.91,29.396L123.901,29.396C123.606,29.396 123.366,29.635 123.366,29.93L123.366,33.245C123.366,33.54 123.606,33.78 123.901,33.78L130.91,33.78C131.205,33.78 131.445,33.54 131.445,33.245L131.445,29.93C131.445,29.635 131.205,29.396 130.91,29.396Z" style="fill:white;fill-rule:nonzero;"/>
    <path d="M159.78,33.074L150.76,21.13C150.557,20.863 150.575,20.492 150.8,20.245L159.319,10.901C159.562,10.634 159.373,10.204 159.011,10.204L151.64,10.204C151.445,10.204 151.258,10.288 151.128,10.431L142.903,19.472L142.899,19.472C142.872,19.501 142.836,19.524 142.791,19.524L142.494,19.524C142.416,19.524 142.355,19.461 142.353,19.384L142.353,10.697C142.353,10.425 142.133,10.204 141.861,10.204L135.121,10.204C134.849,10.204 134.629,10.425 134.629,10.697L134.629,33.258C134.629,33.508 134.831,33.71 135.081,33.71L141.899,33.71C142.148,33.71 142.351,33.508 142.351,33.258L142.351,29.058C142.351,28.883 142.418,28.712 142.537,28.584L145.53,25.382C145.53,25.382 145.557,25.342 145.618,25.342L146.022,25.342C146.072,25.342 146.101,25.382 146.101,25.382L152.133,33.431C152.263,33.607 152.47,33.71 152.688,33.71L159.461,33.71C159.789,33.71 159.978,33.335 159.778,33.072L159.78,33.074Z" style="fill:white;fill-rule:nonzero;"/>
    <path d="M60.804,15.591L67.661,15.591C67.955,15.591 68.196,15.353 68.196,15.056L68.196,10.737C68.196,10.443 67.957,10.202 67.661,10.202L53.479,10.202C53.184,10.202 52.944,10.44 52.944,10.737L52.944,33.243C52.944,33.537 53.182,33.778 53.479,33.778L67.661,33.778C67.955,33.778 68.196,33.539 68.196,33.243L68.196,28.924C68.196,28.629 67.957,28.389 67.661,28.389L60.755,28.389C60.461,28.389 60.22,28.151 60.22,27.854L60.22,25.054C60.22,24.733 60.481,24.47 60.804,24.47L67.661,24.47C67.955,24.47 68.196,24.231 68.196,23.935L68.196,19.721C68.196,19.427 67.957,19.187 67.661,19.187L60.804,19.187C60.483,19.187 60.22,18.926 60.22,18.602L60.22,16.166C60.22,15.845 60.481,15.582 60.804,15.582L60.804,15.591Z" style="fill:white;fill-rule:nonzero;"/>
    <path d="M79.236,15.591L86.092,15.591C86.387,15.591 86.627,15.353 86.627,15.056L86.627,10.737C86.627,10.443 86.389,10.202 86.092,10.202L71.91,10.202C71.616,10.202 71.375,10.44 71.375,10.737L71.375,33.243C71.375,33.537 71.613,33.778 71.91,33.778L86.092,33.778C86.387,33.778 86.627,33.539 86.627,33.243L86.627,28.924C86.627,28.629 86.389,28.389 86.092,28.389L79.187,28.389C78.892,28.389 78.652,28.151 78.652,27.854L78.652,25.054C78.652,24.733 78.912,24.47 79.236,24.47L86.092,24.47C86.387,24.47 86.627,24.231 86.627,23.935L86.627,19.721C86.627,19.427 86.389,19.187 86.092,19.187L79.236,19.187C78.915,19.187 78.652,18.926 78.652,18.602L78.652,16.166C78.652,15.845 78.912,15.582 79.236,15.582L79.236,15.591Z" style="fill:white;fill-rule:nonzero;"/>
    <path d="M8.061,15.591L14.917,15.591C15.211,15.591 15.452,15.353 15.452,15.056L15.452,10.737C15.452,10.443 15.213,10.202 14.917,10.202L0.735,10.202C0.44,10.202 0.2,10.44 0.2,10.737L0.2,33.243C0.2,33.537 0.438,33.778 0.735,33.778L6.939,33.778C7.234,33.778 7.474,33.539 7.474,33.243L7.479,25.056C7.479,24.735 7.739,24.472 8.063,24.472L14.919,24.472C15.213,24.472 15.454,24.234 15.454,23.937L15.454,19.724C15.454,19.429 15.216,19.189 14.919,19.189L8.063,19.189C7.742,19.189 7.479,18.928 7.479,18.604L7.479,16.169C7.479,15.847 7.739,15.584 8.063,15.584L8.061,15.591Z" style="fill:white;fill-rule:nonzero;"/>
    <path d="M111.573,10.204L90.344,10.204C90.049,10.204 89.809,10.443 89.809,10.739L89.809,33.245C89.809,33.539 90.047,33.78 90.344,33.78L97.355,33.78C97.649,33.78 97.89,33.542 97.89,33.245L97.89,25.796C97.89,25.645 98.011,25.524 98.162,25.524L111.607,25.524C116.996,25.524 121.079,22.715 121.079,17.755C121.079,12.796 116.996,10.204 111.573,10.204ZM110.551,20.243L98.422,20.243C98.128,20.243 97.888,20.004 97.888,19.708L97.888,16.299C97.888,16.004 98.126,15.766 98.422,15.766L110.375,15.766C112.09,15.766 113.209,16.604 113.209,17.935C113.209,19.474 112.16,20.243 110.551,20.243Z" style="fill:white;fill-rule:nonzero;"/>
</svg>
