<?xml version="1.0" encoding="UTF-8" standalone="no"?>
<!DOCTYPE svg PUBLIC "-//W3C//DTD SVG 1.1//EN" "http://www.w3.org/Graphics/SVG/1.1/DTD/svg11.dtd">
<svg width="100%" height="100%" viewBox="0 0 300 76" version="1.1" xmlns="http://www.w3.org/2000/svg" xmlns:xlink="http://www.w3.org/1999/xlink" xml:space="preserve" xmlns:serif="http://www.serif.com/" style="fill-rule:evenodd;clip-rule:evenodd;stroke-linejoin:round;stroke-miterlimit:2;">
    <g>
        <path d="M94.313,2.543C89.528,4.852 85.939,8.743 83.318,13.155C79.104,6.071 72.405,0.326 62.259,0.326C52.109,0.326 39.665,8.94 39.665,23.491C39.665,38.223 51.958,45.206 58.047,49.149C64.555,53.36 75.66,61.016 83.317,75.185C90.977,61.017 102.08,53.36 108.59,49.149C113.164,46.184 121.245,41.502 124.977,33.102L94.313,2.543ZM93.946,33.938L93.946,6.254L121.63,33.937L93.946,33.937L93.946,33.938Z" style="fill:rgb(229,50,45);fill-rule:nonzero;"/>
        <g>
            <path d="M0.458,59.164L3.89,59.164C4.978,59.164 6.234,57.657 6.234,56.653L6.234,20.24C6.234,19.236 4.978,17.813 3.89,17.813L0.458,17.813L0.458,9.023L27.998,9.023L27.998,17.813L24.482,17.813C23.394,17.813 22.222,19.236 22.222,20.24L22.222,56.653C22.222,57.658 23.394,59.164 24.482,59.164L27.998,59.164L27.998,67.619L0.458,67.619L0.458,59.164Z" style="fill:rgb(254,255,254);fill-rule:nonzero;"/>
            <path d="M133.383,59.164L136.229,59.164C137.401,59.164 138.656,57.657 138.656,56.653L138.656,20.24C138.656,19.236 137.4,17.813 136.229,17.813L133.383,17.813L133.383,9.023L160.002,9.023C175.656,9.023 184.194,14.548 184.194,27.606C184.194,40.33 175.153,46.105 159.416,46.105L154.561,46.105L154.561,59.164L161.341,59.164L161.341,67.619L133.383,67.619L133.383,59.164ZM159.166,37.484C166.197,37.484 168.039,33.466 168.039,27.858C168.039,22.333 166.197,18.399 159.166,18.399L154.311,18.399L154.311,37.485L159.166,37.485L159.166,37.484Z" style="fill:rgb(254,255,254);fill-rule:nonzero;"/>
            <path d="M189.3,59.164L192.146,59.164C193.318,59.164 194.573,57.657 194.573,56.653L194.573,20.24C194.573,19.236 193.318,17.813 192.146,17.813L189.3,17.813L189.3,9.023L214.831,9.023C235.674,9.023 246.556,18.064 246.556,37.986C246.556,57.574 235.507,67.619 214.412,67.619L189.3,67.619L189.3,59.164ZM214.412,58.746C224.959,58.746 230.149,52.468 230.149,38.405C230.149,24.426 225.043,18.398 214.412,18.398L210.478,18.398L210.478,58.745L214.412,58.745L214.412,58.746Z" style="fill:rgb(254,255,254);fill-rule:nonzero;"/>
            <path d="M251.912,59.164L254.758,59.164C255.93,59.164 257.185,57.657 257.185,56.653L257.185,20.24C257.185,19.236 255.93,17.813 254.758,17.813L251.912,17.813L251.912,9.023L299.542,9.023L299.542,27.104L290.167,27.104L288.744,18.482L273.09,18.482L273.09,34.889L280.707,34.889L281.377,29.364L290,29.364L290,49.705L281.378,49.705L280.708,43.929L273.091,43.929L273.091,59.164L279.872,59.164L279.872,67.619L251.913,67.619L251.913,59.164L251.912,59.164Z" style="fill:rgb(254,255,254);fill-rule:nonzero;"/>
        </g>
        <path d="M93.946,33.938L93.946,6.254L121.63,33.938L93.946,33.938Z" style="fill:white;fill-rule:nonzero;"/>
    </g>
</svg>
