<?xml version="1.0" encoding="UTF-8" standalone="no"?>
<!DOCTYPE svg PUBLIC "-//W3C//DTD SVG 1.1//EN" "http://www.w3.org/Graphics/SVG/1.1/DTD/svg11.dtd">
<svg width="100%" height="100%" viewBox="0 0 1153 210" version="1.1" xmlns="http://www.w3.org/2000/svg" xmlns:xlink="http://www.w3.org/1999/xlink" xml:space="preserve" xmlns:serif="http://www.serif.com/" style="fill-rule:evenodd;clip-rule:evenodd;stroke-linejoin:round;stroke-miterlimit:2;">
    <g id="iNaturalist_Header">
        <g id="iNaturalist-Wordmark">
            <path id="i" d="M41.3,77.629L41.3,209L5.9,209L5.9,80.473L41.3,77.629ZM32.068,2.472C43.693,-0.865 57.649,-0.21 59,0.898L58.717,1.138C55.565,3.75 48.183,8.116 47.869,29.201L47.861,29.866C47.762,42.589 41.353,51.113 33.97,55.453C26.5,59.843 5.784,61.954 0,59.274C3.695,56.078 5.099,45.297 5.866,37.87L6.163,34.905L6.267,33.95C7.47,23.507 11.52,8.369 32.068,2.472Z" style="fill:rgb(116,172,0);fill-rule:nonzero;"/>
            <path id="Combined-Shape" d="M880.352,11L880.352,209.129L848,209.129L848,13.827L880.352,11ZM699.17,78.069L697.11,106.486C691.447,105.194 687.328,104.677 682.952,104.677C673.684,104.677 664.159,108.036 656.179,119.661L656.179,209.045L624,209.045L624,79.619L654.035,76.087L654.119,89.944C661.482,76.087 677.864,76.087 685.526,76.002C689.13,75.962 694.794,76.519 699.17,78.069ZM598.134,75L598.134,205.135L569.222,207.969L568.199,194.44C556.686,208.098 542.614,209 527.774,209C497.584,209 483,189.415 483,156.173L483,78.092L514.982,75L514.982,149.988C514.982,171.635 522.401,180.19 538.52,180.19C546.963,180.19 566.072,172.387 566.072,154.08L566.152,78.092L598.134,75ZM303.392,74C340.338,74 354.962,90.164 354.962,124.545L354.965,171.573C355.017,183.266 355.894,187.387 369.843,186.914L368.817,206.905L368.306,207.025C362.281,208.368 339.743,211.039 328.022,197.299C316.734,208.331 303.392,208.957 288.511,208.957C265.677,208.957 249,195.615 249,173.294C249,153.024 262.855,128.461 323.661,127.948L323.661,123.843L323.656,122.764C323.5,105.369 319.407,99.144 299.544,99.144C289.024,99.144 275.939,101.453 258.75,108.381L256.697,85.289C270.038,77.849 289.281,74 303.392,74ZM763.392,74C800.338,74 814.962,90.164 814.962,124.545L814.965,171.573C815.017,183.266 815.894,187.387 829.843,186.914L828.817,206.905L828.306,207.025C822.281,208.368 799.743,211.039 788.022,197.299C776.734,208.331 763.392,208.957 748.511,208.957C725.677,208.957 709,195.615 709,173.294C709,153.024 722.855,128.461 783.661,127.948L783.661,123.843C783.661,105.626 779.812,99.144 759.544,99.144C749.024,99.144 735.939,101.453 718.75,108.381L716.697,85.289C730.038,77.849 749.281,74 763.392,74ZM1012.16,74C1022.35,74 1036.86,75.803 1047.3,80.181L1045.27,103.618C1032.28,99.498 1021.58,98.21 1013.69,98.21C998.313,98.21 992.669,105.025 992.557,112.159L992.556,112.375C992.556,119.072 995.611,123.192 1010.38,127.571L1022.35,130.919C1045.27,137.358 1052.39,151.008 1052.39,166.461C1052.39,186.035 1038.39,208.957 1000.2,208.957C988.736,208.957 974.986,206.382 962.764,201.231L962.255,176.506C978.296,182.687 988.482,184.232 997.903,184.232C1014.45,184.232 1020.57,175.991 1020.57,168.264L1020.56,167.894L1020.55,167.517C1020.34,161.626 1017.38,156.219 1002.23,151.523L990.009,148.175C970.148,142.509 962.255,131.692 962,114.436C962,93.059 977.278,74 1012.16,74ZM107.708,26L197.383,157.832L197.383,26L228.704,26L228.704,208.814L192.253,208.814L102.577,76.21L102.577,208.814L71,208.814L71,26L107.708,26ZM939.354,77.546L939.354,208.429L907.125,208.429L907.125,80.38L939.354,77.546ZM423.448,38L423.491,79.096L459.477,79.096L458.201,103.769L423.491,103.769L423.491,160.311C423.491,177.273 431.914,181.899 442.633,181.899C447.482,181.899 453.607,181.128 462.54,178.044L462.284,201.946C452.586,206.315 442.122,208.371 434.21,208.371C410.986,208.371 391.589,199.376 391.589,163.652L391.589,103.769L375,103.769L375,81.409L392.355,78.839L392.138,40.866L423.448,38ZM1113.68,38L1113.49,79.096L1149.48,79.096L1148.2,103.769L1113.49,103.769L1113.49,160.311C1113.49,177.273 1121.91,181.899 1132.63,181.899C1137.48,181.899 1143.61,181.128 1152.54,178.044L1152.28,201.946C1142.59,206.315 1132.12,208.371 1124.21,208.371C1100.99,208.371 1081.59,199.376 1081.59,163.652L1081.59,103.769L1065,103.769L1065,81.409L1082.36,78.839L1082.38,40.866L1113.68,38ZM280.156,169.958C280.156,178.938 287.34,185.609 300.168,185.609C309.661,185.609 317.871,182.53 325.568,175.859L325.568,149.432C289.906,148.663 280.156,159.439 280.156,169.958ZM740.156,169.958C740.156,178.938 747.34,185.609 760.168,185.609C769.661,185.609 777.871,182.53 785.568,175.859L785.568,149.432C749.906,148.663 740.156,159.439 740.156,169.958ZM923.111,17C935.487,17 942.964,25.245 942.964,36.323C942.964,47.659 934.713,55.389 922.853,55.389C910.219,55.389 903,47.144 903,36.066C903,24.987 911.251,17 923.111,17Z" style="fill:white;fill-rule:nonzero;"/>
        </g>
    </g>
</svg>
