<?xml version="1.0" encoding="UTF-8" standalone="no"?>
<!DOCTYPE svg PUBLIC "-//W3C//DTD SVG 1.1//EN" "http://www.w3.org/Graphics/SVG/1.1/DTD/svg11.dtd">
<svg width="100%" height="100%" viewBox="0 0 76 86" version="1.1" xmlns="http://www.w3.org/2000/svg" xmlns:xlink="http://www.w3.org/1999/xlink" xml:space="preserve" xmlns:serif="http://www.serif.com/" style="fill-rule:evenodd;clip-rule:evenodd;stroke-linejoin:round;stroke-miterlimit:2;">
    <path d="M76,82L76,86L0,86L0.001,82L76,82ZM73,76L73,81L3,81L3,76L73,76ZM10.33,22L11.165,22.422L11.582,29.165L12,40.123L12,50.661L11.582,63.798L11.513,72.648L10.33,73L6.157,73L4.905,72.648L4.418,63.798L4,50.731L4,40.194L4.418,29.165L4.8,22.385L5.67,22L10.33,22ZM70.331,22L71.166,22.422L71.583,29.165L72,40.123L72,50.661L71.583,63.798L71.514,72.648L70.331,73L66.157,73L64.905,72.648L64.417,63.798L64,50.731L64,40.194L64.417,29.165L64.8,22.385L65.67,22L70.331,22ZM28.33,22L29.165,22.422L29.582,29.165L30,40.123L30,50.661L29.582,63.798L29.514,72.648L28.33,73L24.156,73L22.903,72.648L22.417,63.798L22,50.731L22,40.194L22.417,29.165L22.8,22.385L23.669,22L28.33,22ZM51.33,22L52.165,22.422L52.582,29.165L53,40.123L53,50.661L52.582,63.798L52.514,72.648L51.33,73L47.156,73L45.904,72.648L45.417,63.798L45,50.731L45,40.194L45.417,29.165L45.8,22.385L46.67,22L51.33,22ZM73,13L73,20L3,20L3,13L73,13ZM37.28,0L74,8.409L72.528,11L2.2,11L0,8.899L37.28,0Z" style="fill:rgb(248,249,249);"/>
</svg>
