<?xml version="1.0" encoding="UTF-8" standalone="no"?>
<!DOCTYPE svg PUBLIC "-//W3C//DTD SVG 1.1//EN" "http://www.w3.org/Graphics/SVG/1.1/DTD/svg11.dtd">
<svg width="100%" height="100%" viewBox="0 0 176 37" version="1.1" xmlns="http://www.w3.org/2000/svg" xmlns:xlink="http://www.w3.org/1999/xlink" xml:space="preserve" xmlns:serif="http://www.serif.com/" style="fill-rule:evenodd;clip-rule:evenodd;stroke-linejoin:round;stroke-miterlimit:2;">
    <path d="M10.674,0.115C11.863,0.11 13.049,0.258 14.201,0.556C15.232,0.858 15.523,1.681 15.706,2.1C15.805,2.32 16.209,3.786 16.692,5.934C18.312,13.147 21.383,28.149 21.649,30.431C21.823,31.946 21.662,33.207 21.025,34.18C19.718,36.164 16.707,37.011 12.558,37.011C6.878,37 0,31.975 0,27.152C0,25.474 2.151,21.899 3.227,21.125C3.871,20.662 5.079,20.565 5.165,22.202C5.251,23.838 5.176,26.074 6.853,28.268C8.672,30.647 11.857,33.287 15.671,33.265C16.553,33.265 17.388,32.497 17.397,31.225C17.336,30.693 17.238,30.166 17.104,29.648C16.442,26.947 14.657,20.898 13.101,15.476C11.683,10.547 10.471,6.119 10.114,5.495C9.254,3.989 9.21,4.505 8.866,3.601C8.306,2.17 9.6,0.115 10.674,0.115ZM21.173,14.113C20.703,15.789 20.904,18.464 20.942,19.097C20.979,19.73 21.36,22.184 22.943,23.613C23.825,24.424 25.752,24.821 27.264,24.821C28.399,24.821 29.316,24.096 29.62,23.829C33.324,20.585 33.482,16.773 33.518,16.309C33.562,15.749 33.588,15.804 34.168,16.25C34.898,16.81 36.533,17.573 37.862,18.281C38.551,18.656 39.205,19.09 39.818,19.58C40.34,19.99 40.675,21.454 38.438,21.767C37.702,21.871 36.048,21.895 34.911,21.379C34.133,21.031 33.654,20.938 33.319,21.119C32.808,21.383 32.625,22.18 32.658,22.521C32.717,23.388 33.099,25.112 34.135,25.741C34.518,25.961 34.867,26.129 36.582,26.129C39.628,26.129 42.509,24.307 43.226,23.238C43.594,22.643 43.775,21.952 43.746,21.253C43.746,17.864 39.337,15.701 38.396,15.022C37.514,14.38 37.258,13.355 38.25,12.761C40.415,11.469 42.198,11.804 43.585,11.954C44.484,12.051 44.652,11.599 44.661,10.964C44.676,10.016 43.312,7.394 41.116,7.394C38.471,7.394 34.693,10.195 33.498,11.721C33.416,11.826 33.299,11.846 33.277,11.674C33.064,10.766 32.722,9.892 32.261,9.081C31.194,7.112 29.836,7.604 30.204,9.414C31.399,15.225 29.102,19.778 27.374,21.397C27.246,21.506 27.083,21.566 26.914,21.566C26.746,21.566 26.583,21.506 26.455,21.397C24.949,20.096 25.987,15.663 25.987,15.183C25.987,14.702 25.901,14.27 25.507,13.932C24.711,13.246 22.804,12.689 22.804,12.689C21.715,12.514 21.438,13.182 21.173,14.113ZM47.231,1.087C46.896,2.04 46.411,11.701 46.307,12.369C46.252,12.733 42.148,14.874 42.474,15.729C43.404,18.175 45.721,17.714 45.889,17.714C46.056,17.714 46.087,17.782 46.085,17.919C46.041,18.448 46.025,18.979 46.036,19.509C46.06,20.442 46.083,20.989 46.157,21.69C46.29,22.949 47.343,25.24 49.125,25.24C51.001,25.24 51.234,23.767 50.941,23.434C50.778,23.249 49.826,22.477 49.451,21.436C49.173,20.667 50.004,15.774 50.189,15.511C50.335,15.306 53.148,13.273 53.569,13.086C53.99,12.898 54.159,12.821 54.27,13.352C54.38,13.884 54.032,21.337 54.422,22.272C54.613,22.733 56.377,24.191 56.992,24.583C57.267,24.747 57.591,24.811 57.907,24.762C58.224,24.713 58.514,24.555 58.727,24.316C59.091,23.895 61.518,19.066 61.76,18.702C61.969,18.387 62.117,18.532 62.117,18.79C62.117,19.048 62.163,20.662 62.163,21.831C62.163,22.909 62.245,22.991 62.699,23.406C63.378,24.023 64.553,24.89 65.269,24.89C65.836,24.89 66.081,24.775 66.444,24.087C66.918,23.081 67.336,22.051 67.696,21C68.211,19.455 68.989,18.012 69.996,16.733C70.386,16.263 70.463,16.444 70.604,16.717C71.058,17.599 74.845,24.991 80.303,24.995C86.42,24.995 92.427,20.806 95.672,16.775C97.131,14.973 97.874,12.856 97.874,11.626C97.874,10.325 96.849,9.376 95.981,9.313C95.381,9.266 94.863,9.652 94.777,10.02C94.68,10.422 95.02,11.141 94.967,11.549C94.7,13.632 90.666,17.456 87.053,19.522C84.448,21.015 81.928,21.672 80.268,21.664C76.521,21.646 74.821,15.851 74.268,13.251C73.893,11.5 71.664,10.852 70.712,10.726C70.447,10.679 70.174,10.71 69.926,10.816C69.679,10.921 69.467,11.096 69.317,11.319C69.317,11.319 66.722,15.255 66.563,15.509C66.343,15.864 66.277,15.145 66.277,15.145C66.277,15.145 66.213,13.436 66.18,12.832C66.151,12.274 66.07,11.782 65.779,11.509C65.488,11.235 64.346,10.342 63.486,10.342C62.503,10.342 62.353,10.805 62.234,11.081C61.773,12.135 59.873,18.592 59.368,19.346C59.013,19.866 58.883,19.69 58.742,19.324C58.332,18.303 59.077,12.503 57.929,11.467C57.016,10.64 55.273,9.207 53.926,9.207C52.808,9.207 51.437,10.219 51.437,10.219C51.437,10.219 51.135,10.378 51.177,10.082C51.322,9.085 51.807,7.487 52.072,4.68C52.31,2.159 49.413,0.276 49.413,0.276C48.042,-0.339 47.566,0.137 47.231,1.087ZM55.407,1.204C54.966,2.358 54.576,3.464 54.576,3.923C54.561,4.103 54.59,4.284 54.661,4.45C54.732,4.617 54.843,4.763 54.984,4.876C55.323,5.118 55.899,5.16 56.606,5.16C58.11,5.16 59.031,4.058 59.183,3.617C59.443,2.896 59.624,1.853 59.207,0.99C58.636,-0.192 57.007,0.144 56.432,0.426C56.117,0.58 55.55,0.818 55.407,1.204ZM79.025,8.514C78.69,9.132 78.692,11.961 78.743,12.294C78.831,12.858 79.962,13.908 80.879,13.919C82.362,13.937 82.556,10.792 82.556,10.51C82.603,9.953 82.528,9.392 82.336,8.867C82.089,8.285 81.046,7.473 80.588,7.491C80.191,7.498 79.236,8.126 79.025,8.514ZM85.486,14.73C86.52,15.088 86.864,14.307 86.864,14.307C87.245,13.537 87.462,12.695 87.498,11.835C87.498,10.651 86.085,9.537 85.574,9.537C85.063,9.537 84.428,9.681 84.126,10.351C83.824,11.022 83.72,12.982 83.72,12.982C83.702,14.078 84.622,14.431 85.486,14.73ZM106.648,15.43C106.207,15.43 106.022,15.65 106.022,16.056L106.022,17.599C106.022,18.01 106.216,18.206 106.648,18.206L108.53,18.206L108.53,21.335C107.95,21.554 107.334,21.664 106.714,21.659C103.901,21.659 102.561,20.382 102.561,17.008C102.561,13.635 103.853,12.349 107.009,12.349C107.974,12.351 108.929,12.542 109.82,12.911C110.296,13.086 110.556,13.019 110.702,12.609L111.33,11.03C111.482,10.64 111.352,10.446 110.984,10.208C110.102,9.645 108.541,9.105 106.443,9.105C101.642,9.105 98.765,11.463 98.765,17C98.765,22.537 101.6,24.874 106.227,24.874C108.652,24.874 110.292,24.398 111.33,23.772C111.479,23.703 111.605,23.592 111.693,23.454C111.781,23.316 111.828,23.155 111.828,22.991L111.828,16.056C111.838,15.972 111.828,15.887 111.8,15.807C111.772,15.727 111.726,15.654 111.666,15.595C111.606,15.535 111.533,15.49 111.453,15.462C111.373,15.435 111.288,15.426 111.204,15.436L106.648,15.43ZM121.007,24.883C125.096,24.883 127.179,22.914 127.179,19.02L127.179,10.001C127.179,9.559 126.985,9.372 126.553,9.372L124.093,9.372C123.639,9.372 123.467,9.566 123.467,10.001L123.467,18.695C123.467,20.601 122.775,21.595 121,21.595C119.226,21.595 118.558,20.601 118.558,18.695L118.558,10.001C118.558,9.559 118.364,9.372 117.91,9.372L115.465,9.372C115.024,9.372 114.839,9.566 114.839,10.001L114.839,19.02C114.848,22.914 116.894,24.883 121,24.883L121.007,24.883ZM130.486,24.016C130.486,24.457 130.682,24.645 131.114,24.645L133.557,24.645C133.997,24.645 134.218,24.451 134.218,24.016L134.218,10.001C134.218,9.559 133.997,9.372 133.557,9.372L131.101,9.372C130.66,9.372 130.473,9.566 130.473,10.001L130.486,24.016ZM136.737,12.034C136.737,12.475 136.931,12.682 137.364,12.682L140.551,12.682L140.551,24.016C140.551,24.457 140.745,24.645 141.199,24.645L143.624,24.645C144.078,24.645 144.272,24.451 144.272,24.016L144.272,12.682L147.451,12.682C147.905,12.682 148.112,12.461 148.112,12.034L148.112,10.001C148.112,9.559 147.916,9.372 147.451,9.372L137.35,9.372C136.909,9.372 136.724,9.566 136.724,10.001L136.737,12.034ZM152.9,9.372C152.424,9.372 152.272,9.566 152.142,9.956L147.321,23.908C147.169,24.349 147.385,24.645 147.795,24.645L150.391,24.645C150.832,24.645 150.995,24.451 151.125,24.06L151.904,21.725L156.921,21.725L157.721,24.06C157.851,24.451 158.045,24.645 158.479,24.645L161.052,24.645C161.462,24.645 161.678,24.343 161.528,23.908L156.705,9.956C156.575,9.566 156.425,9.372 155.949,9.372L152.9,9.372ZM152.596,18.634L154.412,13.03L154.456,13.03L156.207,18.634L152.596,18.634ZM164.427,9.372C163.986,9.372 163.798,9.566 163.798,10.001L163.798,24.016C163.798,24.457 163.992,24.645 164.427,24.645L166.851,24.645C167.292,24.645 167.48,24.451 167.48,24.016L167.48,19.778L169.122,19.778L172.107,24.146C172.192,24.304 172.32,24.434 172.476,24.522C172.632,24.61 172.81,24.653 172.988,24.645L175.497,24.645C175.973,24.645 176.145,24.235 175.865,23.844L172.62,19.258C174.675,18.631 175.973,17.183 175.973,14.651C175.973,10.821 173.725,9.372 169.55,9.372L164.427,9.372ZM167.475,16.792L167.475,12.51L169.517,12.51C171.483,12.51 172.263,13.05 172.263,14.651C172.263,16.122 171.505,16.792 169.495,16.792L167.475,16.792Z" style="fill:white;fill-rule:nonzero;"/>
</svg>
