<?xml version="1.0" encoding="UTF-8" standalone="no"?>
<!DOCTYPE svg PUBLIC "-//W3C//DTD SVG 1.1//EN" "http://www.w3.org/Graphics/SVG/1.1/DTD/svg11.dtd">
<svg width="100%" height="100%" viewBox="0 0 100 100" version="1.1" xmlns="http://www.w3.org/2000/svg" xmlns:xlink="http://www.w3.org/1999/xlink" xml:space="preserve" xmlns:serif="http://www.serif.com/" style="fill-rule:evenodd;clip-rule:evenodd;stroke-linejoin:round;stroke-miterlimit:2;">
    <g transform="matrix(1.13636,0,0,1.13636,18.1818,15.9091)">
        <path d="M28,-14C52.284,-14 72,5.716 72,30C72,54.284 52.284,74 28,74C3.716,74 -16,54.284 -16,30C-16,5.716 3.716,-14 28,-14ZM28,-11.36C50.827,-11.36 69.36,7.173 69.36,30C69.36,52.827 50.827,71.36 28,71.36C5.173,71.36 -13.36,52.827 -13.36,30C-13.36,7.173 5.173,-11.36 28,-11.36Z" style="fill:rgb(244,241,208);"/>
    </g>
    <g transform="matrix(1,0,0,1,1,0)">
        <path d="M83.781,15.266L14.047,15.266L14.047,85L83.781,85L83.781,15.266ZM17.047,18.266L17.047,82L80.781,82L80.781,18.266L17.047,18.266Z" style="fill:rgb(244,241,208);"/>
    </g>
    <path d="M49.914,15.266L84.781,85L15.047,85L49.914,15.266ZM19.902,82L79.927,82L49.914,21.974L19.902,82Z" style="fill:rgb(244,241,208);"/>
</svg>
