<?xml version="1.0" encoding="UTF-8" standalone="no"?>
<!DOCTYPE svg PUBLIC "-//W3C//DTD SVG 1.1//EN" "http://www.w3.org/Graphics/SVG/1.1/DTD/svg11.dtd">
<svg width="100%" height="100%" viewBox="0 0 607 525" version="1.1" xmlns="http://www.w3.org/2000/svg" xmlns:xlink="http://www.w3.org/1999/xlink" xml:space="preserve" xmlns:serif="http://www.serif.com/" style="fill-rule:evenodd;clip-rule:evenodd;stroke-linejoin:round;stroke-miterlimit:2;">
    <g id="Calque_2_-_copie_5">
        <path d="M133.3,148.1L133.3,49C133.3,25.1 149.8,9.2 173.4,9.2L411.1,9.2C418.9,9.2 425.6,11.5 431.1,17.1L491.2,78.4C496.7,84.1 498.9,91.6 498.9,99.5L498.9,288.8L508.3,288.7L508.3,94.7C508.3,86.4 505.1,78.6 499.3,72.7L435.9,9.1C430.1,3.3 422.1,0 413.9,0L169.4,0C144.6,0 124.4,20.2 124.4,45L124.4,152.4L133.3,148.1ZM124.4,348L124.4,479.9C124.4,504.7 144.6,524.9 169.4,524.9L226.6,524.9L226.6,515.7L173.4,515.7C149.9,515.7 133.3,499.7 133.3,475.9L133.3,352.2L124.4,348Z" style="fill:rgb(254,255,254);fill-rule:nonzero;"/>
    </g>
    <g id="Calque_3">
        <path d="M476.9,87.4L421.5,87.4L421.5,29.5C421.5,25.2 421.5,21.8 417.3,21.8C413,21.8 413.1,25.3 413.1,29.5L413.1,88.1C413.1,92.4 416.5,95.8 420.8,95.8L476.9,95.8C481.2,95.8 484.6,95.9 484.6,91.6C484.6,87.3 481.1,87.4 476.9,87.4Z" style="fill:rgb(254,255,254);fill-rule:nonzero;"/>
    </g>
    <g id="Calque_6">
        <g>
            <path d="M271.9,363.3C258.1,363.3 255.2,369.2 255.2,374.1L255.2,435.2C255.2,440.1 258.1,446 271.9,446C285.7,446 288.6,440.1 288.6,435.2L288.6,374.1C288.6,369.2 285.7,363.3 271.9,363.3ZM264,377.1C264,372.3 266.4,370.2 271.9,370.2C277.4,370.2 279.8,372.3 279.8,377.1L279.8,432.3C279.8,437.1 277.4,439.2 271.9,439.2C266.4,439.2 264,437.1 264,432.3L264,377.1Z" style="fill:rgb(254,255,254);fill-rule:nonzero;"/>
            <path d="M314.4,304.2L305.5,304.2L305.5,353.5L299.6,353.5L299.6,360.4L305.5,360.4L305.5,455.9L314.4,455.9L314.4,360.4L328.2,360.4L328.2,353.5L314.4,353.5L314.4,304.2Z" style="fill:rgb(254,255,254);fill-rule:nonzero;"/>
            <path d="M348.9,363.3C335.1,363.3 332.2,369.2 332.2,374.1L332.2,435.2C332.2,440.1 335.1,446 348.9,446C362.7,446 365.6,440.1 365.6,435.2L365.6,425.4L356.7,425.4L356.7,432.3C356.7,437.1 354.3,439.2 348.8,439.2C343.3,439.2 340.9,437.1 340.9,432.3L340.9,415.6C343.1,416.2 345.7,416.5 348.8,416.5C362.6,416.5 365.5,410.6 365.5,405.7L365.5,374.2C365.6,369.2 362.7,363.3 348.9,363.3ZM341,377.1C341,372.3 343.4,370.2 348.9,370.2C354.4,370.2 356.8,372.3 356.8,377.1L356.8,402.7C356.8,407.5 354.4,409.6 348.9,409.6C343.4,409.6 341,407.5 341,402.7L341,377.1Z" style="fill:rgb(254,255,254);fill-rule:nonzero;"/>
            <path d="M395.9,363.3C382.1,363.3 379.2,369.2 379.2,374.1L379.2,483.4L388.1,483.4L388.1,445.1C390.3,445.7 392.9,446 396,446C409.8,446 412.7,440.1 412.7,435.2L412.7,374.1C412.7,369.2 409.8,363.3 395.9,363.3ZM388.1,377.1C388.1,372.3 390.5,370.2 396,370.2C401.5,370.2 403.9,372.3 403.9,377.1L403.9,432.3C403.9,437.1 401.5,439.2 396,439.2C390.5,439.2 388.1,437.1 388.1,432.3L388.1,377.1Z" style="fill:rgb(254,255,254);fill-rule:nonzero;"/>
            <path d="M443,363.3C429.2,363.3 426.3,369.2 426.3,374.1L426.3,383.9L435.2,383.9L435.2,377C435.2,372.2 437.6,370.1 443.1,370.1C448.6,370.1 451,372.2 451,377L451,393.7C448.8,393.1 446.2,392.8 443.1,392.8C429.3,392.8 426.4,398.7 426.4,403.6L426.4,435.1C426.4,440 429.3,445.9 443.1,445.9C456.9,445.9 459.8,440 459.8,435.1L459.8,374C459.8,369.2 456.8,363.3 443,363.3ZM435.1,406.6C435.1,401.8 437.5,399.7 443,399.7C448.5,399.7 450.9,401.8 450.9,406.6L450.9,432.2C450.9,437 448.5,439.1 443,439.1C437.5,439.1 435.1,437 435.1,432.2L435.1,406.6Z" style="fill:rgb(254,255,254);fill-rule:nonzero;"/>
            <path d="M498.7,364.2C496.5,363.6 493.9,363.3 490.8,363.3C477,363.3 474.1,369.2 474.1,374.1L474.1,435.2C474.1,440.1 477,446 490.8,446C504.6,446 507.5,440.1 507.5,435.2L507.5,304.2L498.6,304.2L498.6,364.2L498.7,364.2ZM483,377.1C483,372.3 485.4,370.2 490.9,370.2C496.4,370.2 498.8,372.3 498.8,377.1L498.8,432.3C498.8,437.1 496.4,439.2 490.9,439.2C485.4,439.2 483,437.1 483,432.3L483,377.1Z" style="fill:rgb(254,255,254);fill-rule:nonzero;"/>
            <path d="M530.3,363.3L521.4,363.3L521.4,383L511.5,383L511.5,389.9L521.4,389.9L521.4,409.6L530.3,409.6L530.3,389.9L540.1,389.9L540.1,383L530.3,383L530.3,363.3Z" style="fill:rgb(254,255,254);fill-rule:nonzero;"/>
            <path d="M562.8,383L562.8,363.3L553.9,363.3L553.9,383L544,383L544,389.9L553.9,389.9L553.9,409.6L562.8,409.6L562.8,389.9L572.6,389.9L572.6,383L562.8,383Z" style="fill:rgb(254,255,254);fill-rule:nonzero;"/>
        </g>
    </g>
    <g id="Calque_9">
        <path d="M234.4,304.2C220.6,304.2 217.7,310.1 217.7,315L217.7,500.5L226.6,500.5L226.6,318C226.6,313.2 229,311.1 234.5,311.1C240,311.1 242.4,313.2 242.4,318L242.4,446L251.3,446L251.3,315C251.2,310.1 248.3,304.2 234.4,304.2Z" style="fill:rgb(254,255,254);fill-rule:nonzero;"/>
    </g>
    <g id="Layer_1">
        <g>
            <path d="M129.4,159.4C137.9,151 150.1,148.7 161.2,145.2C173.9,144.5 186.6,148.4 198.1,153.7C203.1,155.7 202.8,161.6 203.9,166.1C200.3,166.9 196.7,167.6 193.1,168.5C194.7,166 196.2,163.6 197.7,161.1C197.6,158.7 194.8,157.8 193.4,156.1C191.5,157.4 189.6,158.7 187.7,160C186.4,158.9 185.1,157.8 183.8,156.7C180.3,157.2 176.5,157.7 173.2,155.8C167.6,153.3 161.6,151.4 155.4,152C152.6,153.2 150.4,155.4 148.1,157.3C148.1,156.3 148.2,154.3 148.2,153.3C146.9,154.8 145.6,156.3 144.4,157.9C135.8,158.8 131.8,167.7 133.7,175.4C131.9,176.8 130,178.3 128.2,179.7C130.2,175.8 131.9,171.5 129.6,167.3C123.2,169.2 122.7,176.2 119.8,181.2C116.8,186.7 111.7,190.9 109.3,196.7C109.1,199.9 109.6,203 109.9,206.2C107.5,205.5 105.1,204.9 102.8,204.2C108.8,187.9 116.1,171.1 129.4,159.4Z" style="fill:rgb(144,229,154);fill-rule:nonzero;"/>
            <path d="M148.1,157.4C150.5,155.5 152.6,153.2 155.4,152.1C161.6,151.5 167.6,153.4 173.2,155.9C172.4,159.4 171.2,162.8 169.6,166C164.8,163.5 160,160.8 155.5,157.9C156.4,159.7 157.3,161.5 158.2,163.3C157.2,164.7 156.1,166 155.1,167.4C153.1,164.8 151.1,162.2 149.2,159.5C148.5,163.4 145.6,166.3 141.6,164.1C142.5,162 143.4,160 144.3,158C145.5,156.4 146.8,154.9 148.1,153.4C148.2,154.3 148.1,156.3 148.1,157.4Z" style="fill:rgb(92,206,116);fill-rule:nonzero;"/>
            <path d="M173.2,155.8C176.5,157.7 180.2,157.2 183.8,156.7C185.1,157.8 186.4,158.9 187.7,160C189.6,158.7 191.5,157.4 193.4,156.1C194.7,157.8 197.6,158.7 197.7,161.1C196.3,163.6 194.7,166.1 193.1,168.5C192.2,168.7 190.4,169.1 189.6,169.4C191.4,171.6 193.2,173.8 195,175.9C187.4,176.3 181.9,171.1 176.1,167.3C170.8,168.1 167,173.8 161.5,174.4C158.8,173.2 156.3,171.6 153.8,170C152.9,172.9 152.3,175.9 150.6,178.4C148.1,180.1 144.9,180.1 142,180.9C142.1,182.2 142.3,183.6 142.4,184.9C139.3,181.9 135.5,179.1 131.1,181.1C134.3,184.4 129.5,185.7 127.3,187.2C123,189.6 118.2,192.7 117.7,198.1C116.5,201.2 117.8,206 114.3,207.7C110.2,208.8 106,208.1 101.9,208C102.2,207 102.7,205.1 103,204.1C105.4,204.8 107.8,205.4 110.1,206.1C109.7,202.9 109.2,199.8 109.5,196.6C111.9,190.8 117,186.6 120,181.1C122.9,176.1 123.4,169.1 129.8,167.2C132.1,171.4 130.4,175.7 128.4,179.6C130.2,178.1 132,176.7 133.9,175.3C132,167.6 136,158.7 144.6,157.8C143.7,159.8 142.8,161.9 141.9,163.9C145.8,166.1 148.8,163.2 149.5,159.3C151.4,162 153.4,164.6 155.4,167.2C156.4,165.8 157.4,164.5 158.5,163.1C157.6,161.3 156.7,159.5 155.8,157.7C160.4,160.6 165.1,163.2 169.9,165.8C171.2,162.8 172.4,159.4 173.2,155.8M133.3,219.4C135.5,219.8 137.6,220.2 139.8,220.7C137.3,227.4 133.8,234.2 134.2,241.6C135.5,246.4 139.5,250 142.5,253.9C138.1,255.2 132,254.2 129,258.3C127.2,266.3 134.5,270.9 139.2,275.8C132.4,273.3 124.8,269.7 122.4,262.2C125.7,258.1 129.8,254.8 134.1,251.6C127.9,242.2 125.2,228.4 133.3,219.4M202.6,236.3C204.2,237.7 205.9,239.1 207.5,240.4C207.7,243.1 207.9,245.9 208,248.6C205.2,245 202.7,241.1 202.6,236.3M245.2,238.4C246.9,236 249.8,236.2 251.6,238.3C255,242.7 256.9,247.9 259.2,252.9C262.1,253.1 265,253.3 267.8,253.5C262.1,255.6 256.7,258.8 255.9,265.4C253.5,262 257,258.9 258.4,255.8C255.2,249.1 247.4,245.7 245.2,238.4M163.6,242.7L165.3,241.8C165.6,246.3 167.7,251.5 164.4,255.3C161.1,255 157.9,254.8 154.7,254.2C159,251.4 162.2,247.9 163.6,242.7M208,248.7C210.4,251.9 213.1,254.7 216.1,257.3C219.3,253.6 226.4,247.7 229.3,254.7C224.5,257 218.5,258.7 216.9,264.5C216.9,264.7 216.8,265 216.8,265.2C217.5,270.3 219.4,275.2 220.9,280.1C209.9,273 216.5,257.7 208,248.7M267.8,250.1C272.5,250.6 277.5,251.7 281.1,255.2C276.6,254.9 272,255.1 267.8,253.5L267.8,250.1M256,275.9C261.7,278.4 267.3,281.1 273.3,283.1C276.7,281.7 281.5,274.2 284.3,279.7C279.9,283.7 273.8,287.8 267.6,286.4C262.8,284.1 259.7,279.5 256,275.9M97.3,276.8C98.4,277 100.5,277.3 101.7,277.4C106.5,288.5 106.7,301.4 113.3,311.8C117.1,318 120.2,324.5 123.8,330.8C127.6,337.3 133.9,341.7 139.8,346.2C152.4,355.5 173.2,354.1 182.1,340.4C187.8,328.2 180.7,315.3 175.8,304.1C167.4,290.9 145.5,300.9 146.1,315.3C143.6,301 161.9,288.9 174.1,296.2C182.8,301.8 185.2,312.4 188.6,321.5C192.6,332.4 186.7,345.3 176.4,350.1C168.4,355.2 158.6,353.2 149.7,353.2C137.5,352.6 129.6,342.7 121.7,334.8C114,325.4 109,314.2 103,303.6C99.8,295.1 98,286 97.3,276.8M162.1,313.4C163.5,315 164.6,316.8 166,318.5C162.6,322.9 157.1,322.7 152.2,322C150.2,319.8 148.1,317.6 146.1,315.4C150.9,318.3 156.3,324.2 162.3,320.5C162.1,318.1 162.1,315.8 162.1,313.4Z" style="fill:rgb(117,214,111);fill-rule:nonzero;"/>
            <path d="M161.3,174.4C166.8,173.8 170.6,168.1 175.9,167.3C181.8,171.2 187.3,176.3 194.8,175.9C193,173.7 191.2,171.5 189.4,169.4C190.3,169.2 192.1,168.7 192.9,168.5C196.5,167.6 200.1,166.9 203.7,166.1C204.6,169.5 205.5,173 206.6,176.4C204.9,178.1 203.2,179.9 201.4,181.6C205.1,186.7 208.5,192.1 212.2,197.2C219.9,195.1 224.8,202.5 228.2,208.3C221.3,207.9 213.5,207.8 208.1,202.8C204.8,199.8 201.6,196.7 198.1,193.8C196,194.4 193.9,195 191.8,195.6C190.1,191.5 189.1,186.1 183.9,185.1C184.3,187.2 184.8,189.2 185.2,191.3C182.1,193.1 178.7,193.9 175.2,192.9C176.6,190 178.1,187.2 179.6,184.3C175.3,183.9 172.8,187.6 170.4,190.5C169.9,189 169.4,187.5 169,186C167.4,185.8 165.9,185.4 164.3,185.3C162,185.8 161.1,189.1 158.6,189.2C154.5,188.8 150.6,187.1 146.4,186.9C141.4,187.6 136.7,189.8 131.8,191.2C130.2,189.9 128.5,188.6 126.9,187.3C129.1,185.7 134,184.5 130.7,181.2C135.2,179.2 138.9,182 142,185C141.9,183.7 141.7,182.3 141.6,181C144.5,180.3 147.6,180.2 150.2,178.5C151.9,176 152.5,172.9 153.4,170.1C156.1,171.6 158.6,173.2 161.3,174.4Z" style="fill:rgb(143,231,114);fill-rule:nonzero;"/>
            <path d="M201.5,181.6C203.2,179.9 204.9,178.1 206.7,176.4C208.4,181.5 210.6,186.7 214.9,190.1C222.1,195.6 229.6,201.6 238.6,203.7C246.6,205.2 255.4,204.3 262.3,199.7C268.3,194.3 271.1,186.4 277.3,181.2C283.1,184.1 289.6,185.4 295.2,188.7C301,192.4 303.8,199 307.3,204.7C303.5,205.4 299.8,206.2 296,207C297.4,209.4 298.9,211.9 300.4,214.3C299.4,215.8 298.4,217.3 297.5,218.9C295.6,215.9 293.8,212.9 292,209.9C287.9,210.9 284,212.5 280.5,214.7C280.9,216.6 281.3,218.5 281.7,220.4C272.9,215.9 263.5,220.4 255.6,224.8C253.2,226.1 250.7,227.6 248.3,228.9C243.3,226.2 238.4,223.4 233.1,221.3C231,224.7 228.5,228 226,231.2C225.1,228.6 224.1,226 223.3,223.3C222.4,223.4 220.6,223.7 219.7,223.8C219.3,227.5 219.4,231.2 219.9,234.9C217.5,234.6 215,234.3 212.6,234C213.7,229 215,224.1 216,219C214.8,219.1 212.3,219.3 211.1,219.4C207,225.7 206.8,233.3 207.6,240.6C205.9,239.2 204.3,237.8 202.7,236.5C202.9,231.3 203.6,226.2 204,221C198.6,218.7 196.4,224.9 195.4,228.9C192.4,227.9 189.4,227 186.5,225.9C179.8,223.8 175.4,217.9 168.9,215.3C165.5,213.9 163,211.1 160.4,208.6C160.1,209.6 159.5,211.6 159.3,212.6C161.9,217 161.9,222.7 156.8,225.4C155.2,225.2 152,224.8 150.3,224.5C155.7,230 163.6,231 170.7,232.9C169.7,233.6 167.7,235 166.7,235.7C159.9,233.5 152.5,233.3 146.1,229.8C145.9,227.2 145.6,224.5 145.4,221.9C143.5,221.5 141.7,221.2 139.8,220.8C137.6,220.4 135.5,220 133.3,219.5C131.7,217.6 129.9,214.3 127,216C124.7,218.1 122.8,220.6 120.6,222.9C119.3,221.1 117.9,219.3 116.6,217.5C106.8,218.7 107.6,230.5 101.3,235.8C97.3,238.7 97.5,244.2 93.8,247.4C93.3,242.9 93,238.5 93.5,234C95.5,226.1 99,218.7 101,210.7C101.2,210.1 101.5,208.8 101.7,208.1C105.8,208.3 110.1,208.9 114.1,207.8C117.6,206.1 116.2,201.3 117.5,198.2C118.1,192.8 122.8,189.7 127.1,187.3C128.7,188.6 130.4,189.9 132,191.2C136.9,189.7 141.6,187.6 146.6,186.9C150.8,187.1 154.7,188.8 158.8,189.2C161.3,189.1 162.1,185.8 164.5,185.3C166.1,185.4 167.6,185.8 169.2,186C169.7,187.5 170.2,189 170.6,190.5C173.1,187.6 175.5,183.9 179.8,184.3C178.3,187.2 176.9,190 175.4,192.9C178.9,193.9 182.3,193 185.4,191.3C184.9,189.2 184.5,187.2 184.1,185.1C189.3,186 190.3,191.4 192,195.6C194.1,195 196.2,194.4 198.3,193.8C201.7,196.7 205,199.8 208.3,202.8C213.7,207.8 221.5,207.9 228.4,208.3C225.1,202.6 220.1,195.1 212.4,197.2C208.7,192.1 205.2,186.7 201.5,181.6Z" style="fill:rgb(169,243,126);fill-rule:nonzero;"/>
            <path d="M296.1,207C299.9,206.2 303.6,205.5 307.4,204.7C308.6,207.3 309.6,209.9 310.6,212.5C300.2,222.9 284.9,225.6 271.2,228.8C265.5,230.5 260.2,227.5 255.5,224.8C263.4,220.5 272.8,215.9 281.6,220.4C281.2,218.5 280.8,216.6 280.4,214.7C284,212.5 287.9,210.9 291.9,209.9C293.7,212.9 295.6,215.9 297.4,218.9C298.3,217.4 299.3,215.8 300.3,214.3C299,211.9 297.5,209.4 296.1,207Z" style="fill:rgb(135,222,113);fill-rule:nonzero;"/>
            <path d="M166,318.5C164.6,316.9 163.5,315 162.1,313.4C162.1,315.8 162.2,318.1 162.3,320.5C156.3,324.2 150.9,318.3 146.1,315.4C148.1,317.6 150.2,319.7 152.2,322C157.1,322.7 162.6,322.9 166,318.5Z" style="fill:none;fill-rule:nonzero;"/>
            <path d="M116.9,261.7C113.2,257.4 106.9,259.4 101.9,258.7C96.5,259 87.9,257.8 85.8,264.4C95.6,264.7 105.4,264.8 115.2,265.3C115.7,264.4 116.5,262.6 116.9,261.7Z" style="fill:none;fill-rule:nonzero;"/>
            <path d="M227.3,248.1C232.7,256.9 243.3,255.8 252.2,255.6C248.5,252.1 244,249.4 240.9,245.3C239.1,243.6 238.4,240.2 235.6,239.9C230.2,240.6 224.8,241.4 219.3,241.2L213.3,241.2C213,244.5 213,247.8 213,251.1C214.3,251.8 217,253.2 218.3,254C220.1,250.5 223.7,249.1 227.3,248.1Z" style="fill:none;fill-rule:nonzero;"/>
            <path d="M82.3,258.6L81.9,257.5C81.7,257.9 81.4,258.7 81.3,259.1L80.2,260.4C80,260.6 79.6,261.1 79.5,261.3C76.9,263.5 77.4,266.9 77.1,269.9C77.5,270.6 78.4,272.1 78.8,272.9C83.3,275.6 82.4,265.7 79.3,265.5C81.2,263.2 83.3,261 83.9,258L82.3,258.6Z" style="fill:none;fill-rule:nonzero;"/>
            <path d="M97.3,276.8C98,285.9 99.8,295.1 102.9,303.7C108.9,314.2 113.9,325.4 121.6,334.9C129.6,342.8 137.5,352.7 149.6,353.3C158.5,353.3 168.4,355.3 176.3,350.2C186.6,345.4 192.5,332.5 188.5,321.6C185.1,312.6 182.6,301.9 174,296.3C161.8,289 143.5,301.1 146,315.4C145.4,301 167.3,291 175.7,304.2C180.6,315.3 187.6,328.3 182,340.5C173,354.2 152.3,355.6 139.7,346.3C133.8,341.8 127.5,337.4 123.7,330.9C120.1,324.7 116.9,318.1 113.2,311.9C106.7,301.4 106.4,288.6 101.6,277.5C100.5,277.3 98.4,277 97.3,276.8Z" style="fill:none;fill-rule:nonzero;"/>
            <path d="M88.2,269.7C88.5,270.4 89.2,271.8 89.6,272.5C100.3,273.6 111,272.8 121.7,272.8C121.3,272.3 120.5,271.4 120,270.9C109.4,270.5 98.8,268 88.2,269.7Z" style="fill:none;fill-rule:nonzero;"/>
            <path d="M251.6,238.3C249.8,236.2 246.9,236 245.2,238.4C247.4,245.6 255.2,249.1 258.4,255.8C257,258.8 253.5,262 255.9,265.4C256.8,258.9 262.2,255.6 267.8,253.5C264.9,253.3 262,253.1 259.2,252.9C256.9,247.9 254.9,242.7 251.6,238.3Z" style="fill:none;fill-rule:nonzero;"/>
            <path d="M69.8,256.7C68.7,259.2 67.4,261.8 66.1,264.2C67.2,267.4 68.9,270.4 70.9,273.1C71.5,272.8 72.7,272.3 73.2,272.1C68.9,267.1 72.3,261.1 75.1,256.3C73.3,256.6 71.5,256.7 69.8,256.7Z" style="fill:none;fill-rule:nonzero;"/>
            <path d="M281.1,255.2C277.6,251.8 272.7,250.7 267.9,250.2L267.8,250.2L267.8,253.5C272,255.1 276.6,254.9 281.1,255.2Z" style="fill:none;fill-rule:nonzero;"/>
            <path d="M127.6,249.9C123.5,243.4 122.1,235.8 124.6,228.4C122.8,228.9 121,229.3 119.2,229.7C115.2,236.8 109.8,244.1 111,252.7C116.6,252.7 122.4,252.6 127.6,249.9Z" style="fill:none;fill-rule:nonzero;"/>
            <path d="M66.2,254.4C62.8,255 59.4,255.1 56,254.6C54,258.1 51.4,261.3 47.8,263.3C44.2,265.5 45.8,270.6 46.4,274C52.8,275.2 59.4,274.8 65.9,275.1C64.3,271.4 62.1,267.9 61.2,264C60.7,259.9 66,258.3 66.2,254.4Z" style="fill:none;fill-rule:nonzero;"/>
            <path d="M153.1,247.3C153.5,245 154.1,242.6 154.6,240.3C150.9,236.8 145.3,236.9 140.7,235.6C139.4,241.9 140.8,248.2 144.5,253.4C147.2,251.3 150,249 153.1,247.3Z" style="fill:none;fill-rule:nonzero;"/>
            <path d="M285.2,269.2C275.4,270.9 265.4,269.7 255.6,271C245.1,268.9 234.4,268.6 223.7,269.4C223.8,270.4 223.9,272.4 224,273.4C234.5,272.7 245.2,273.8 255.6,271.6C264.7,273.6 274,272.8 283.2,272.2C287.9,271.7 292.2,274.6 296.8,274.1C297.7,267.7 289.2,269.5 285.2,269.2Z" style="fill:none;fill-rule:nonzero;"/>
            <path d="M262.6,261.1C262.2,261.8 261.4,263.3 261,264.1C266.9,265.9 273.2,264.8 279.2,265.6C287,266.7 295.4,267.6 302.7,263.9C300.2,262.3 297.9,259.9 294.9,259.3C284.1,258.7 273.3,260.1 262.6,261.1Z" style="fill:none;fill-rule:nonzero;"/>
            <path d="M273.3,283.1C267.4,281.1 261.7,278.5 256,275.9C259.7,279.5 262.8,284.1 267.5,286.4C273.7,287.8 279.8,283.7 284.2,279.7C281.5,274.2 276.7,281.7 273.3,283.1Z" style="fill:none;fill-rule:nonzero;"/>
            <path d="M232.4,260.6C230,261.2 224.8,260.4 225.4,264.5C232.2,264.9 239.1,264.9 245.9,264.7C248.7,264.8 249.9,263.4 249.6,260.5C243.9,260.5 238.1,260.2 232.4,260.6Z" style="fill:none;fill-rule:nonzero;"/>
            <path d="M312.1,259C311.8,261.4 311.6,263.8 311.4,266.2C310.4,266.8 308.5,268 307.6,268.7C307.6,270.9 307.4,273.2 307.3,275.4C315.6,275.2 323.2,271.7 331.3,270.1C332.6,267.5 331.8,264.6 331.8,261.8C325.1,261.2 318.8,258.7 312.1,259Z" style="fill:none;fill-rule:nonzero;"/>
            <path d="M165.3,241.9L163.6,242.8C162.2,248 159,251.5 154.7,254.3C157.9,254.9 161.1,255.1 164.4,255.4C167.7,251.5 165.6,246.3 165.3,241.9Z" style="fill:none;fill-rule:nonzero;"/>
            <path d="M206.4,256.5C204.5,251.8 202.7,246.6 198.6,243.4C189.9,243.8 181.2,243.5 172.5,243.8C171.4,247.9 170,251.8 169.2,256C181.5,257.1 194,256.6 206.4,256.5Z" style="fill:none;fill-rule:nonzero;"/>
            <path d="M216.9,264.5C218.5,258.7 224.5,257 229.3,254.7C226.3,247.6 219.3,253.6 216.1,257.3C213.7,255.2 211.5,252.9 209.5,250.5C215.7,259.6 210.7,273.5 220.9,280.2C219.4,275.3 217.6,270.4 216.8,265.3L216.9,264.5Z" style="fill:none;fill-rule:nonzero;"/>
            <path d="M155.1,264.6C161.1,262.8 166.8,266.8 172.8,266.8C184.3,267.1 195.8,267.1 207.3,266.6C207.2,265.3 207,262.6 206.9,261.3C191.6,261.3 175.8,259 160.9,263.3C156.7,263.2 152.8,261.3 148.7,260.6C145.9,256.8 138.6,259.5 134,258.4C134.7,260.5 135.3,262.7 135.9,264.8C139.6,264.9 143.4,265 147.1,265C149.5,267.6 152.5,264.8 155.1,264.6Z" style="fill:none;fill-rule:nonzero;"/>
            <path d="M141.5,270.7C142.4,271.9 143.3,273.2 144.2,274.4C147.8,274.5 151.5,274.6 155.1,274.8C172.4,274.9 189.6,275.2 206.9,274.6C207.2,274 207.8,272.9 208.2,272.4C190.5,271.2 172.8,271 155.1,270.7C150.6,270.8 146.1,270.8 141.5,270.7Z" style="fill:none;fill-rule:nonzero;"/>
            <path d="M220.5,183.6L220.3,184.8C228.9,193.4 241.7,198.7 253.7,195.2C258.3,192.7 262.9,189.6 265.1,184.7C272.6,169.2 273.9,150.9 268.8,134.5C264.2,131.2 259.8,127.4 257.1,122.4C251.6,114.8 242.5,106.8 232.5,110.4C222.3,111.8 215.1,120.8 212.3,130.2C208.5,142.2 207.2,155.8 212.4,167.6C213.4,173.5 214.5,180.8 220.5,183.6ZM239.7,154.1C241.9,160.6 238.3,169.6 230.3,169.7C226.7,167.2 221.7,164.9 222.5,159.7C221.1,150.1 234.1,150.4 239.7,154.1Z" style="fill:rgb(251,253,252);fill-rule:nonzero;"/>
            <path d="M307,191.9C311.6,187 317.2,183.2 322.1,178.7C330.5,166.4 337.6,150.1 331.2,135.3C329,125.5 317.6,122.1 308.7,123.2C297,125.2 284.1,129.4 277.9,140.5C278.1,151.3 279.8,162.1 277.6,172.8C289,175.8 301.4,180.8 307,191.9ZM315.4,146.4C317.7,145.9 320.1,145.3 322.4,144.6C325,148.6 324.9,154.3 323.5,158.7C318.9,163.2 312.3,158.6 310.4,153.7C312.1,151.2 313.8,148.8 315.4,146.4Z" style="fill:rgb(251,253,252);fill-rule:nonzero;"/>
            <path d="M267.8,250.1C267.8,250.2 267.9,250.2 267.8,250.1C267.9,250.2 267.9,250.2 267.8,250.1Z" style="fill:rgb(35,31,32);fill-rule:nonzero;"/>
            <path d="M307,191.9C311.6,187 317.2,183.2 322.1,178.7C330.5,166.4 337.6,150.1 331.2,135.3C329,125.5 317.6,122.1 308.7,123.2C297,125.2 284.1,129.4 277.9,140.5C278.1,151.3 279.8,162.1 277.6,172.8C289,175.8 301.4,180.8 307,191.9ZM315.4,146.4C317.7,145.9 320.1,145.3 322.4,144.6C325,148.6 324.9,154.3 323.5,158.7C318.9,163.2 312.3,158.6 310.4,153.7C312.1,151.2 313.8,148.8 315.4,146.4Z" style="fill:none;fill-rule:nonzero;"/>
            <path d="M115.3,265.3C115.7,264.4 116.5,262.6 116.9,261.7C113.2,257.4 106.9,259.4 101.9,258.7C97.7,259 91.7,258.3 88.2,261L88.2,264.5C97.2,264.7 106.3,264.9 115.3,265.3Z" style="fill:none;fill-rule:nonzero;"/>
            <path d="M124.6,228.4C122.8,228.9 121,229.3 119.2,229.7C115.2,236.8 109.8,244.1 111,252.7C116.7,252.7 122.5,252.6 127.6,249.9C123.5,243.4 122.1,235.8 124.6,228.4Z" style="fill:none;fill-rule:nonzero;"/>
            <path d="M129,258.2C132,254.1 138,255.1 142.5,253.8C139.5,249.9 135.4,246.4 134.2,241.5C133.8,234.2 137.3,227.4 139.8,220.6C141.7,221 143.5,221.3 145.4,221.7C145.7,224.3 145.9,226.9 146.1,229.6C152.5,233.1 159.9,233.3 166.7,235.5C176.1,238.6 186.2,237.5 195.7,235.3C195.5,233.1 195.4,230.9 195.4,228.7C196.4,224.7 198.6,218.5 204,220.8C203.5,226 202.9,231.1 202.7,236.3C202.8,241 205.2,245 208.1,248.6C208,245.9 207.8,243.1 207.6,240.4C206.8,233.2 207,225.5 211.1,219.2C212.3,219.1 214.8,218.9 216,218.8C215,223.8 213.7,228.8 212.6,233.8C215,234.1 217.5,234.4 219.9,234.7C229.7,235.8 239.6,233.3 248.3,228.7C250.8,227.4 253.2,226 255.6,224.6C260.3,227.4 265.6,230.3 271.3,228.6C285,225.4 300.3,222.7 310.7,212.3C309.9,210.2 309,208.1 308.1,206C307.9,205.5 307.7,205 307.5,204.5C304.1,198.8 301.3,192.2 295.4,188.5C289.8,185.2 283.3,183.8 277.5,181C271.3,186.2 268.4,194.1 262.5,199.5C255.6,204.1 246.8,205 238.8,203.5C229.7,201.4 222.3,195.4 215.1,189.9C210.7,186.5 208.5,181.3 206.9,176.2C205.9,172.8 204.9,169.4 204,165.9C202.9,161.5 203.2,155.6 198.2,153.5C198,153.4 197.8,153.3 197.6,153.2C186.3,148 173.9,144.2 161.3,144.9C150.3,148.3 138.1,150.7 129.5,159.1C116.2,170.8 108.8,187.5 102.9,203.9C102.6,204.9 102.1,206.8 101.8,207.8C101.6,208.5 101.3,209.7 101.1,210.4C99.1,218.3 95.6,225.8 93.6,233.7C93.1,238.2 93.4,242.7 93.9,247.1C93.9,247.9 94,249.6 94.1,250.5C96.8,250.5 99.5,250.6 102.2,250.7C107.8,241 111.4,229.7 120.7,222.6C122.9,220.4 124.8,217.9 127.1,215.7C130,214.1 131.9,217.4 133.4,219.2C125.3,228.2 128,242 134.3,251.3C130.1,254.4 125.9,257.7 122.6,261.9C124.9,269.4 132.5,273 139.4,275.5C134.5,270.8 127.2,266.2 129,258.2Z" style="fill:none;fill-rule:nonzero;"/>
            <path d="M198.5,243.4C189.8,243.8 181.1,243.5 172.4,243.8C171.3,247.9 169.9,251.8 169.1,256C181.5,257.1 194,256.7 206.4,256.5C204.5,251.8 202.7,246.6 198.5,243.4Z" style="fill:none;fill-rule:nonzero;"/>
            <path d="M166,318.5C164.6,316.9 163.5,315 162.1,313.4C162.1,315.8 162.2,318.1 162.3,320.5C156.3,324.2 150.9,318.3 146.1,315.4C148.1,317.6 150.2,319.7 152.2,322C157.1,322.7 162.6,322.9 166,318.5Z" style="fill:none;fill-rule:nonzero;"/>
            <path d="M121.7,272.8C121.3,272.3 120.5,271.4 120,270.9C109.4,270.5 98.8,268 88.2,269.7C88.5,270.4 89.2,271.8 89.6,272.5C100.2,273.6 111,272.8 121.7,272.8Z" style="fill:none;fill-rule:nonzero;"/>
            <path d="M97.3,276.8C98,285.9 99.8,295.1 102.9,303.7C108.9,314.2 113.9,325.4 121.6,334.9C129.6,342.8 137.5,352.7 149.6,353.3C158.5,353.3 168.4,355.3 176.3,350.2C186.6,345.4 192.5,332.5 188.5,321.6C185.1,312.6 182.6,301.9 174,296.3C161.8,289 143.5,301.1 146,315.4C145.4,301 167.3,291 175.7,304.2C180.6,315.3 187.6,328.3 182,340.5C173,354.2 152.3,355.6 139.7,346.3C133.8,341.8 127.5,337.4 123.7,330.9C120.1,324.7 116.9,318.1 113.2,311.9C106.7,301.4 106.4,288.6 101.6,277.5C100.5,277.3 98.4,277 97.3,276.8Z" style="fill:none;fill-rule:nonzero;"/>
            <path d="M232.4,260.6C230,261.2 224.8,260.4 225.4,264.5C232.2,264.9 239.1,264.9 245.9,264.7C248.7,264.8 249.9,263.4 249.6,260.5C243.9,260.5 238.1,260.2 232.4,260.6Z" style="fill:none;fill-rule:nonzero;"/>
            <path d="M240.9,245.3C239.1,243.6 238.4,240.2 235.6,239.9C230.2,240.6 224.8,241.4 219.3,241.2L213.3,241.2C213,244.5 213,247.8 213,251.1C214.3,251.8 217,253.2 218.3,254C220.2,250.5 223.8,249.1 227.4,248.1C232.8,256.9 243.4,255.8 252.3,255.6C248.5,252.1 244,249.3 240.9,245.3Z" style="fill:none;fill-rule:nonzero;"/>
            <path d="M220.5,183.6L220.3,184.8C228.9,193.4 241.7,198.7 253.7,195.2C258.3,192.7 262.9,189.6 265.1,184.7C272.6,169.2 273.9,150.9 268.8,134.5C264.2,131.2 259.8,127.4 257.1,122.4C251.6,114.8 242.5,106.8 232.5,110.4C222.3,111.8 215.1,120.8 212.3,130.2C208.5,142.2 207.2,155.8 212.4,167.6C213.4,173.5 214.5,180.8 220.5,183.6ZM239.7,154.1C241.9,160.6 238.3,169.6 230.3,169.7C226.7,167.2 221.7,164.9 222.5,159.7C221.1,150.1 234.1,150.4 239.7,154.1Z" style="fill:none;fill-rule:nonzero;"/>
            <path d="M262.6,261.1C262.2,261.8 261.4,263.3 261,264.1C266.9,265.9 273.2,264.8 279.2,265.6C287,266.7 295.4,267.6 302.7,263.9C300.2,262.3 297.9,259.9 294.9,259.3C284.1,258.7 273.3,260.1 262.6,261.1Z" style="fill:none;fill-rule:nonzero;"/>
            <path d="M285.2,269.2C275.4,270.9 265.4,269.7 255.6,271C245.1,268.9 234.4,268.6 223.7,269.4C223.8,270.4 223.9,272.4 224,273.4C234.5,272.7 245.2,273.8 255.6,271.6C264.7,273.6 274,272.8 283.2,272.2C287.9,271.7 292.2,274.6 296.8,274.1C297.7,267.7 289.2,269.5 285.2,269.2Z" style="fill:none;fill-rule:nonzero;"/>
            <path d="M273.3,283.1C267.4,281.1 261.7,278.5 256,275.9C259.7,279.5 262.8,284.1 267.5,286.4C273.7,287.8 279.8,283.7 284.2,279.7C281.5,274.2 276.7,281.7 273.3,283.1Z" style="fill:none;fill-rule:nonzero;"/>
            <path d="M312.1,259C311.8,261.4 311.6,263.8 311.4,266.2C310.4,266.8 308.5,268 307.6,268.7C307.6,270.9 307.4,273.2 307.3,275.4C315.6,275.2 323.2,271.7 331.3,270.1C332.6,267.5 331.8,264.6 331.8,261.8C325.1,261.2 318.8,258.7 312.1,259Z" style="fill:none;fill-rule:nonzero;"/>
            <path d="M251.6,238.3C249.8,236.2 246.9,236 245.2,238.4C247.4,245.6 255.2,249.1 258.4,255.8C257,258.8 253.5,262 255.9,265.4C256.8,258.9 262.2,255.6 267.8,253.5C264.9,253.3 262,253.1 259.2,252.9C256.9,247.9 254.9,242.7 251.6,238.3Z" style="fill:none;fill-rule:nonzero;"/>
            <path d="M155.1,264.6C161.1,262.8 166.8,266.8 172.8,266.8C184.3,267.1 195.8,267.1 207.3,266.6C207.2,265.3 207,262.6 206.9,261.3C191.6,261.3 175.8,259 160.9,263.3C156.7,263.2 152.8,261.3 148.7,260.6C145.9,256.8 138.6,259.5 134,258.4C134.7,260.5 135.3,262.7 135.9,264.8C139.6,264.9 143.4,265 147.1,265C149.5,267.6 152.5,264.8 155.1,264.6Z" style="fill:none;fill-rule:nonzero;"/>
            <path d="M141.5,270.7C142.4,271.9 143.3,273.2 144.2,274.4C147.8,274.5 151.5,274.6 155.1,274.8C172.4,274.9 189.6,275.2 206.9,274.6C207.2,274 207.8,272.9 208.2,272.4C190.5,271.2 172.8,271 155.1,270.7C150.6,270.8 146.1,270.8 141.5,270.7Z" style="fill:none;fill-rule:nonzero;"/>
            <path d="M144.4,253.5C147.2,251.3 150,249.1 153,247.4C153.4,245.1 154,242.7 154.5,240.4C150.8,236.9 145.2,237 140.6,235.7C139.4,241.9 140.8,248.2 144.4,253.5Z" style="fill:none;fill-rule:nonzero;"/>
            <path d="M154.7,254.2C157.9,254.8 161.1,255 164.4,255.3C167.7,251.5 165.6,246.3 165.3,241.8L163.6,242.7C162.2,247.9 159,251.4 154.7,254.2Z" style="fill:none;fill-rule:nonzero;"/>
            <path d="M216.9,264.5C218.5,258.7 224.5,257 229.3,254.7C226.3,247.6 219.3,253.6 216.1,257.3C213.7,255.2 211.5,252.9 209.5,250.5C215.7,259.6 210.7,273.5 220.9,280.2C219.4,275.3 217.6,270.4 216.8,265.3L216.9,264.5Z" style="fill:none;fill-rule:nonzero;"/>
            <path d="M69.8,256.7C68.7,259.2 67.4,261.8 66.1,264.2C67.2,267.4 68.9,270.4 70.9,273.1C71.5,272.8 72.7,272.3 73.2,272.1C68.9,267.1 72.3,261.1 75.1,256.3C73.3,256.6 71.5,256.7 69.8,256.7Z" style="fill:white;fill-rule:nonzero;"/>
            <path d="M82.3,258.6L81.9,257.5C81.7,257.9 81.4,258.7 81.3,259.1L80.2,260.4C80,260.6 79.6,261.1 79.5,261.3C76.9,263.5 77.4,266.9 77.1,269.9C77.5,270.6 78.4,272.1 78.8,272.9C83.3,275.6 82.4,265.7 79.3,265.5C81.2,263.2 83.3,261 83.9,258L82.3,258.6Z" style="fill:white;fill-rule:nonzero;"/>
            <path d="M230.3,169.7C238.3,169.7 241.8,160.6 239.7,154.1C234.1,150.4 221.2,150.1 222.5,159.6C221.7,164.8 226.7,167.2 230.3,169.7Z" style="fill:rgb(35,31,32);fill-rule:nonzero;"/>
            <path d="M323.5,158.6C324.9,154.2 325,148.5 322.4,144.5C320.1,145.2 317.8,145.8 315.4,146.3C313.7,148.7 312.1,151.1 310.4,153.5C312.3,158.5 318.8,163.1 323.5,158.6Z" style="fill:rgb(35,31,32);fill-rule:nonzero;"/>
            <path d="M319.1,255.3C308.8,253.5 298.4,255.2 288.1,255C283.5,251.9 279,248.3 273.3,247.9C271.5,248.7 269.7,249.4 267.9,250.1C272.6,250.6 277.5,251.7 281.1,255.1C276.6,254.8 272,255 267.8,253.4C262.1,255.5 256.7,258.7 255.9,265.3C253.5,261.9 257,258.8 258.4,255.7C255.2,249 247.5,245.5 245.2,238.3C246.9,235.9 249.8,236.1 251.6,238.2C255,242.6 256.9,247.8 259.2,252.8C262.1,253 265,253.2 267.8,253.4L267.8,250.1C266.4,250.7 264.9,251.3 263.5,252C261,246.5 258.9,240.9 257.1,235.2C260.5,236 263.8,237.2 267.2,237.9C282.8,235.5 299.5,232.4 311.7,221.6C314.3,219 318.9,216.7 318.1,212.4C317.8,210.2 317.1,208.1 316.1,206.2C314.4,202.6 312,199.3 310.5,195.5C314,194.2 317.6,192.9 321,191.3C333.2,179.4 339.3,162.4 340.6,145.6C339.4,136.7 336.9,126.9 330,120.6C317.4,114.3 302.6,116.3 289.8,120.9C284,123.2 279.8,127.9 274.9,131.7C271,130.8 268.6,126.3 266,123.3C261,114.8 254.2,107 244.9,103.3C237.1,103 228.2,100.9 221.5,105.9C218.1,108.1 214.3,110.1 211.9,113.6C206.5,123.7 203.4,134.9 202.5,146.2C200.8,145.5 199.1,144.9 197.4,144.2C185.5,139.8 173.1,136.8 160.4,137.2C151.6,138.9 143,141.5 134.8,145.2C118.1,153.9 107.5,170.9 101.3,188.2C97.5,195.8 94.8,203.8 93.3,212.1C91.9,219.6 89,226.9 88.6,234.6C88.6,239.8 89,245 88.9,250.2C88.7,250.3 88.4,250.5 88.2,250.6C82.8,253.6 76.4,253.5 70.4,254.5C65.9,254.4 61.6,252.2 57.1,253.5L57,253.5C52.2,255.8 47.1,257.1 42.3,259.3C41.2,266.1 40.1,275.5 48.3,278.1L57.1,278.1C67.5,278.1 77.8,278.2 88.2,278.3L90.6,278.3C93.1,291.3 95.6,304.7 102.5,316.2C110.6,329.3 118.6,343 130.9,352.6C142.7,360.5 157.6,360.8 171.1,358.4C176.2,357.8 179.8,353.8 184.4,351.9C187.2,350.2 191.4,349.8 192.4,346.2C201.6,331.2 194.6,312.7 186.2,299C180.9,289.6 169.3,287.7 159.5,288.1C153.7,289 150.1,293.9 145.4,296.9C140.3,300 135.3,306.6 139.2,312.6C142.5,318.9 146.6,327.3 155,326.8C160.3,326.2 167.3,325 169.6,319.5C170.6,312.8 162.7,309.6 157.4,308.4C157.7,311.7 158,314.9 158.3,318.2C155.6,316.3 152.8,314.5 150,312.6C151.7,303.8 161.5,304 168.3,301.3C175.2,312 182.4,325.8 176.8,338.6C170.3,346.7 158.6,345.7 149.6,343.6C137.8,341.8 129.9,331.2 124.7,321.3C116.8,307.6 107.2,292.9 108.9,276.4C114.4,276.3 120,275.9 125.4,276.5C130.7,277.7 135.4,282.3 141.1,280.1C153.3,276.8 166,278.8 178.5,278.6C188.3,278.1 198.2,277.6 208,278.2C211.5,279.2 213.5,283.5 217.6,283.2C222.3,284.8 225,279.9 228.5,277.9C236.4,277.6 244.4,277.4 252.2,277.9C255.9,284.4 261.5,291.4 269.5,292.4C279.2,292.8 287.5,285.9 292.7,278.3C299.6,279.9 307,282 313.7,278.6C328.2,272.5 344.2,272.5 359.1,268.2L359.1,263.9C347.4,256.5 332.6,258.7 319.1,255.3ZM252.2,255.6C243.3,255.8 232.7,256.9 227.3,248.1C223.7,249.1 220.1,250.5 218.2,254C216.9,253.3 214.2,251.8 212.9,251.1C212.9,247.8 212.9,244.5 213.2,241.2L219.2,241.2C224.7,241.5 230.1,240.6 235.5,239.9C238.3,240.2 239,243.6 240.8,245.3C244,249.3 248.5,252.1 252.2,255.6ZM245.9,264.7C239,264.9 232.2,264.9 225.4,264.5C224.7,260.4 229.9,261.2 232.4,260.6C238.2,260.2 243.9,260.5 249.7,260.5C249.9,263.4 248.7,264.8 245.9,264.7ZM277.9,140.6C284.1,129.5 297,125.3 308.7,123.3C317.6,122.2 328.9,125.6 331.2,135.4C337.6,150.1 330.5,166.4 322.1,178.8C317.2,183.4 311.6,187.1 307,192C301.4,180.8 289,175.8 277.6,173C279.7,162.2 278.1,151.3 277.9,140.6ZM212.3,130.2C215.1,120.8 222.3,111.8 232.5,110.4C242.5,106.8 251.7,114.8 257.1,122.4C259.9,127.5 264.2,131.2 268.8,134.5C273.9,150.9 272.6,169.2 265.1,184.7C262.9,189.7 258.2,192.7 253.7,195.2C241.6,198.7 228.9,193.4 220.3,184.8L220.5,183.6C214.4,180.8 213.4,173.4 212.3,167.6C207.2,155.8 208.5,142.2 212.3,130.2ZM57.1,274.9C53.5,274.8 50,274.6 46.4,274C45.8,270.6 44.3,265.6 47.8,263.3C51.4,261.3 53.9,258.1 56,254.6C56.4,254.7 56.7,254.7 57.1,254.7C60.1,255.1 63.2,255 66.2,254.4C65.9,258.3 60.6,260 61.3,264C62.2,267.9 64.4,271.4 66,275.1C63,275 60.1,274.9 57.1,274.9ZM73.2,272.2C72.6,272.5 71.4,273 70.9,273.2C68.9,270.4 67.3,267.5 66.1,264.3C67.5,261.9 68.7,259.3 69.8,256.8C71.5,256.7 73.3,256.6 75,256.4C72.3,261.2 68.9,267.1 73.2,272.2ZM78.6,272.8C78.2,272.1 77.3,270.6 76.9,269.8C77.2,266.8 76.7,263.4 79.3,261.2C79.5,261 79.8,260.6 80,260.3L81.1,259C81.3,258.6 81.6,257.8 81.7,257.4L82.1,258.5L83.5,257.9C83,260.9 80.8,263.1 78.9,265.4C82.3,265.6 83.1,275.5 78.6,272.8ZM85.9,264.4C86.4,262.9 87.2,261.8 88.2,261C91.7,258.3 97.7,259 101.9,258.7C106.9,259.4 113.1,257.4 116.9,261.7C116.5,262.6 115.7,264.4 115.3,265.3C106.3,264.9 97.2,264.7 88.2,264.5C87.4,264.5 86.7,264.5 85.9,264.4ZM127.6,249.9C122.4,252.6 116.6,252.7 111,252.7C109.8,244.1 115.2,236.8 119.2,229.7C121,229.3 122.8,228.9 124.6,228.4C122.1,235.8 123.5,243.4 127.6,249.9ZM113.2,311.9C117,318.1 120.1,324.6 123.7,330.9C127.5,337.4 133.8,341.8 139.7,346.3C152.3,355.6 173.1,354.2 182,340.5C187.7,328.3 180.6,315.4 175.7,304.2C167.3,291 145.4,301 146,315.4C150.8,318.3 156.2,324.2 162.2,320.5C162.1,318.2 162,315.8 162,313.4C163.4,315 164.5,316.8 165.9,318.5C162.5,322.9 157,322.7 152.1,322C150.1,319.8 148,317.6 146,315.4C143.5,301.1 161.8,289 174,296.3C182.7,301.9 185.1,312.5 188.5,321.6C192.5,332.5 186.6,345.4 176.3,350.2C168.3,355.3 158.5,353.3 149.6,353.3C137.4,352.7 129.5,342.8 121.6,334.9C113.9,325.5 108.9,314.3 102.9,303.7C99.8,295.1 98,285.9 97.3,276.8C98.4,277 100.5,277.3 101.7,277.4C106.4,288.6 106.7,301.4 113.2,311.9ZM89.6,272.5C89.2,271.8 88.6,270.4 88.2,269.7C98.8,268 109.4,270.5 120,270.9C120.4,271.4 121.2,272.3 121.7,272.8C111,272.8 100.2,273.6 89.6,272.5ZM122.5,262.1C125.8,258 129.9,254.7 134.2,251.5C128,242.2 125.2,228.4 133.3,219.4C131.7,217.5 129.9,214.2 127,215.9C124.7,218 122.8,220.5 120.6,222.8C111.3,229.9 107.7,241.2 102.1,250.9C99.4,250.8 96.7,250.7 94,250.7C94,249.9 93.9,248.2 93.8,247.3C93.3,242.8 93,238.4 93.5,233.9C95.5,226 99,218.6 101,210.6C101.2,210 101.5,208.7 101.7,208C102,207 102.5,205.1 102.8,204.1C108.8,187.8 116.2,171.1 129.4,159.3C137.9,150.9 150.1,148.6 161.2,145.1C173.7,144.4 186.2,148.2 197.5,153.4C197.7,153.5 197.9,153.6 198.1,153.7C203.1,155.7 202.8,161.6 203.9,166.1C204.8,169.5 205.7,173 206.8,176.4C208.5,181.5 210.7,186.7 215,190.1C222.2,195.6 229.7,201.6 238.7,203.7C246.7,205.2 255.5,204.3 262.4,199.7C268.4,194.3 271.2,186.4 277.4,181.2C283.2,184.1 289.7,185.4 295.3,188.7C301.1,192.4 303.9,199 307.4,204.7C307.6,205.2 307.8,205.7 308,206.2C308.9,208.3 309.7,210.4 310.6,212.5C300.2,222.9 284.9,225.6 271.2,228.8C265.5,230.5 260.2,227.5 255.5,224.8C253.1,226.1 250.6,227.6 248.2,228.9C239.6,233.5 229.6,236 219.8,234.9C217.4,234.6 214.9,234.3 212.5,234C213.6,229 214.9,224.1 215.9,219C214.7,219.1 212.2,219.3 211,219.4C206.9,225.7 206.7,233.3 207.5,240.6C207.7,243.3 207.9,246.1 208,248.8C205.1,245.2 202.7,241.2 202.6,236.5C202.8,231.3 203.5,226.2 203.9,221C198.5,218.7 196.3,224.9 195.3,228.9C195.3,231.1 195.5,233.3 195.6,235.5C186.1,237.7 176,238.8 166.6,235.7C159.8,233.5 152.4,233.3 146,229.8C145.8,227.2 145.5,224.5 145.3,221.9C143.4,221.5 141.6,221.2 139.7,220.8C137.2,227.5 133.7,234.3 134.1,241.7C135.4,246.5 139.4,250.1 142.4,254C138,255.3 131.9,254.3 128.9,258.4C127.1,266.4 134.4,271 139.1,275.9C132.4,273.2 124.8,269.6 122.5,262.1ZM206.4,256.5C194,256.7 181.5,257.1 169.1,256C169.9,251.9 171.3,247.9 172.4,243.8C181.1,243.5 189.8,243.8 198.5,243.4C202.7,246.6 204.5,251.8 206.4,256.5ZM164.4,255.3C161.1,255 157.9,254.8 154.7,254.2C159,251.3 162.2,247.8 163.6,242.7L165.3,241.8C165.6,246.3 167.7,251.5 164.4,255.3ZM154.6,240.3C154,242.6 153.5,244.9 153.1,247.3C150,249 147.2,251.3 144.5,253.4C140.9,248.1 139.5,241.9 140.7,235.6C145.3,237 150.9,236.8 154.6,240.3ZM136,264.9C135.4,262.8 134.8,260.6 134.1,258.5C138.7,259.6 146,256.9 148.8,260.7C152.9,261.4 156.8,263.3 161,263.4C175.9,259 191.7,261.4 207,261.4C207.1,262.7 207.3,265.4 207.4,266.7C195.9,267.1 184.4,267.2 172.9,266.9C166.9,266.9 161.2,262.9 155.2,264.7C152.6,264.9 149.6,267.7 147.3,265.3C143.4,265.1 139.7,265 136,264.9ZM206.9,274.6C189.6,275.2 172.4,274.9 155.1,274.8C151.5,274.7 147.8,274.5 144.2,274.4C143.3,273.2 142.4,271.9 141.5,270.7C146,270.7 150.5,270.8 155.1,270.7C172.8,270.9 190.5,271.2 208.2,272.4C207.8,273 207.2,274.1 206.9,274.6ZM209.5,250.4C211.5,252.9 213.7,255.1 216.1,257.2C219.3,253.5 226.4,247.6 229.3,254.6C224.5,256.9 218.5,258.6 216.9,264.4L216.8,265.1C217.5,270.2 219.4,275.1 220.9,280C210.6,273.4 215.7,259.6 209.5,250.4ZM267.6,286.4C262.8,284.1 259.8,279.5 256.1,275.9C261.8,278.4 267.4,281.1 273.4,283.1C276.8,281.7 281.6,274.2 284.4,279.7C279.9,283.7 273.8,287.8 267.6,286.4ZM296.8,274.1C292.2,274.7 287.9,271.8 283.2,272.2C274,272.8 264.7,273.6 255.6,271.6C245.2,273.8 234.5,272.8 224,273.4C223.9,272.4 223.8,270.4 223.7,269.4C234.4,268.5 245.1,268.9 255.6,271C265.4,269.7 275.4,270.9 285.2,269.2C289.2,269.5 297.7,267.7 296.8,274.1ZM279.2,265.6C273.2,264.8 266.9,265.9 261,264.1C261.4,263.4 262.2,261.9 262.6,261.1C273.3,260.2 284,258.7 294.9,259.3C297.9,259.9 300.2,262.3 302.7,263.9C295.4,267.5 287,266.6 279.2,265.6ZM331.3,270.1C323.2,271.6 315.6,275.2 307.3,275.4C307.5,273.2 307.6,270.9 307.6,268.7C308.5,268.1 310.4,266.8 311.4,266.2C311.6,263.8 311.9,261.4 312.1,259C318.8,258.7 325.1,261.2 331.7,261.9C331.8,264.5 332.6,267.5 331.3,270.1Z" style="fill:rgb(122,117,118);fill-rule:nonzero;"/>
            <path d="M160.4,208.5C163,211 165.5,213.8 168.9,215.2C175.3,217.7 179.8,223.7 186.5,225.8C185.9,226.8 185.3,227.9 184.7,228.9C175.6,226 165.9,228.2 156.8,225.3C161.9,222.6 161.9,216.9 159.3,212.5C159.5,211.5 160.1,209.5 160.4,208.5Z" style="fill:rgb(151,235,116);fill-rule:nonzero;"/>
            <path d="M101.2,235.7C107.5,230.4 106.7,218.6 116.5,217.4C117.9,219.2 119.2,221 120.5,222.8C111.2,229.9 107.6,241.2 102,250.9C99.3,250.8 96.6,250.7 93.9,250.7C93.9,249.9 93.8,248.2 93.7,247.3C97.4,244.1 97.2,238.6 101.2,235.7Z" style="fill:rgb(132,203,113);fill-rule:nonzero;"/>
            <path d="M233,221.3C238.3,223.4 243.2,226.2 248.2,228.9C239.6,233.5 229.6,236 219.8,234.9C219.3,231.2 219.2,227.5 219.6,223.8C220.5,223.7 222.3,223.5 223.2,223.3C224.1,225.9 225,228.5 225.9,231.2C228.4,228 230.8,224.7 233,221.3Z" style="fill:rgb(108,185,96);fill-rule:nonzero;"/>
            <path d="M150.3,224.4C151.9,224.6 155.1,225 156.8,225.3C165.9,228.2 175.6,226 184.7,228.9C185.3,227.9 185.9,226.8 186.5,225.8C189.5,226.9 192.4,227.8 195.4,228.8C195.4,231 195.6,233.2 195.7,235.4C186.2,237.6 176.1,238.7 166.7,235.6C167.7,234.9 169.7,233.5 170.7,232.8C163.6,230.9 155.7,229.9 150.3,224.4Z" style="fill:rgb(119,198,108);fill-rule:nonzero;"/>
            <path d="M56.1,254.6C59.5,255.1 62.9,255.1 66.3,254.4C66,258.3 60.7,260 61.4,264C62.3,267.9 64.5,271.4 66.1,275.1C59.6,274.8 53,275.2 46.6,274C46,270.6 44.5,265.6 48,263.3C51.5,261.2 54,258.1 56.1,254.6Z" style="fill:rgb(208,123,132);fill-rule:nonzero;"/>
            <path d="M312.1,259C318.8,258.7 325.1,261.2 331.7,261.9C331.7,264.6 332.5,267.6 331.2,270.2C323.1,271.7 315.5,275.3 307.2,275.5C307.4,273.3 307.5,271 307.5,268.8C308.4,268.2 310.3,266.9 311.3,266.3C311.6,263.8 311.9,261.4 312.1,259Z" style="fill:rgb(254,254,254);fill-rule:nonzero;"/>
            <path d="M134.1,258.5C138.7,259.6 146,256.9 148.8,260.7C148,260.6 146.4,260.4 145.6,260.3C146.1,261.9 146.6,263.6 147.2,265.2C143.5,265.2 139.7,265 136,265C135.4,262.8 134.7,260.6 134.1,258.5M88.2,269.7C98.8,268 109.4,270.5 120,270.9C120.4,271.4 121.2,272.3 121.7,272.8C111,272.8 100.2,273.6 89.6,272.5C89.2,271.8 88.5,270.4 88.2,269.7Z" style="fill:rgb(225,203,134);fill-rule:nonzero;"/>
            <path d="M85.9,264.4C87.9,257.8 96.5,259 102,258.7C107,259.4 113.2,257.4 117,261.7C116.6,262.6 115.8,264.4 115.4,265.3C105.5,264.8 95.7,264.7 85.9,264.4M155.1,270.8C172.8,271 190.5,271.3 208.2,272.5C207.9,273.1 207.2,274.2 206.9,274.7C189.6,275.3 172.4,275 155.1,274.9L155.1,270.8Z" style="fill:rgb(221,195,119);fill-rule:nonzero;"/>
            <path d="M145.6,260.3C146.4,260.4 148,260.6 148.8,260.7C152.9,261.4 156.8,263.3 161,263.4C175.9,259 191.7,261.4 207,261.4C207.1,262.7 207.3,265.4 207.4,266.7C195.9,267.1 184.4,267.2 172.9,266.9C166.9,266.9 161.2,262.9 155.2,264.7C152.6,264.9 149.6,267.7 147.3,265.3C146.6,263.5 146.1,261.9 145.6,260.3M141.5,270.7C146,270.7 150.5,270.8 155.1,270.7L155.1,274.8C151.5,274.7 147.8,274.5 144.2,274.4C143.3,273.2 142.4,272 141.5,270.7Z" style="fill:rgb(220,197,118);fill-rule:nonzero;"/>
            <path d="M225.4,264.5C224.7,260.4 229.9,261.2 232.4,260.6C238.2,260.2 243.9,260.5 249.7,260.5C250,263.4 248.8,264.8 246,264.7C239.1,264.9 232.2,264.9 225.4,264.5M262.6,261.1C273.3,260.2 284,258.7 294.9,259.3C297.9,259.9 300.2,262.3 302.7,263.9C295.4,267.5 287.1,266.7 279.2,265.6C273.2,264.8 266.9,265.9 261,264.1C261.4,263.3 262.2,261.8 262.6,261.1M223.7,269.5C234.4,268.6 245.1,269 255.6,271.1C265.4,269.8 275.4,271 285.2,269.3C289.3,269.6 297.8,267.8 296.8,274.2C292.2,274.8 287.9,271.9 283.2,272.3C274,272.9 264.7,273.7 255.6,271.7C245.2,273.9 234.5,272.9 224,273.5C223.9,272.5 223.8,270.5 223.7,269.5Z" style="fill:rgb(245,215,118);fill-rule:nonzero;"/>
            <path d="M216.8,265.2C216.8,265 216.9,264.7 216.9,264.5L216.8,265.2Z" style="fill:rgb(149,157,100);fill-rule:nonzero;"/>
        </g>
    </g>
</svg>
