<?xml version="1.0" encoding="UTF-8" standalone="no"?>
<!DOCTYPE svg PUBLIC "-//W3C//DTD SVG 1.1//EN" "http://www.w3.org/Graphics/SVG/1.1/DTD/svg11.dtd">
<svg width="100%" height="100%" viewBox="0 0 1046 260" version="1.1" xmlns="http://www.w3.org/2000/svg" xmlns:xlink="http://www.w3.org/1999/xlink" xml:space="preserve" xmlns:serif="http://www.serif.com/" style="fill-rule:evenodd;clip-rule:evenodd;stroke-miterlimit:10;">
    <g id="Layer_2_copy" transform="matrix(1,0,0,1,-55,-15)">
        <path d="M401.3,87L1090.5,87M400.4,263.9L1089.6,263.9" style="fill:none;fill-rule:nonzero;stroke:rgb(211,204,176);stroke-width:5px;"/>
        <g>
            <path d="M86.3,117.2L236.3,34.6M236.5,28.8L360.2,103.1" style="fill:none;fill-rule:nonzero;stroke:rgb(211,204,176);stroke-width:5px;"/>
            <path d="M357.7,223.1L99.6,242.5C84.8,243.6 71.8,232.4 70.7,217.6L65,141.1C63.9,126.3 75.1,113.3 89.9,112.2L348,92.8C362.8,91.7 375.8,102.9 376.9,117.7L382.6,194.2C383.7,209 372.5,222 357.7,223.1Z" style="fill:rgb(81,138,190);fill-rule:nonzero;"/>
            <path d="M115,137.4C122.5,136.8 129.1,137.9 134.8,140.5C140.4,143.2 144.9,147.2 148.1,152.6C151.3,158 153.2,164.6 153.8,172.2C154.2,177.8 153.8,183 152.7,187.7C151.5,192.4 149.5,196.6 146.7,200.2C143.9,203.8 140.4,206.7 136.1,208.8C131.8,210.9 126.8,212.2 121.1,212.6C115.4,213 110.2,212.5 105.6,211C101,209.5 97,207.2 93.7,204.1C90.4,201 87.9,197.1 86,192.5C84.1,187.9 83,182.9 82.5,177.4C82.1,171.8 82.5,166.6 83.8,161.8C85.1,157 87.1,152.9 89.9,149.4C92.7,145.9 96.2,143.1 100.5,141C104.8,138.9 109.4,137.8 115,137.4ZM138.8,173.3C138.4,168 137.2,163.4 135.2,159.6C133.2,155.8 130.5,153.1 127.2,151.3C123.9,149.5 120.1,148.8 116,149.1C113.1,149.3 110.4,150.1 108,151.4C105.6,152.7 103.6,154.5 101.9,156.7C100.3,159 99,161.8 98.2,165.1C97.4,168.5 97.2,172.2 97.5,176.3C97.8,180.4 98.6,184.1 99.9,187.4C101.2,190.7 102.9,193.3 104.9,195.4C107,197.5 109.3,198.9 111.8,199.8C114.3,200.7 117.1,201.1 120,200.8C123.8,200.5 127.2,199.3 130.2,197.2C133.2,195.1 135.5,192 137.1,187.9C138.6,183.9 139.2,179 138.8,173.3ZM195.2,177.3L181.7,178.3L183.2,198.9C183.4,201.8 182.9,204.1 181.6,205.8C180.3,207.4 178.6,208.3 176.5,208.5C174.3,208.7 172.4,208 171,206.6C169.5,205.2 168.7,203 168.5,200.1L164.3,144C164.1,140.8 164.6,138.4 166,136.9C167.4,135.4 169.7,134.5 172.9,134.3L191.8,132.9C197.4,132.5 201.7,132.6 204.8,133.2C207.8,133.8 210.5,135 212.8,136.7C215.1,138.5 216.9,140.7 218.3,143.4C219.6,146.1 220.4,149.2 220.7,152.7C221.3,160.1 219.4,165.9 215.1,170.1C210.9,174.2 204.2,176.6 195.2,177.3ZM189.1,144.2L179.2,144.9L180.9,167.2L190.8,166.5C194.3,166.2 197.2,165.7 199.4,164.8C201.7,163.9 203.4,162.6 204.5,160.8C205.6,159.1 206,156.8 205.8,154.2C205.6,151 204.4,148.4 202.4,146.6C200.1,144.5 195.7,143.7 189.1,144.2ZM280.3,137.7L247.1,140.2L248.4,158.1L279,155.8C281.3,155.6 283,156 284.2,156.9C285.4,157.8 286,159.1 286.2,160.8C286.3,162.5 285.9,163.8 284.9,165C283.9,166.2 282.2,166.8 280,166.9L249.4,169.2L251,189.9L285.4,187.3C287.7,187.1 289.5,187.5 290.8,188.5C292.1,189.5 292.8,190.9 292.9,192.7C293,194.4 292.5,195.9 291.5,197C290.4,198.2 288.7,198.8 286.4,199L246.3,202C243.1,202.2 240.7,201.7 239.2,200.4C237.7,199.1 236.8,196.8 236.6,193.7L232.5,139C232.3,136.9 232.5,135.1 233.1,133.7C233.6,132.3 234.5,131.3 235.8,130.5C237.1,129.7 238.8,129.4 240.9,129.2L279.8,126.3C282.1,126.1 283.9,126.5 285.2,127.5C286.4,128.5 287.1,129.8 287.2,131.5C287.3,133.2 286.9,134.6 285.8,135.8C284.3,136.8 282.6,137.5 280.3,137.7ZM319.1,131L350.7,171.8L347.5,128.5C347.3,125.7 347.7,123.5 348.8,122C349.9,120.5 351.5,119.7 353.5,119.5C355.6,119.3 357.3,119.9 358.7,121.2C360,122.5 360.8,124.6 361,127.4L365.3,184.7C365.8,191.1 363.4,194.5 358.1,194.9C356.8,195 355.6,194.9 354.5,194.6C353.4,194.3 352.4,193.8 351.4,193C350.4,192.2 349.5,191.3 348.6,190.3C347.7,189.3 346.8,188.2 346,187.1L315,146.7L318.2,189.4C318.4,192.2 317.9,194.3 316.7,195.9C315.5,197.4 313.9,198.3 311.9,198.4C309.8,198.6 308.1,198 306.7,196.6C305.3,195.3 304.5,193.2 304.3,190.5L300.1,134.3C299.9,131.9 300,130 300.5,128.6C301,127.1 302,125.8 303.4,124.7C304.8,123.6 306.3,123.1 308,122.9C309.3,122.8 310.5,122.9 311.5,123.3C312.5,123.7 313.3,124.2 314.1,124.9C314.9,125.6 315.7,126.5 316.5,127.6C317.3,128.6 318.2,129.8 319.1,131Z" style="fill:white;fill-rule:nonzero;"/>
            <circle cx="239.4" cy="29.5" r="12.3"/>
        </g>
        <g>
            <path d="M430.5,185.8C430.5,208.1 431.1,217.9 433.8,220.6C436.2,223 440.2,224.1 452,224.1C460.1,224.1 466.7,223.9 470.4,219.5C472.4,217.1 473.9,213.3 474.3,210.4C474.5,209.2 474.8,208.4 475.7,208.4C476.5,208.4 476.6,209 476.6,210.7C476.6,212.4 475.5,221.5 474.3,225.9C473.2,229.4 472.8,230 464.7,230C453.8,230 445.9,229.7 439.5,229.5C433.1,229.2 428.4,229 424,229C423.4,229 420.8,229.2 417.8,229.2C414.8,229.4 411.4,229.5 409.1,229.5C407.4,229.5 406.7,229.2 406.7,228.3C406.7,227.8 407,227.4 407.9,227.4C409.3,227.4 411.1,227.1 412.5,226.8C415.5,226.2 416.3,222.9 416.9,218.4C417.7,212 417.7,200 417.7,185.4L417.7,158.7C417.7,135 417.7,130.7 417.4,125.9C417.1,120.7 415.9,118.3 410.9,117.2C409.7,116.9 407.1,116.7 405.7,116.7C405.1,116.7 404.5,116.4 404.5,115.8C404.5,114.9 405.3,114.6 406.9,114.6C413.7,114.6 423.3,115.1 424.1,115.1C424.9,115.1 435.9,114.6 440.5,114.6C442.2,114.6 442.9,114.9 442.9,115.8C442.9,116.4 442.3,116.7 441.7,116.7C440.6,116.7 438.5,116.9 436.7,117.2C432.3,118 431.1,120.5 430.8,125.9C430.5,130.8 430.5,135 430.5,158.7L430.5,185.8ZM520.4,185.5C520.4,200.1 520.4,212.1 521.2,218.5C521.7,222.9 522.6,226.2 527.1,226.9C529.2,227.2 532.6,227.5 533.9,227.5C534.8,227.5 535.1,228 535.1,228.4C535.1,229.2 534.3,229.6 532.7,229.6C524.3,229.6 514.8,229.1 514,229.1C513.2,229.1 503.7,229.6 499.1,229.6C497.4,229.6 496.7,229.3 496.7,228.4C496.7,227.9 497,227.5 497.9,227.5C499.3,227.5 501.1,227.2 502.5,226.9C505.5,226.3 506.3,223 506.9,218.5C507.7,212.1 507.7,200.1 507.7,185.5L507.7,158.8C507.7,135.1 507.7,130.8 507.4,126C507.1,120.8 505.6,118.3 502.2,117.5C500.5,117 498.6,116.9 497.5,116.9C496.9,116.9 496.3,116.6 496.3,116C496.3,115.1 497.1,114.8 498.7,114.8C503.7,114.8 513.3,115.3 514,115.3C514.8,115.3 524.3,114.8 528.9,114.8C530.6,114.8 531.3,115.1 531.3,116C531.3,116.6 530.7,116.9 530.1,116.9C529,116.9 528.1,117.1 526.3,117.4C522.2,118.2 521,120.7 520.7,126.1C520.4,131 520.4,135.2 520.4,158.9L520.4,185.5ZM574.5,158.8C574.5,135.1 574.5,130.8 574.2,126C573.9,120.8 572.7,118.4 567.7,117.3C566.5,117 563.9,116.8 562.5,116.8C561.9,116.8 561.3,116.5 561.3,115.9C561.3,115 562.1,114.7 563.7,114.7C570.5,114.7 580.1,115.2 580.9,115.2C584.5,115.2 590.5,114.7 597.5,114.7C622.4,114.7 627.9,129.9 627.9,137.5C627.9,150 620.8,157.4 613.6,164.8C624.8,168.3 639.9,179.1 639.9,196.9C639.9,213.2 627.1,230 601.2,230C599.5,230 594.7,229.7 590.3,229.5C585.9,229.2 581.6,229 581,229C580.7,229 578.1,229 574.9,229.2C571.9,229.2 568.4,229.5 566.1,229.5C564.4,229.5 563.7,229.2 563.7,228.3C563.7,227.8 564,227.4 564.9,227.4C566.3,227.4 568.1,227.1 569.5,226.8C572.5,226.2 573.3,222.9 573.9,218.4C574.7,212 574.7,200 574.7,185.4L574.7,158.8L574.5,158.8ZM586.6,162.1C586.6,163.2 586.9,163.5 587.7,163.8C588.6,164 591.3,164.4 597,164.4C605.5,164.4 607.6,164.1 610.8,160.5C614,156.9 616.3,151.4 616.3,145.2C616.3,132.6 610.7,119.1 595.8,119.1C594.1,119.1 590.9,119.3 588.5,119.9C587.1,120.2 586.7,120.7 586.7,121.6L586.7,162.1L586.6,162.1ZM586.6,178.2C586.6,189.9 586.6,208.7 586.8,211C587.3,218.4 587.3,220.6 592,222.8C596.1,224.8 602.6,225.1 605.4,225.1C613.6,225.1 626.8,220.7 626.8,203.5C626.8,194.4 623.8,181.2 612.1,173.1C606.9,169.6 603.1,169.1 599.5,168.7C597.5,168.4 589.9,168.4 587.7,168.4C587.1,168.4 586.8,168.7 586.8,169.5L586.8,178.2L586.6,178.2ZM676.6,158.8C676.6,135.1 676.6,130.8 676.3,126C676,120.8 674.8,118.4 669.8,117.3C668.6,117 666,116.8 664.6,116.8C664,116.8 663.4,116.5 663.4,115.9C663.4,115 664.2,114.7 665.8,114.7C672.6,114.7 682.2,115.2 683,115.2C684.7,115.2 696.2,114.7 700.9,114.7C710.5,114.7 720.6,115.6 728.7,121.4C732.5,124.1 739.2,131.6 739.2,142.1C739.2,153.3 734.5,164.6 720.8,177.2C733.3,193.2 743.6,206.7 752.4,216.1C760.6,224.8 767.1,226.4 770.9,227C773.8,227.5 775.9,227.5 776.8,227.5C777.6,227.5 778.2,228 778.2,228.4C778.2,229.3 777.3,229.6 774.6,229.6L763.8,229.6C755.3,229.6 751.5,228.8 747.5,226.7C741,223.2 735.7,215.8 727,204.4C720.6,196 713.5,185.9 710.4,181.9C709.8,181.3 709.3,181 708.4,181L689.7,180.7C688.9,180.7 688.6,181.2 688.6,181.9L688.6,185.5C688.6,200.1 688.6,212.1 689.4,218.5C689.9,222.9 690.8,226.2 695.3,226.9C697.4,227.2 700.8,227.5 702.1,227.5C703,227.5 703.3,228 703.3,228.4C703.3,229.2 702.5,229.6 700.9,229.6C692.5,229.6 683,229.1 682.2,229.1C682,229.1 672.5,229.6 667.9,229.6C666.2,229.6 665.5,229.3 665.5,228.4C665.5,227.9 665.8,227.5 666.7,227.5C668.1,227.5 669.9,227.2 671.3,226.9C674.3,226.3 675.1,223 675.7,218.5C676.5,212.1 676.5,200.1 676.5,185.5L676.5,158.8L676.6,158.8ZM688.7,172C688.7,172.8 689,173.4 689.8,173.8C692.1,175.2 699.1,176.2 705.8,176.2C709.4,176.2 713.7,175.7 717.2,173.3C722.5,169.7 726.5,161.5 726.5,149.9C726.5,130.9 716.5,119.5 700.2,119.5C695.6,119.5 691.5,120 690,120.4C689.2,120.7 688.8,121.3 688.8,122.2L688.8,172L688.7,172Z" style="fill:rgb(246,246,246);fill-rule:nonzero;"/>
            <path d="M813.7,118.5C815.5,113.5 816.1,112.6 817,112.6C817.9,112.6 818.5,113.4 820.3,118.1C822.6,123.9 846.4,186.6 855.7,209.7C861.2,223.2 865.6,225.7 868.8,226.6C871.1,227.4 873.4,227.5 874.9,227.5C875.8,227.5 876.4,227.7 876.4,228.4C876.4,229.3 875,229.6 873.4,229.6C871.1,229.6 860,229.6 849.5,229.3C846.6,229.1 844.9,229.1 844.9,228.2C844.9,227.6 845.4,227.3 846,227.1C846.9,226.8 847.8,225.4 846.9,223L832.8,185.6C832.5,185 832.2,184.7 831.4,184.7L798.7,184.7C797.9,184.7 797.5,185.2 797.2,185.9L788.1,212.8C786.7,216.6 786,220.2 786,223C786,226 789.2,227.4 791.8,227.4L793.3,227.4C794.4,227.4 794.8,227.7 794.8,228.3C794.8,229.2 793.9,229.5 792.5,229.5C788.9,229.5 782.3,229 780.7,229C779.1,229 770.7,229.5 763.5,229.5C761.5,229.5 760.6,229.2 760.6,228.3C760.6,227.7 761.2,227.4 762,227.4C763.1,227.4 765.2,227.2 766.4,227.1C773.4,226.2 776.4,220.4 779.2,212.8L813.7,118.5ZM829.5,179.3C830.3,179.3 830.3,178.8 830.1,178.2L815.7,137.2C814.9,134.9 814.2,134.9 813.4,137.2L800,178.2C799.7,179 800,179.3 800.5,179.3L829.5,179.3ZM898.2,158.8C898.2,135.1 898.2,130.8 897.9,126C897.6,120.8 896.4,118.4 891.4,117.3C890.2,117 887.6,116.8 886.2,116.8C885.6,116.8 885,116.5 885,115.9C885,115 885.8,114.7 887.4,114.7C894.2,114.7 903.8,115.2 904.6,115.2C906.3,115.2 917.8,114.7 922.5,114.7C932.1,114.7 942.2,115.6 950.3,121.4C954.1,124.1 960.8,131.6 960.8,142.1C960.8,153.3 956.1,164.6 942.4,177.2C954.9,193.2 965.2,206.7 974,216.1C982.2,224.8 988.7,226.4 992.5,227C995.4,227.5 997.5,227.5 998.4,227.5C999.2,227.5 999.8,228 999.8,228.4C999.8,229.3 998.9,229.6 996.2,229.6L985.4,229.6C976.9,229.6 973.1,228.8 969.1,226.7C962.6,223.2 957.3,215.8 948.6,204.4C942.2,196 935.1,185.9 932,181.9C931.4,181.3 930.9,181 930,181L911.3,180.7C910.5,180.7 910.2,181.2 910.2,181.9L910.2,185.5C910.2,200.1 910.2,212.1 911,218.5C911.5,222.9 912.4,226.2 916.9,226.9C919,227.2 922.4,227.5 923.7,227.5C924.6,227.5 924.9,228 924.9,228.4C924.9,229.2 924.1,229.6 922.5,229.6C914.1,229.6 904.6,229.1 903.8,229.1C903.6,229.1 894.1,229.6 889.5,229.6C887.8,229.6 887.1,229.3 887.1,228.4C887.1,227.9 887.4,227.5 888.3,227.5C889.7,227.5 891.5,227.2 892.9,226.9C895.9,226.3 896.7,223 897.3,218.5C898.1,212.1 898.1,200.1 898.1,185.5L898.1,158.8L898.2,158.8ZM910.4,172C910.4,172.8 910.7,173.4 911.5,173.8C913.8,175.2 920.8,176.2 927.5,176.2C931.1,176.2 935.4,175.7 938.9,173.3C944.2,169.7 948.2,161.5 948.2,149.9C948.2,130.9 938.2,119.5 921.9,119.5C917.3,119.5 913.2,120 911.7,120.4C910.9,120.7 910.5,121.3 910.5,122.2L910.5,172L910.4,172ZM1026.6,190.2C1026.6,182 1025.1,178.7 1023.1,174.2C1022,171.8 1001.7,138.3 996.4,130.4C992.6,124.8 988.8,121 986.1,119.2C983.8,117.7 980.9,116.8 979.6,116.8C978.8,116.8 978.1,116.5 978.1,115.7C978.1,115.1 978.7,114.6 980.1,114.6C983,114.6 994.4,115.1 995.1,115.1C996.2,115.1 1001.9,114.6 1007.9,114.6C1009.6,114.6 1009.9,115.1 1009.9,115.7C1009.9,116.3 1009,116.5 1007.6,117.1C1006.4,117.7 1005.6,118.6 1005.6,119.8C1005.6,121.6 1006.4,123.4 1007.6,125.7C1010,130.1 1032.8,169.3 1035.6,173.7C1038.5,167.3 1057.8,134 1060.8,129C1062.8,125.8 1063.4,123.2 1063.4,121.3C1063.4,119.2 1062.8,117.5 1061,117C1059.6,116.5 1058.7,116.2 1058.7,115.5C1058.7,114.9 1059.6,114.6 1061.1,114.6C1065,114.6 1069.9,115.1 1071.1,115.1C1072,115.1 1082.9,114.6 1085.8,114.6C1086.9,114.6 1087.8,114.9 1087.8,115.5C1087.8,116.3 1087,116.7 1085.8,116.7C1084.1,116.7 1081.2,117.3 1078.8,118.8C1075.8,120.6 1074.1,122.4 1070.7,126.5C1065.7,132.6 1044.4,168.3 1041.7,174.8C1039.4,180.3 1039.4,185 1039.4,190L1039.4,203.1C1039.4,205.5 1039.4,211.9 1039.9,218.3C1040.2,222.7 1041.6,226 1046.1,226.7C1048.2,227 1051.6,227.3 1052.9,227.3C1053.8,227.3 1054.1,227.8 1054.1,228.2C1054.1,229 1053.3,229.4 1051.7,229.4C1043.3,229.4 1033.8,228.9 1033,228.9C1032.2,228.9 1022.7,229.4 1018.1,229.4C1016.4,229.4 1015.7,229.1 1015.7,228.2C1015.7,227.7 1016,227.3 1016.9,227.3C1018.3,227.3 1020.1,227 1021.5,226.7C1024.5,226.1 1025.9,222.8 1026.2,218.3C1026.7,211.9 1026.7,205.5 1026.7,203.1L1026.7,190.2L1026.6,190.2Z" style="fill:rgb(246,246,246);fill-rule:nonzero;"/>
        </g>
    </g>
</svg>
