<?xml version="1.0" encoding="UTF-8" standalone="no"?>
<!DOCTYPE svg PUBLIC "-//W3C//DTD SVG 1.1//EN" "http://www.w3.org/Graphics/SVG/1.1/DTD/svg11.dtd">
<svg width="100%" height="100%" viewBox="0 0 45 45" version="1.1" xmlns="http://www.w3.org/2000/svg" xmlns:xlink="http://www.w3.org/1999/xlink" xml:space="preserve" xmlns:serif="http://www.serif.com/" style="fill-rule:evenodd;clip-rule:evenodd;stroke-linejoin:round;stroke-miterlimit:2;">
    <g transform="matrix(1,0,0,1,-1.15737,-0.851357)">
        <g id="Page-1">
            <g id="full-copy-9">
                <g id="Group">
                    <g>
                        <g id="Group-12">
                            <g>
                                <g id="Group-5" transform="matrix(0.766044,0.642788,-0.642788,0.766044,21.5161,0.979401)">
                                    <path id="Combined-Shape" d="M16.563,15.785C12.281,14.73 7.944,17.304 6.877,21.533C5.809,25.763 8.415,30.046 12.697,31.101L13.021,31.18C6.202,29.656 1.037,23.826 0.611,16.736L0.604,16.611C0.373,12.258 3.758,8.544 8.165,8.316C12.572,8.088 16.332,11.432 16.563,15.785Z" style="fill:url(#_Linear1);"/>
                                    <path id="Combined-Shape-Copy-6" d="M16.563,15.785C14.29,19.521 15.514,24.37 19.297,26.615C23.079,28.86 27.988,27.651 30.261,23.915L30.412,23.667C27.65,28.391 22.482,31.57 16.563,31.57C15.346,31.57 14.16,31.435 13.021,31.18L12.697,31.101C8.415,30.046 5.809,25.763 6.877,21.533C7.944,17.304 12.281,14.73 16.563,15.785Z" style="fill:url(#_Linear2);"/>
                                    <path id="Combined-Shape-Copy-5" d="M16.563,15.785C19.4,19.124 24.44,19.559 27.82,16.758C31.201,13.956 31.641,8.978 28.805,5.639L28.74,5.562C31.112,8.316 32.544,11.885 32.544,15.785C32.544,18.656 31.768,21.348 30.412,23.667L30.261,23.915C27.988,27.651 23.079,28.86 19.297,26.615C15.514,24.37 14.29,19.521 16.563,15.785Z" style="fill:url(#_Linear3);"/>
                                    <path id="Combined-Shape-Copy-4" d="M16.563,15.785C20.655,14.152 22.631,9.552 20.978,5.511C19.325,1.469 14.668,-0.483 10.576,1.149L10.242,1.283C12.18,0.457 14.318,0 16.563,0C21.441,0 25.809,2.159 28.74,5.562L28.805,5.639C31.641,8.978 31.201,13.956 27.82,16.758C24.44,19.559 19.4,19.124 16.563,15.785Z" style="fill:url(#_Linear4);"/>
                                    <g id="Combined-Shape-Copy-3">
                                        <path id="path-8" d="M16.563,15.785C16.332,11.432 12.572,8.088 8.165,8.316C3.758,8.544 0.373,12.258 0.604,16.611L0.611,16.736C0.592,16.421 0.582,16.104 0.582,15.785C0.582,9.285 4.56,3.703 10.242,1.283L10.576,1.149C14.668,-0.483 19.325,1.469 20.978,5.511C22.631,9.552 20.655,14.152 16.563,15.785Z" style="fill:url(#_Linear5);"/>
                                        <path id="path-81" serif:id="path-8" d="M16.563,15.785C16.332,11.432 12.572,8.088 8.165,8.316C3.758,8.544 0.373,12.258 0.604,16.611L0.611,16.736C0.592,16.421 0.582,16.104 0.582,15.785C0.582,9.285 4.56,3.703 10.242,1.283L10.576,1.149C14.668,-0.483 19.325,1.469 20.978,5.511C22.631,9.552 20.655,14.152 16.563,15.785Z" style="fill:url(#_Linear6);"/>
                                    </g>
                                    <g id="Combined-Shape1" serif:id="Combined-Shape" opacity="0.5">
                                        <path id="path-9" d="M10.457,1.197L10.576,1.149C14.668,-0.483 19.325,1.469 20.978,5.511C22.631,9.552 20.655,14.152 16.563,15.785C16.529,15.14 16.417,14.518 16.238,13.926C18.433,12.738 19.921,10.434 19.921,7.787C19.921,3.924 16.75,0.792 12.839,0.792C12.003,0.792 11.201,0.935 10.457,1.197Z" style="fill:url(#_Linear7);"/>
                                        <path id="path-91" serif:id="path-9" d="M10.457,1.197L10.576,1.149C14.668,-0.483 19.325,1.469 20.978,5.511C22.631,9.552 20.655,14.152 16.563,15.785C16.529,15.14 16.417,14.518 16.238,13.926C18.433,12.738 19.921,10.434 19.921,7.787C19.921,3.924 16.75,0.792 12.839,0.792C12.003,0.792 11.201,0.935 10.457,1.197Z" style="fill-opacity:0.49;"/>
                                    </g>
                                    <g id="Combined-Shape-Copy-7" transform="matrix(0.309017,0.951057,-0.951057,0.309017,28.6694,-13.6312)">
                                        <g opacity="0.54">
                                            <path id="path-11" d="M18.163,5.933L18.283,5.885C22.374,4.252 27.031,6.205 28.684,10.246C30.337,14.288 28.361,18.888 24.269,20.521C24.235,19.876 24.123,19.254 23.944,18.662C26.139,17.473 27.627,15.17 27.627,12.523C27.627,8.659 24.456,5.527 20.545,5.527C19.709,5.527 18.907,5.67 18.163,5.933Z" style="fill:url(#_Linear8);"/>
                                            <path id="path-111" serif:id="path-11" d="M18.163,5.933L18.283,5.885C22.374,4.252 27.031,6.205 28.684,10.246C30.337,14.288 28.361,18.888 24.269,20.521C24.235,19.876 24.123,19.254 23.944,18.662C26.139,17.473 27.627,15.17 27.627,12.523C27.627,8.659 24.456,5.527 20.545,5.527C19.709,5.527 18.907,5.67 18.163,5.933Z" style="fill-opacity:0.5;"/>
                                        </g>
                                    </g>
                                    <g id="Combined-Shape-Copy-8" transform="matrix(-0.798636,0.601815,-0.601815,-0.798636,51.8783,25.7022)">
                                        <g opacity="0.56">
                                            <path id="path-13" d="M16.087,14.549L16.206,14.501C20.298,12.868 24.955,14.821 26.608,18.862C28.261,22.904 26.284,27.503 22.193,29.136C22.159,28.492 22.047,27.869 21.867,27.278C24.063,26.089 25.551,23.786 25.551,21.139C25.551,17.275 22.38,14.143 18.469,14.143C17.633,14.143 16.831,14.286 16.087,14.549Z" style="fill:url(#_Linear9);"/>
                                            <path id="path-131" serif:id="path-13" d="M16.087,14.549L16.206,14.501C20.298,12.868 24.955,14.821 26.608,18.862C28.261,22.904 26.284,27.503 22.193,29.136C22.159,28.492 22.047,27.869 21.867,27.278C24.063,26.089 25.551,23.786 25.551,21.139C25.551,17.275 22.38,14.143 18.469,14.143C17.633,14.143 16.831,14.286 16.087,14.549Z"/>
                                        </g>
                                    </g>
                                    <g id="Combined-Shape-Copy-9" transform="matrix(-0.798636,-0.601815,0.601815,-0.798636,8.89658,47.3588)">
                                        <g opacity="0.58">
                                            <path id="path-15" d="M6.819,15.209L6.938,15.162C11.03,13.529 15.687,15.481 17.34,19.523C18.993,23.564 17.016,28.164 12.925,29.797C12.891,29.153 12.779,28.53 12.599,27.938C14.795,26.75 16.283,24.446 16.283,21.799C16.283,17.936 13.112,14.804 9.201,14.804C8.365,14.804 7.563,14.947 6.819,15.209Z" style="fill:url(#_Linear10);"/>
                                            <path id="path-151" serif:id="path-15" d="M6.819,15.209L6.938,15.162C11.03,13.529 15.687,15.481 17.34,19.523C18.993,23.564 17.016,28.164 12.925,29.797C12.891,29.153 12.779,28.53 12.599,27.938C14.795,26.75 16.283,24.446 16.283,21.799C16.283,17.936 13.112,14.804 9.201,14.804C8.365,14.804 7.563,14.947 6.819,15.209Z" style="fill-opacity:0.5;"/>
                                        </g>
                                    </g>
                                    <g id="Combined-Shape-Copy-10" transform="matrix(0.325568,-0.945519,0.945519,0.325568,-6.93569,17.932)">
                                        <g opacity="0.18">
                                            <path id="path-16" d="M3.549,6.846L3.669,6.798C7.761,5.166 12.418,7.118 14.071,11.16C15.724,15.201 13.747,19.801 9.655,21.434C9.621,20.789 9.51,20.167 9.33,19.575C11.525,18.387 13.014,16.083 13.014,13.436C13.014,9.573 9.843,6.441 5.931,6.441C5.096,6.441 4.294,6.584 3.549,6.846Z" style="fill:url(#_Linear11);"/>
                                            <path id="path-161" serif:id="path-16" d="M3.549,6.846L3.669,6.798C7.761,5.166 12.418,7.118 14.071,11.16C15.724,15.201 13.747,19.801 9.655,21.434C9.621,20.789 9.51,20.167 9.33,19.575C11.525,18.387 13.014,16.083 13.014,13.436C13.014,9.573 9.843,6.441 5.931,6.441C5.096,6.441 4.294,6.584 3.549,6.846Z" style="fill-opacity:0.77;"/>
                                        </g>
                                    </g>
                                </g>
                                <g id="Path-6-Copy-2">
                                    <path id="path-17" d="M22.804,27.119L25.713,27.119C28.453,27.119 30.674,24.966 30.674,22.311C30.674,19.655 28.453,17.502 25.713,17.502L21.515,17.502C19.934,17.502 18.653,18.744 18.653,20.276L18.653,31.073L22.804,27.119Z" style="fill-rule:nonzero;"/>
                                    <path id="path-171" serif:id="path-17" d="M22.804,27.119L25.713,27.119C28.453,27.119 30.674,24.966 30.674,22.311C30.674,19.655 28.453,17.502 25.713,17.502L21.515,17.502C19.934,17.502 18.653,18.744 18.653,20.276L18.653,31.073L22.804,27.119Z" style="fill:white;fill-rule:nonzero;"/>
                                </g>
                            </g>
                        </g>
                    </g>
                </g>
            </g>
        </g>
    </g>
    <defs>
        <linearGradient id="_Linear1" x1="0" y1="0" x2="1" y2="0" gradientUnits="userSpaceOnUse" gradientTransform="matrix(-15.97,0.986138,-0.986138,-15.97,16.563,21.0711)"><stop offset="0" style="stop-color:rgb(255,92,52);stop-opacity:1"/><stop offset="1" style="stop-color:rgb(235,2,86);stop-opacity:1"/></linearGradient>
        <linearGradient id="_Linear2" x1="0" y1="0" x2="1" y2="0" gradientUnits="userSpaceOnUse" gradientTransform="matrix(8.53507,-13.5682,13.5682,8.53507,14.5043,31.5695)"><stop offset="0" style="stop-color:rgb(166,63,219);stop-opacity:1"/><stop offset="1" style="stop-color:rgb(255,37,126);stop-opacity:1"/></linearGradient>
        <linearGradient id="_Linear3" x1="0" y1="0" x2="1" y2="0" gradientUnits="userSpaceOnUse" gradientTransform="matrix(13.6289,3.88739,-3.88739,13.6289,17.9414,16.6526)"><stop offset="0" style="stop-color:rgb(0,255,240);stop-opacity:1"/><stop offset="1" style="stop-color:rgb(0,135,255);stop-opacity:1"/></linearGradient>
        <linearGradient id="_Linear4" x1="0" y1="0" x2="1" y2="0" gradientUnits="userSpaceOnUse" gradientTransform="matrix(-12.3437,11.9958,-11.9958,-12.3437,26.8384,1.86281)"><stop offset="0" style="stop-color:rgb(23,201,52);stop-opacity:1"/><stop offset="1" style="stop-color:rgb(3,255,110);stop-opacity:1"/></linearGradient>
        <linearGradient id="_Linear5" x1="0" y1="0" x2="1" y2="0" gradientUnits="userSpaceOnUse" gradientTransform="matrix(-4.07847,-18.0889,18.0889,-4.07847,11.0722,18.6615)"><stop offset="0" style="stop-color:rgb(255,176,0);stop-opacity:1"/><stop offset="1" style="stop-color:rgb(255,119,37);stop-opacity:1"/></linearGradient>
        <linearGradient id="_Linear6" x1="0" y1="0" x2="1" y2="0" gradientUnits="userSpaceOnUse" gradientTransform="matrix(-4.07847,-18.0889,18.0889,-4.07847,11.0722,18.6615)"><stop offset="0" style="stop-color:rgb(255,176,0);stop-opacity:0.1"/><stop offset="1" style="stop-color:rgb(255,119,37);stop-opacity:0.1"/></linearGradient>
        <linearGradient id="_Linear7" x1="0" y1="0" x2="1" y2="0" gradientUnits="userSpaceOnUse" gradientTransform="matrix(-2.15887,-17.0244,17.0244,-2.15887,16.0095,17.597)"><stop offset="0" style="stop-color:rgb(255,176,0);stop-opacity:1"/><stop offset="1" style="stop-color:rgb(255,119,37);stop-opacity:1"/></linearGradient>
        <linearGradient id="_Linear8" x1="0" y1="0" x2="1" y2="0" gradientUnits="userSpaceOnUse" gradientTransform="matrix(22.5198,1.89156,-1.89156,22.5198,9.127,14.3784)"><stop offset="0" style="stop-color:rgb(158,232,93);stop-opacity:1"/><stop offset="1" style="stop-color:rgb(14,208,97);stop-opacity:1"/></linearGradient>
        <linearGradient id="_Linear9" x1="0" y1="0" x2="1" y2="0" gradientUnits="userSpaceOnUse" gradientTransform="matrix(-5.05409,-18.3848,18.3848,-5.05409,21.1406,31.6948)"><stop offset="0" style="stop-color:rgb(33,239,227);stop-opacity:1"/><stop offset="1" style="stop-color:rgb(37,152,255);stop-opacity:1"/></linearGradient>
        <linearGradient id="_Linear10" x1="0" y1="0" x2="1" y2="0" gradientUnits="userSpaceOnUse" gradientTransform="matrix(-21.0612,2.45068,-2.45068,-21.0612,17.924,23.4394)"><stop offset="0" style="stop-color:rgb(166,63,219);stop-opacity:1"/><stop offset="1" style="stop-color:rgb(255,37,126);stop-opacity:1"/></linearGradient>
        <linearGradient id="_Linear11" x1="0" y1="0" x2="1" y2="0" gradientUnits="userSpaceOnUse" gradientTransform="matrix(-11.1054,0.655789,-0.655789,-11.1054,14.6547,14.7111)"><stop offset="0" style="stop-color:rgb(255,92,52);stop-opacity:1"/><stop offset="1" style="stop-color:rgb(235,2,86);stop-opacity:1"/></linearGradient>
    </defs>
</svg>
