<?xml version="1.0" encoding="UTF-8" standalone="no"?>
<!DOCTYPE svg PUBLIC "-//W3C//DTD SVG 1.1//EN" "http://www.w3.org/Graphics/SVG/1.1/DTD/svg11.dtd">
<svg width="100%" height="100%" viewBox="0 0 45 42" version="1.1" xmlns="http://www.w3.org/2000/svg" xmlns:xlink="http://www.w3.org/1999/xlink" xml:space="preserve" xmlns:serif="http://www.serif.com/" style="fill-rule:evenodd;clip-rule:evenodd;stroke-linejoin:round;stroke-miterlimit:2;">
    <g transform="matrix(1,0,0,1,-4.17,-5.63)">
        <path d="M48.43,26.2C48.38,23.35 47.25,20.68 45.23,18.67C45.18,18.62 45.14,18.58 45.11,18.56C43.32,16.83 41,15.76 38.53,15.52C37.9,12.63 36.29,10.07 33.97,8.27C31.74,6.54 29.08,5.63 26.28,5.63C22.37,5.63 18.77,7.4 16.39,10.49C15.24,11.98 14.43,13.71 14.03,15.53C11.57,15.77 9.26,16.84 7.5,18.55C7.46,18.59 7.41,18.63 7.37,18.67C5.37,20.68 4.23,23.34 4.18,26.16C4.17,26.24 4.17,26.31 4.17,26.39C4.17,26.47 4.17,26.54 4.18,26.6C4.23,29.35 5.31,31.97 7.21,33.94C7.26,34 7.32,34.06 7.37,34.12C9.17,35.92 11.53,37.03 14.05,37.26C14.67,40.17 16.29,42.74 18.64,44.54C20.85,46.25 23.49,47.16 26.28,47.16C30.19,47.16 33.8,45.38 36.19,42.28C37.33,40.81 38.14,39.08 38.53,37.27C41.06,37.04 43.43,35.93 45.23,34.13C45.28,34.08 45.34,34.02 45.37,33.98C47.29,31.99 48.37,29.38 48.42,26.64C48.42,26.56 48.43,26.49 48.43,26.41L48.43,26.2ZM43.02,31.74C41.74,33.02 40.01,33.84 38.08,33.94C38.01,33.13 37.88,32.19 37.58,31.28L37.7,31.28C39.13,31.28 40.23,30.82 41.12,29.96C42,28.82 42.55,27.67 42.55,26.24C42.55,25.1 41.98,23.81 41.13,22.92C40.28,22.04 39.04,21.44 37.7,21.43L37.7,21.49C36.27,21.49 35.11,22.04 34.22,22.93L34.2,22.93C34.1,23.03 34.01,23.13 33.92,23.23L35.13,24.15L29.84,25.93L30.23,20.35L31.61,21.46C33.38,18.74 32.79,15.05 30.18,13.01C27.4,10.85 23.39,11.36 21.23,14.14C19.1,16.96 19.58,20.92 22.35,23.08C23.35,23.76 24.43,24.28 25.55,24.73C27.89,25.66 30.32,26.04 32.26,27.77C35.93,30.93 36.55,36.44 33.52,40.34C30.43,44.35 24.66,45.13 20.62,42C17.95,39.96 16.7,36.74 17.08,33.62C16.38,33.84 15.66,33.95 14.8,33.95L14.8,33.97L14.92,33.97L14.8,33.97L14.8,33.95C12.8,33.95 10.88,33.07 9.51,31.7L9.57,31.66C8.2,30.29 7.35,28.53 7.35,26.24C7.35,24.24 8.19,22.33 9.55,20.96L9.54,21.03C10.8,19.78 12.48,18.96 14.36,18.84C14.43,19.62 14.55,20.51 14.83,21.38L14.91,21.38L14.83,21.38C14.84,21.42 14.85,21.45 14.86,21.49L14.78,21.49C13.64,21.49 12.21,22.04 11.35,22.92C10.49,23.81 10.01,25.09 10.01,26.24C10.01,27.67 10.56,28.81 11.44,29.96L11.45,29.96C12.34,30.82 13.64,31.27 14.79,31.28C16.22,31.28 17.42,30.74 18.31,29.85L18.37,29.85C18.46,29.76 18.56,29.66 18.65,29.56L17.41,28.59L22.68,26.87L22.33,32.43L20.88,31.3C19.13,34.06 19.72,37.75 22.38,39.77C25.14,41.89 29.14,41.38 31.3,38.6C33.42,35.84 32.91,31.84 30.13,29.68C29.85,29.47 29.53,29.28 29.21,29.1C26.45,27.67 23.17,27.23 20.63,25.36C16.59,22.23 15.86,16.45 18.99,12.41C22.08,8.4 27.87,7.66 31.91,10.79C34.55,12.84 35.79,16.05 35.42,19.16C36.13,18.94 36.81,18.82 37.67,18.82L37.67,18.81L37.67,18.82C39.67,18.82 41.63,19.63 43,21L42.98,20.96C44.35,22.33 45.19,24.24 45.19,26.24C45.19,28.53 44.34,30.29 42.98,31.66L43.02,31.74Z" style="fill:rgb(254,255,254);fill-rule:nonzero;"/>
    </g>
</svg>
