<?xml version="1.0" encoding="UTF-8" standalone="no"?>
<!DOCTYPE svg PUBLIC "-//W3C//DTD SVG 1.1//EN" "http://www.w3.org/Graphics/SVG/1.1/DTD/svg11.dtd">
<svg width="100%" height="100%" viewBox="0 0 106 24" version="1.1" xmlns="http://www.w3.org/2000/svg" xmlns:xlink="http://www.w3.org/1999/xlink" xml:space="preserve" xmlns:serif="http://www.serif.com/" style="fill-rule:evenodd;clip-rule:evenodd;stroke-linejoin:round;stroke-miterlimit:2;">
    <path d="M58.738,0.359L65.236,0.359L61.967,23.681L55.469,23.681L58.738,0.359ZM50.545,0.359L46.16,13.794L44.247,0.359L39.702,0.359L33.961,13.754L33.243,0.359L26.944,0.359L29.137,23.681L34.359,23.681L40.818,8.93L43.09,23.681L48.233,23.681L56.725,0.359L50.545,0.359ZM105.103,13.914L89.674,13.914C89.754,16.944 91.568,18.937 94.239,18.937C96.253,18.937 97.847,17.86 99.083,15.807L104.291,18.175C102.501,21.702 98.729,24 94.08,24C87.741,24 83.535,19.734 83.535,12.877C83.535,5.342 88.478,0 95.455,0C101.595,0 105.462,4.146 105.462,10.605C105.462,11.681 105.342,12.757 105.103,13.914ZM99.322,9.448C99.322,6.738 97.807,5.023 95.376,5.023C92.864,5.023 90.791,6.817 90.233,9.448L99.322,9.448ZM6.633,7.387L0,15.139L11.844,15.139L13.175,11.484L8.1,11.484L11.201,7.898L11.211,7.803L9.194,4.332L18.266,4.332L11.234,23.681L16.046,23.681L24.538,0.359L2.6,0.359L6.633,7.387ZM75.801,5.023C78.093,5.023 80.102,6.256 81.856,8.369L82.777,1.794C81.143,0.688 78.93,0 76,0C70.18,0 66.91,3.409 66.91,7.734C66.91,10.734 68.585,12.568 71.336,13.754L72.651,14.352C75.103,15.399 75.761,15.917 75.761,17.023C75.761,18.169 74.655,18.897 72.97,18.897C70.189,18.907 67.937,17.482 66.243,15.05L65.304,21.749C67.233,23.22 69.707,24 72.97,24C78.502,24 81.9,20.811 81.9,16.385C81.9,13.375 80.565,11.442 77.196,9.927L75.761,9.249C73.768,8.362 73.09,7.874 73.09,6.897C73.09,5.841 74.017,5.023 75.801,5.023Z" style="fill:rgb(226,255,203);fill-rule:nonzero;"/>
</svg>
