<?xml version="1.0" encoding="UTF-8" standalone="no"?>
<!DOCTYPE svg PUBLIC "-//W3C//DTD SVG 1.1//EN" "http://www.w3.org/Graphics/SVG/1.1/DTD/svg11.dtd">
<svg width="100%" height="100%" viewBox="0 0 301 131" version="1.1" xmlns="http://www.w3.org/2000/svg" xmlns:xlink="http://www.w3.org/1999/xlink" xml:space="preserve" xmlns:serif="http://www.serif.com/" style="fill-rule:evenodd;clip-rule:evenodd;stroke-linejoin:round;stroke-miterlimit:2;">
    <g id="Layer1" transform="matrix(1,0,0,1,-223.055,-1.41)">
        <path d="M223.055,40.6L259.216,61.184L223.055,82.439L231.011,94.4L274.348,67.474L274.348,54.9L230.848,27.974L223.055,40.6ZM321.023,116.816L321.023,103.016L265.391,103.016L265.391,116.816L321.023,116.816Z" style="fill:white;fill-rule:nonzero;"/>
        <path d="M344.32,103.5C342.211,102.717 340.342,101.399 338.896,99.676C337.441,97.931 336.331,95.925 335.627,93.765C334.887,91.555 334.397,89.269 334.167,86.95C333.934,84.592 333.91,82.219 334.097,79.857C334.284,77.43 334.609,75.015 335.071,72.625L337.992,54.544C338.559,51.258 339.468,48.041 340.704,44.944C341.954,41.796 343.795,38.916 346.128,36.46C348.464,33.978 351.311,32.033 354.473,30.76C357.538,29.489 360.821,28.828 364.139,28.813C366.043,28.808 367.938,29.065 369.772,29.578C371.525,30.06 373.144,30.94 374.5,32.151C375.853,33.369 376.962,34.832 377.769,36.463C378.589,38.094 379.197,39.823 379.577,41.609L386.253,1.41L405.724,1.41L388.9,103.635L369.29,103.635L370.82,94.177C369.791,95.856 368.526,97.378 367.065,98.697C365.608,100.022 363.997,101.167 362.265,102.105C360.56,103.028 358.735,103.707 356.841,104.121C354.992,104.533 353.103,104.743 351.208,104.747C348.855,104.76 346.519,104.337 344.32,103.5ZM366.156,87.993C367.501,87.575 368.736,86.862 369.772,85.907C370.824,84.95 371.674,83.791 372.272,82.5C372.854,81.267 373.252,79.955 373.454,78.606L376.514,60.526C376.699,59.413 376.838,58.278 376.931,57.119C377.023,55.982 377.046,54.84 377,53.7C376.954,52.596 376.791,51.501 376.513,50.432C376.258,49.418 375.835,48.455 375.261,47.581C374.673,46.721 373.853,46.046 372.897,45.634C371.893,45.173 370.802,44.934 369.697,44.934C368.101,44.937 366.52,45.242 365.038,45.834C363.513,46.435 362.137,47.36 361.005,48.546C359.873,49.708 358.976,51.078 358.362,52.579C357.762,54.049 357.365,55.593 357.18,57.169L354.12,75.25C353.843,76.81 353.726,78.395 353.772,79.979C353.803,81.489 354.134,82.979 354.746,84.36C355.343,85.7 356.371,86.802 357.667,87.489C359.007,88.231 360.516,88.614 362.048,88.602C363.44,88.606 364.826,88.399 366.156,87.988L366.156,87.993ZM399.744,87.506L416.433,87.506L427.977,17.548L415.46,17.548L415.46,1.41L450.23,1.41L435.905,87.5L448.422,87.5L448.422,103.634L399.744,103.634L399.744,87.5L399.744,87.506ZM468.31,29.922L487.921,29.922L486.391,39.241C487.524,37.641 488.804,36.151 490.216,34.79C491.625,33.42 493.216,32.25 494.944,31.313C496.643,30.393 498.472,29.736 500.369,29.366C502.224,29 504.109,28.813 506,28.809C508.352,28.799 510.687,29.223 512.885,30.061C514.992,30.847 516.861,32.165 518.309,33.886C519.751,35.614 520.859,37.594 521.577,39.727C522.319,41.913 522.809,44.176 523.038,46.473C523.269,48.854 523.292,51.251 523.107,53.636C522.92,56.094 522.642,58.527 522.273,60.936L519.213,79.017C518.633,82.253 517.725,85.422 516.501,88.474C515.249,91.626 513.435,94.524 511.146,97.027C508.845,99.567 505.988,101.543 502.8,102.8C499.71,104.067 496.405,104.728 493.065,104.747C491.185,104.743 489.314,104.486 487.502,103.982C485.739,103.524 484.115,102.64 482.773,101.409C481.454,100.178 480.369,98.717 479.573,97.098C478.748,95.455 478.096,93.73 477.626,91.952L470.95,132.146L451.482,132.146L468.31,29.922ZM492.163,87.71C493.69,87.112 495.068,86.187 496.2,85C497.342,83.82 498.24,82.427 498.843,80.9C499.426,79.439 499.868,77.925 500.164,76.38L503.085,58.299C503.362,56.739 503.478,55.154 503.432,53.57C503.4,52.06 503.069,50.571 502.459,49.189C501.859,47.851 500.832,46.75 499.538,46.06C498.197,45.32 496.689,44.936 495.157,44.947C493.767,44.947 492.384,45.158 491.057,45.573C489.711,45.99 488.476,46.703 487.441,47.659C486.391,48.604 485.559,49.765 485,51.062C484.458,52.317 484.039,53.621 483.748,54.956L480.828,73.037C480.641,74.15 480.479,75.285 480.341,76.444C480.203,77.551 480.179,78.67 480.271,79.782C480.365,80.858 480.527,81.927 480.758,82.982C480.977,84.017 481.377,85.005 481.94,85.9C482.509,86.793 483.333,87.496 484.305,87.917C485.308,88.38 486.4,88.618 487.505,88.617C489.101,88.613 490.682,88.305 492.163,87.71Z" style="fill:rgb(253,1,2);fill-rule:nonzero;"/>
    </g>
</svg>
