<svg id="a3f815bd-707f-44dc-83de-afdefcd2401f" data-name="Layer 1" xmlns="http://www.w3.org/2000/svg" viewBox="0 0 262.95 262.95"><defs><style>.ee59af6e-a1b9-4882-9a1a-42dec897756e{fill:#fdc726;}.b91cc79f-0e7c-4fdc-be23-0f058d24a0ad{fill:#2896f8;}.ae51886b-4313-4c56-a179-cf4153f3644f{fill:#f45c45;}.b8417018-814c-46eb-897d-c5015ef36a36{fill:#00b65f;}.a3b102d2-48a3-4379-b14b-66f5dfe09339{fill:#d5392c;}.ab6e72d1-cdc5-4c58-81ad-48f09d8dee09{fill:#007ae1;}.a863a8c8-fdf0-4867-afe3-87b7a5351928{fill:#029141;}.f8a5f791-0f02-4bff-a901-311c3f168e4c{fill:#edbb24;}.b9ca381e-fdd2-4ea1-9586-cf2ff62aae83{fill:#fff;}</style></defs><path class="ee59af6e-a1b9-4882-9a1a-42dec897756e" d="M61.06,204.54,40,225.64a131.64,131.64,0,0,1,0-186l21.1,21.1A101.7,101.7,0,0,0,61.06,204.54Z" transform="translate(-1.49 -1.16)"/><path class="b91cc79f-0e7c-4fdc-be23-0f058d24a0ad" d="M226,225.64l-21.1-21.1a101.7,101.7,0,0,0,0-143.8L226,39.64A131.64,131.64,0,0,1,226,225.64Z" transform="translate(-1.49 -1.16)"/><path class="ae51886b-4313-4c56-a179-cf4153f3644f" d="M226,39.64l-21.1,21.1a101.7,101.7,0,0,0-143.8,0L40,39.64A131.64,131.64,0,0,1,226,39.64Z" transform="translate(-1.49 -1.16)"/><path class="b8417018-814c-46eb-897d-c5015ef36a36" d="M226,225.64a131.64,131.64,0,0,1-186,0l21.1-21.1a101.7,101.7,0,0,0,143.8,0Z" transform="translate(-1.49 -1.16)"/><path class="a3b102d2-48a3-4379-b14b-66f5dfe09339" d="M214.86,29.74l-21.2,21.2A105.47,105.47,0,0,1,214.76,72L236,50.84A131.59,131.59,0,0,0,214.86,29.74Z" transform="translate(-1.49 -1.16)"/><path class="ab6e72d1-cdc5-4c58-81ad-48f09d8dee09" d="M235.86,214.54l-21.2-21.2a105.47,105.47,0,0,1-21.1,21.1l21.2,21.2A131.59,131.59,0,0,0,235.86,214.54Z" transform="translate(-1.49 -1.16)"/><path class="a863a8c8-fdf0-4867-afe3-87b7a5351928" d="M51.06,235.54l21.2-21.2a105.47,105.47,0,0,1-21.1-21.1L30,214.44A131.59,131.59,0,0,0,51.06,235.54Z" transform="translate(-1.49 -1.16)"/><path class="f8a5f791-0f02-4bff-a901-311c3f168e4c" d="M30.06,50.74l21.2,21.2a105.47,105.47,0,0,1,21.1-21.1l-21.2-21.2A131.59,131.59,0,0,0,30.06,50.74Z" transform="translate(-1.49 -1.16)"/><circle class="b9ca381e-fdd2-4ea1-9586-cf2ff62aae83" cx="131.47" cy="131.47" r="111.8"/><path d="M39.51,171.64c0-26.45-1.66-52.86-2.49-79.29q19.78-.63,39.56-.5a20.78,20.78,0,0,1,20.16,14.62,17.2,17.2,0,0,1-7.1,19.79,2,2,0,0,0-.91,1.76,2,2,0,0,0,1.08,1.64c10,5.09,11.25,12.88,11.13,17.07a27.36,27.36,0,0,1-6.65,17.17c-4.54,5.06-10.89,7.74-18.44,7.74Zm17.88-34.1a2,2,0,0,0-2,2q.12,7.58.19,15.13a2,2,0,0,0,2,2H75.87a8,8,0,0,0,6.46-3.15,10.7,10.7,0,0,0,2.09-6.39c.06-4.75-2.81-9.57-8.45-9.57Zm-.5-30.65a2,2,0,0,0-2.06,2q.12,5.88.23,11.74a2.08,2.08,0,0,0,2.11,2q8,0,15.93,0A7.26,7.26,0,0,0,78.82,120a8.45,8.45,0,0,0,1.86-5.28c.06-3.91-2.41-7.9-7.26-7.91Q65.17,106.84,56.89,106.89Z" transform="translate(-1.49 -1.16)"/><path d="M144.54,171.64c-5.55-9-11.06-18-16.74-27a2,2,0,0,0-1.71-1h-3.35a2,2,0,0,0-2,2q.15,13,.17,26H104.79c0-26.24-1.65-52.45-2.47-78.68q16.35-.51,32.71-.49c17.23.08,25.46,10.33,27.33,19.54a27.44,27.44,0,0,1-15.78,29.81,2,2,0,0,0-1.08,1.26,1.93,1.93,0,0,0,.25,1.62c5.91,8.77,11.68,17.51,17.57,26.26l-.36.68Zm-22-63.55a2,2,0,0,0-2.06,2q.17,8.59.32,17.16a2,2,0,0,0,2.07,2h12c7.54,0,11.58-5.3,11.68-10.57s-3.87-10.58-11.66-10.59Q128.68,108.05,122.52,108.09Z" transform="translate(-1.49 -1.16)"/><path d="M195.82,172.64c-7.71,0-14.81-2.23-20.06-6.27a23.81,23.81,0,0,1-9.27-18.73c-.54-17.49-1.46-35-2-52.46q8.53-.27,17.09-.39c.35,17.7.73,35.24.94,52.72.11,7.46,7,10.85,13.33,10.85,6.65,0,13.4-3.73,13.5-10.85.21-17.48.59-35,.94-52.72q8.55.12,17.09.39c-.55,17.49-1.47,35-2,52.46-.56,17.17-15.33,25-29.26,25Z" transform="translate(-1.49 -1.16)"/></svg>