<?xml version="1.0" encoding="UTF-8" standalone="no"?>
<!DOCTYPE svg PUBLIC "-//W3C//DTD SVG 1.1//EN" "http://www.w3.org/Graphics/SVG/1.1/DTD/svg11.dtd">
<svg width="100%" height="100%" viewBox="0 0 337 317" version="1.1" xmlns="http://www.w3.org/2000/svg" xmlns:xlink="http://www.w3.org/1999/xlink" xml:space="preserve" xmlns:serif="http://www.serif.com/" style="fill-rule:evenodd;clip-rule:evenodd;stroke-linejoin:round;stroke-miterlimit:2;">
    <g>
        <g transform="matrix(0.9375,0,0,0.9375,-8.00195,-7.99855)">
            <path d="M151.371,8.532C134.989,12.174 118.783,17.243 103.59,24.89C103.937,38.306 104.804,51.16 106.563,64.217C100.662,67.997 94.461,71.242 88.95,75.667C83.35,79.975 77.63,84.098 72.56,89.136C62.431,82.436 51.711,76.138 40.667,70.58C28.762,83.393 17.629,97.222 8.535,112.696C15.377,123.764 22.519,134.138 30.231,143.982L30.446,143.982L30.446,238.957C30.62,238.958 30.795,238.966 30.967,238.982L89.192,244.594C92.242,244.889 94.631,247.344 94.844,250.401L96.64,276.103L147.429,279.728L150.927,256.005C151.381,252.929 154.02,250.651 157.131,250.651L218.56,250.651C221.67,250.651 224.309,252.929 224.763,256.005L228.26,279.728L279.052,276.103L280.846,250.401C281.06,247.344 283.448,244.89 286.498,244.594L344.7,238.982C344.872,238.966 345.045,238.958 345.219,238.957L345.219,231.378L345.244,231.369L345.244,143.982L345.458,143.982C353.172,134.137 360.309,123.763 367.154,112.696C358.064,97.221 346.926,83.391 335.021,70.58C323.98,76.137 313.254,82.435 303.125,89.136C298.056,84.098 292.347,79.975 286.74,75.667C281.23,71.242 275.02,67.997 269.131,64.217C270.885,51.16 271.753,38.306 272.102,24.89C256.907,17.242 240.703,12.173 224.313,8.532C217.769,19.53 211.785,31.438 206.573,43.082C200.393,42.049 194.183,41.666 187.967,41.592L187.967,41.584C187.923,41.584 187.883,41.592 187.846,41.592C187.807,41.592 187.766,41.584 187.727,41.584L187.727,41.592C181.499,41.666 175.294,42.049 169.113,43.082C163.904,31.439 157.924,19.53 151.371,8.532ZM105.304,147.465C124.684,147.465 140.394,163.162 140.394,182.536C140.394,201.923 124.684,217.628 105.304,217.628C85.932,217.628 70.221,201.923 70.221,182.536C70.221,163.162 85.934,147.465 105.304,147.465ZM270.381,147.465C289.751,147.465 305.46,163.162 305.46,182.536C305.46,201.923 289.751,217.628 270.381,217.628C250.998,217.628 235.292,201.923 235.292,182.536C235.292,163.162 250.998,147.465 270.381,147.465ZM187.835,167.988C194.074,167.988 199.142,172.59 199.142,178.253L199.142,210.555C199.142,216.222 194.074,220.819 187.835,220.819C181.597,220.819 176.542,216.222 176.542,210.555L176.542,178.253C176.542,172.59 181.597,167.988 187.835,167.988ZM30.346,251.519C30.37,257.146 30.442,263.308 30.442,264.536C30.442,319.83 100.587,346.407 187.733,346.713L187.948,346.713C275.096,346.407 345.217,319.83 345.217,264.536C345.217,263.286 345.293,257.149 345.319,251.519L292.983,256.567L291.179,282.407C290.962,285.521 288.485,288 285.371,288.223L223.35,292.648C223.199,292.66 223.048,292.665 222.898,292.665C219.816,292.665 217.157,290.402 216.702,287.307L213.146,263.188L162.54,263.188L158.983,287.307C158.506,290.553 155.604,292.888 152.335,292.648L90.315,288.223C87.2,288 84.723,285.521 84.506,282.407L82.704,256.567L30.348,251.519L30.346,251.519Z" style="fill:white;fill-rule:nonzero;"/>
        </g>
        <g transform="matrix(1,0,0,1,-8.00195,-7.99802)">
            <path d="M101.87,151.248C89.811,151.248 80.036,161.028 80.036,173.084C80.036,185.139 89.811,194.91 101.87,194.91C113.935,194.91 123.706,185.139 123.706,173.084C123.706,161.028 113.935,151.248 101.87,151.248ZM250.33,151.248C238.274,151.248 228.506,161.028 228.506,173.084C228.506,185.139 238.275,194.91 250.33,194.91C262.398,194.91 272.164,185.139 272.164,173.084C272.164,161.028 262.398,151.248 250.33,151.248Z" style="fill:white;fill-rule:nonzero;"/>
        </g>
    </g>
</svg>
