<?xml version="1.0" encoding="UTF-8" standalone="no"?>
<!DOCTYPE svg PUBLIC "-//W3C//DTD SVG 1.1//EN" "http://www.w3.org/Graphics/SVG/1.1/DTD/svg11.dtd">
<svg width="100%" height="100%" viewBox="0 0 30 30" version="1.1" xmlns="http://www.w3.org/2000/svg" xmlns:xlink="http://www.w3.org/1999/xlink" xml:space="preserve" xmlns:serif="http://www.serif.com/" style="fill-rule:evenodd;clip-rule:evenodd;stroke-linejoin:round;stroke-miterlimit:2;">
    <g>
        <clipPath id="_clip1">
            <rect x="0" y="0" width="104.229" height="30"/>
        </clipPath>
        <g clip-path="url(#_clip1)">
            <g transform="matrix(1,0,0,1,0.5,0.070815)">
                <path d="M1.805,1.29L18.403,0.069C20.441,-0.106 20.966,0.012 22.247,0.942L27.545,4.666C28.419,5.306 28.711,5.481 28.711,6.179L28.711,26.603C28.711,27.883 28.244,28.64 26.614,28.756L7.34,29.919C6.116,29.977 5.534,29.803 4.893,28.988L0.99,23.925C0.29,22.994 0,22.297 0,21.481L0,3.326C0,2.28 0.466,1.406 1.805,1.291L1.805,1.29Z" style="fill-rule:nonzero;"/>
                <path d="M18.403,0.068L1.805,1.291C0.466,1.406 0,2.28 0,3.326L0,21.481C0,22.297 0.29,22.994 0.99,23.925L4.892,28.988C5.532,29.803 6.115,29.978 7.339,29.918L26.614,28.755C28.244,28.639 28.711,27.882 28.711,26.602L28.711,6.178C28.711,5.516 28.449,5.325 27.677,4.762C27.633,4.73 27.589,4.697 27.545,4.665L22.247,0.941C20.966,0.011 20.44,-0.107 18.403,0.068ZM7.776,5.843C6.202,5.949 5.845,5.973 4.951,5.247L2.678,3.443C2.446,3.21 2.563,2.919 3.145,2.862L19.102,1.698C20.441,1.581 21.14,2.048 21.664,2.454L24.401,4.433C24.517,4.491 24.808,4.84 24.459,4.84L7.979,5.83L7.776,5.843ZM5.94,26.427L5.94,9.087C5.94,8.331 6.173,7.982 6.872,7.923L25.798,6.818C26.44,6.76 26.731,7.168 26.731,7.923L26.731,25.146C26.731,25.904 26.614,26.544 25.565,26.602L7.455,27.65C6.405,27.708 5.94,27.36 5.94,26.427ZM23.82,10.017C23.936,10.542 23.82,11.066 23.294,11.125L22.422,11.299L22.422,24.099C21.664,24.507 20.965,24.739 20.383,24.739C19.451,24.739 19.218,24.449 18.519,23.576L12.812,14.616L12.812,23.286L14.618,23.693C14.618,23.693 14.618,24.74 13.16,24.74L9.143,24.973C9.026,24.74 9.143,24.158 9.551,24.042L10.599,23.752L10.599,12.287L9.143,12.17C9.027,11.646 9.317,10.89 10.133,10.832L14.443,10.542L20.383,19.619L20.383,11.589L18.869,11.415C18.752,10.774 19.218,10.308 19.8,10.251L23.82,10.017Z" style="fill:white;"/>
            </g>
        </g>
    </g>
</svg>
