<?xml version="1.0" encoding="UTF-8" standalone="no"?>
<!DOCTYPE svg PUBLIC "-//W3C//DTD SVG 1.1//EN" "http://www.w3.org/Graphics/SVG/1.1/DTD/svg11.dtd">
<svg width="100%" height="100%" viewBox="0 0 148 46" version="1.1" xmlns="http://www.w3.org/2000/svg" xmlns:xlink="http://www.w3.org/1999/xlink" xml:space="preserve" xmlns:serif="http://www.serif.com/" style="fill-rule:evenodd;clip-rule:evenodd;stroke-linejoin:round;stroke-miterlimit:2;">
    <path d="M60.022,4.61C56.634,4.562 53.275,5.236 50.165,6.588C49.954,6.682 49.765,6.82 49.609,6.992C49.455,7.164 49.337,7.367 49.265,7.587C49.194,7.806 49.17,8.037 49.196,8.265C49.221,8.494 49.295,8.714 49.412,8.911C50.178,10.211 50.836,11.573 51.379,12.982C51.506,13.299 51.724,13.57 52.005,13.761C52.287,13.951 52.619,14.053 52.958,14.051C53.224,14.051 53.485,13.989 53.723,13.871C54.481,13.484 55.274,13.168 56.09,12.927L56.102,12.927C57.198,12.598 58.335,12.43 59.478,12.427C63.164,12.427 63.637,13.895 63.637,15.175C63.69,15.698 63.583,16.224 63.331,16.683C63.079,17.143 62.695,17.515 62.228,17.748C60.403,18.463 58.445,18.77 56.491,18.648L54.795,18.648C54.563,18.647 54.333,18.694 54.12,18.785C53.906,18.877 53.713,19.011 53.553,19.18C53.396,19.347 53.276,19.545 53.201,19.762C53.125,19.978 53.096,20.209 53.116,20.438C53.187,21.235 53.223,22.053 53.223,22.868C53.223,23.368 53.207,23.886 53.177,24.413C53.164,24.639 53.199,24.864 53.278,25.075C53.357,25.287 53.479,25.479 53.637,25.64C53.796,25.803 53.986,25.932 54.196,26.02C54.406,26.108 54.631,26.154 54.858,26.153L56.43,26.153C58.558,26.03 60.69,26.327 62.704,27.028C63.178,27.212 63.58,27.545 63.85,27.978C64.121,28.41 64.246,28.919 64.206,29.428C64.265,29.996 64.17,30.57 63.931,31.088C63.693,31.606 63.32,32.049 62.851,32.371C61.273,33.158 59.517,33.509 57.76,33.39C56.139,33.385 54.526,33.187 52.951,32.801C52.809,32.763 52.662,32.743 52.515,32.743C52.19,32.741 51.871,32.834 51.597,33.012C51.324,33.189 51.109,33.444 50.977,33.743C50.405,35.063 49.731,36.337 48.964,37.552C48.828,37.766 48.745,38.009 48.722,38.261C48.698,38.513 48.735,38.768 48.83,39.002C48.926,39.242 49.076,39.456 49.269,39.627C49.461,39.798 49.691,39.922 49.939,39.989C52.765,40.747 55.681,41.116 58.606,41.088C63.572,41.088 67.488,40.12 70.226,38.216C71.593,37.305 72.705,36.058 73.458,34.594C74.21,33.129 74.578,31.495 74.526,29.847C74.569,28.701 74.352,27.561 73.892,26.511C73.433,25.462 72.742,24.532 71.873,23.79C70.772,22.88 69.498,22.204 68.129,21.805C69.223,21.27 70.215,20.546 71.06,19.666C71.831,18.866 72.436,17.92 72.841,16.882C73.246,15.845 73.443,14.737 73.419,13.623C73.445,12.26 73.107,10.916 72.438,9.731C71.77,8.545 70.796,7.563 69.62,6.887C66.693,5.241 63.365,4.453 60.015,4.615L60.022,4.61Z" style="fill:rgb(254,255,254);fill-rule:nonzero;"/>
    <path d="M93.114,4.667L80.517,4.667C79.934,4.659 79.371,4.885 78.952,5.294C78.533,5.703 78.292,6.262 78.282,6.849L78.282,38.815C78.292,39.402 78.533,39.961 78.952,40.37C79.371,40.779 79.934,41.005 80.517,40.997L93.114,40.997C98.292,41.188 103.353,39.419 107.299,36.041C109.048,34.323 110.438,32.271 111.386,30.005C112.335,27.739 112.824,25.305 112.824,22.846C112.824,20.388 112.335,17.954 111.386,15.688C110.438,13.422 109.048,11.37 107.299,9.652C103.36,6.258 98.296,4.478 93.113,4.667L93.114,4.667ZM87.698,33.2C87.635,33.201 87.572,33.19 87.514,33.167C87.455,33.143 87.402,33.109 87.357,33.064C87.312,33.02 87.275,32.968 87.25,32.91C87.225,32.852 87.212,32.789 87.211,32.726L87.211,12.932C87.212,12.869 87.225,12.806 87.25,12.748C87.275,12.69 87.312,12.637 87.357,12.593C87.402,12.549 87.455,12.514 87.514,12.491C87.572,12.468 87.635,12.456 87.698,12.457L93.057,12.457C94.515,12.383 95.972,12.608 97.34,13.12C98.708,13.632 99.958,14.419 101.012,15.434C102.768,17.483 103.725,20.103 103.706,22.808C103.688,25.513 102.696,28.12 100.913,30.145C99.879,31.164 98.649,31.961 97.298,32.485C95.947,33.01 94.504,33.251 93.057,33.195L87.698,33.2Z" style="fill:rgb(254,255,254);fill-rule:nonzero;"/>
    <path d="M145.064,4.667L118.996,4.667C118.49,4.661 118.003,4.858 117.641,5.213C117.279,5.568 117.072,6.053 117.065,6.562L117.065,39.115C117.074,39.623 117.282,40.107 117.645,40.461C118.008,40.815 118.496,41.01 119.001,41.003L145.069,41.003C145.574,41.01 146.062,40.815 146.425,40.461C146.788,40.107 146.996,39.623 147.005,39.115L147.005,34.957C146.996,34.448 146.788,33.964 146.425,33.61C146.062,33.256 145.574,33.061 145.069,33.068L126.592,33.068C126.542,33.069 126.493,33.06 126.447,33.042C126.401,33.023 126.359,32.996 126.323,32.961C126.288,32.926 126.26,32.884 126.241,32.838C126.221,32.792 126.211,32.743 126.212,32.693L126.212,26.853C126.211,26.803 126.221,26.753 126.241,26.707C126.26,26.662 126.288,26.62 126.323,26.585C126.359,26.55 126.401,26.523 126.447,26.504C126.493,26.486 126.542,26.477 126.592,26.478L145.069,26.478C145.574,26.485 146.062,26.29 146.425,25.936C146.788,25.582 146.996,25.098 147.005,24.589L147.005,20.487C146.996,19.979 146.788,19.495 146.425,19.141C146.062,18.787 145.574,18.592 145.069,18.599L126.592,18.599C126.542,18.6 126.493,18.591 126.447,18.573C126.401,18.554 126.359,18.527 126.323,18.492C126.288,18.457 126.26,18.415 126.241,18.369C126.221,18.323 126.211,18.274 126.212,18.224L126.212,12.913C126.211,12.863 126.221,12.814 126.241,12.768C126.26,12.722 126.288,12.68 126.323,12.646C126.359,12.611 126.401,12.583 126.447,12.565C126.493,12.546 126.542,12.537 126.592,12.538L145.069,12.538C145.574,12.545 146.062,12.351 146.425,11.996C146.788,11.643 146.996,11.158 147.005,10.65L147.005,6.562C146.996,6.053 146.788,5.569 146.425,5.215C146.062,4.861 145.574,4.666 145.069,4.673L145.064,4.667Z" style="fill:rgb(254,255,254);fill-rule:nonzero;"/>
    <path d="M23,0C10.319,0 0,10.319 0,23C0,35.682 10.319,46 23,46C35.682,46 46,35.682 46,23C46,10.319 35.682,0 23,0ZM33.005,23C33.005,28.516 28.516,33.005 23,33.005C17.484,33.005 12.995,28.516 12.995,23C12.995,17.484 17.484,12.995 23,12.995C28.516,12.995 33.005,17.484 33.005,23ZM19.688,39.733C20.761,39.945 21.867,40.059 23,40.059C24.133,40.059 25.241,39.945 26.312,39.733L26.344,39.756L23.001,45.546L19.658,39.755L19.688,39.733ZM39.146,17.504C38.42,15.375 37.283,13.434 35.83,11.776L35.836,11.723L42.529,11.723L39.182,17.52L39.146,17.504ZM35.501,11.408C33.998,9.788 32.185,8.462 30.158,7.52L30.145,7.477L36.252,4.759L35.553,11.408L35.501,11.408ZM30.047,7.177L28,0.876C30.954,1.543 33.691,2.789 36.088,4.487L30.048,7.177L30.047,7.177ZM29.757,7.306L29.72,7.322C27.726,6.464 25.536,5.979 23.238,5.946L23.212,5.917L27.691,0.944L29.758,7.307L29.757,7.306ZM22.762,5.946C20.463,5.978 18.272,6.464 16.277,7.322L16.24,7.307L18.309,0.943L22.788,5.917L22.762,5.946ZM15.952,7.177L9.911,4.487C12.306,2.788 15.044,1.543 17.999,0.875L15.951,7.177L15.952,7.177ZM15.854,7.479L15.841,7.52C13.813,8.462 12.001,9.788 10.498,11.408L10.444,11.408L9.746,4.759L15.854,7.479ZM10.167,11.777C8.716,13.434 7.58,15.374 6.854,17.503L6.819,17.519L3.473,11.723L10.162,11.723L10.168,11.777L10.167,11.777ZM6.53,17.647L0.476,20.343C0.832,17.311 1.786,14.461 3.22,11.913L6.531,17.647L6.53,17.647ZM6.688,17.921L6.704,17.949C6.208,19.545 5.94,21.241 5.94,22.999C5.94,23.52 5.968,24.036 6.014,24.546L5.986,24.576L0.573,20.644L6.688,17.922L6.688,17.921ZM6.065,25.023C6.333,27.284 7.044,29.41 8.111,31.311L8.096,31.356L1.557,29.967L6.031,24.997L6.065,25.022L6.065,25.023ZM7.998,31.658L5.955,37.945C4.008,35.729 2.489,33.132 1.519,30.281L7.997,31.658L7.998,31.658ZM8.308,31.723L8.354,31.733C9.499,33.645 11.006,35.317 12.782,36.65L12.787,36.694L6.24,38.084L8.308,31.722L8.308,31.723ZM13.177,36.932C14.969,38.199 17.014,39.129 19.222,39.63L19.243,39.665L13.829,43.598L13.129,36.942L13.177,36.932ZM19.401,39.94L22.713,45.677C19.637,45.638 16.706,44.987 14.04,43.836L19.401,39.94ZM26.599,39.94L31.959,43.834C29.292,44.986 26.363,45.637 23.287,45.676L26.599,39.94ZM26.758,39.667L26.778,39.63C28.985,39.129 31.029,38.199 32.821,36.933L32.868,36.943L32.169,43.598L26.756,39.667L26.758,39.667ZM33.216,36.651C34.993,35.317 36.501,33.644 37.646,31.73L37.691,31.721L39.759,38.086L33.211,36.694L33.216,36.65L33.216,36.651ZM38.001,31.655L44.481,30.278C43.511,33.13 41.992,35.726 40.044,37.944L38.001,31.655ZM37.903,31.354L37.888,31.31C38.955,29.407 39.665,27.282 39.934,25.02L39.969,24.995L44.443,29.963L37.903,31.353L37.903,31.354ZM39.986,24.543C40.032,24.034 40.06,23.519 40.06,22.998C40.06,21.241 39.792,19.545 39.297,17.95L39.313,17.922L45.426,20.644L40.014,24.576L39.986,24.545L39.986,24.543ZM39.472,17.647L42.782,11.913C44.216,14.461 45.171,17.311 45.526,20.343L39.472,17.647ZM42.492,11.407L35.87,11.407L36.563,4.823C38.944,6.605 40.962,8.844 42.492,11.407ZM27.439,0.753L23.001,5.682L18.562,0.753C19.998,0.467 21.481,0.315 23,0.315C24.519,0.315 26.002,0.467 27.439,0.754L27.439,0.753ZM9.437,4.826L10.13,11.409L3.509,11.409C5.039,8.847 7.056,6.607 9.437,4.826ZM0.414,20.918L5.775,24.813L1.338,29.741C0.673,27.611 0.315,25.346 0.315,23C0.315,22.298 0.351,21.604 0.414,20.918ZM6.348,38.386L12.82,37.011L13.512,43.6C10.791,42.341 8.36,40.562 6.348,38.387L6.348,38.386ZM32.486,43.6L33.178,37.011L39.651,38.386C37.639,40.561 35.207,42.341 32.486,43.598L32.486,43.6ZM44.664,29.741L40.226,24.813L45.586,20.919C45.649,21.606 45.685,22.299 45.685,23.001C45.685,25.347 45.327,27.611 44.664,29.741Z" style="fill:rgb(254,255,254);fill-rule:nonzero;"/>
</svg>
