<?xml version="1.0" encoding="UTF-8" standalone="no"?>
<!DOCTYPE svg PUBLIC "-//W3C//DTD SVG 1.1//EN" "http://www.w3.org/Graphics/SVG/1.1/DTD/svg11.dtd">
<svg width="100%" height="100%" viewBox="0 0 213 213" version="1.1" xmlns="http://www.w3.org/2000/svg" xmlns:xlink="http://www.w3.org/1999/xlink" xml:space="preserve" xmlns:serif="http://www.serif.com/" style="fill-rule:evenodd;clip-rule:evenodd;stroke-linejoin:round;stroke-miterlimit:2;">
    <g transform="matrix(0.971748,0,0,0.971748,3.00562,2.99466)">
        <path d="M35.627,70.667L141.816,176.856L106.482,212.189L0.293,106L35.627,70.667ZM0.293,106L106.482,-0.189L141.816,35.144L35.627,141.333L0.293,106Z" style="fill:url(#_Linear1);fill-rule:nonzero;"/>
    </g>
    <g transform="matrix(0.971748,0,0,0.971748,3.00562,2.99466)">
        <path d="M177.149,141.333L70.96,35.144L106.293,-0.189L212.482,106L177.149,141.333ZM212.482,106L106.293,212.189L70.96,176.856L177.149,70.667L212.482,106Z" style="fill:url(#_Linear2);fill-rule:nonzero;"/>
    </g>
    <defs>
        <linearGradient id="_Linear1" x1="0" y1="0" x2="1" y2="0" gradientUnits="userSpaceOnUse" gradientTransform="matrix(80.8699,5.68434e-14,-5.68434e-14,80.8699,24.0433,106.567)"><stop offset="0" style="stop-color:rgb(192,233,0);stop-opacity:1"/><stop offset="1" style="stop-color:rgb(0,195,243);stop-opacity:1"/></linearGradient>
        <linearGradient id="_Linear2" x1="0" y1="0" x2="1" y2="0" gradientUnits="userSpaceOnUse" gradientTransform="matrix(117.904,0,0,117.904,94.3895,105.433)"><stop offset="0" style="stop-color:rgb(192,233,0);stop-opacity:1"/><stop offset="1" style="stop-color:rgb(0,195,243);stop-opacity:1"/></linearGradient>
    </defs>
</svg>
