<?xml version="1.0" encoding="UTF-8" standalone="no"?>
<!DOCTYPE svg PUBLIC "-//W3C//DTD SVG 1.1//EN" "http://www.w3.org/Graphics/SVG/1.1/DTD/svg11.dtd">
<svg width="100%" height="100%" viewBox="0 0 90 100" version="1.1" xmlns="http://www.w3.org/2000/svg" xmlns:xlink="http://www.w3.org/1999/xlink" xml:space="preserve" xmlns:serif="http://www.serif.com/" style="fill-rule:evenodd;clip-rule:evenodd;stroke-linejoin:round;stroke-miterlimit:2;">
    <g id="g5374" transform="matrix(0.99526,0,0,0.99526,-9.33099,-9.9526)">
        <g id="g4139">
            <g id="g53741" serif:id="g5374">
                <path id="path5189-4" d="M88.342,56.73L88.342,73.393C88.342,73.903 88.001,74.037 87.581,73.69L79.077,66.649C78.658,66.302 78.317,65.609 78.317,65.099L78.317,63.001L75.659,60.84C72.809,58.523 70.527,53.819 70.527,50.375C70.527,46.933 72.825,46.036 75.659,48.373L78.317,50.534L78.317,48.436C78.317,47.926 78.658,47.792 79.077,48.139L87.581,55.179C88.002,55.526 88.342,56.22 88.342,56.73ZM75.811,51.432C74.311,50.196 73.095,50.671 73.095,52.492C73.095,54.315 74.311,56.794 75.811,58.031L78.317,60.067L78.317,53.468L75.811,51.432L75.811,51.432Z" style="fill:white;fill-rule:nonzero;"/>
                <g id="g3500" transform="matrix(0.464103,0.926793,-0.926793,0.464103,77.2584,-14.8928)">
                    <path id="path3502" d="M97.976,37.8C97.972,37.779 97.968,37.758 97.963,37.737C97.947,37.669 97.927,37.602 97.901,37.538C97.898,37.53 97.896,37.522 97.893,37.515C97.863,37.446 97.826,37.38 97.786,37.317C97.775,37.299 97.762,37.283 97.75,37.266C97.715,37.216 97.676,37.169 97.634,37.125C97.623,37.113 97.613,37.101 97.601,37.089C97.548,37.037 97.49,36.989 97.428,36.946C97.413,36.935 97.396,36.927 97.38,36.917C97.349,36.898 97.32,36.877 97.288,36.86L96.743,36.576L71.837,47.696L25.252,24.269L24.586,24.599C24.58,24.602 24.576,24.606 24.57,24.609C24.523,24.633 24.48,24.664 24.436,24.693C24.407,24.712 24.376,24.729 24.349,24.75C24.315,24.777 24.286,24.809 24.255,24.84C24.224,24.87 24.19,24.899 24.162,24.932C24.14,24.958 24.123,24.988 24.102,25.016C24.071,25.059 24.039,25.102 24.014,25.148C24.011,25.153 24.007,25.158 24.004,25.163C23.989,25.191 23.982,25.22 23.969,25.248C23.949,25.294 23.928,25.338 23.913,25.386C23.9,25.427 23.893,25.468 23.884,25.509C23.875,25.552 23.865,25.594 23.86,25.637C23.855,25.68 23.856,25.722 23.855,25.764C23.854,25.808 23.852,25.851 23.856,25.894C23.858,25.917 23.861,25.94 23.865,25.963C23.859,26.014 23.85,26.063 23.85,26.115L23.854,41.674L27.217,40.107L63.622,58.211L38.538,69.347L19.599,59.878L2.609,51.385C2.597,51.379 2.584,51.376 2.571,51.371C2.529,51.351 2.485,51.336 2.44,51.321C2.4,51.307 2.36,51.293 2.319,51.283C2.281,51.274 2.241,51.269 2.202,51.264C2.153,51.257 2.104,51.25 2.054,51.249C2.041,51.249 2.03,51.245 2.017,51.245C1.992,51.245 1.968,51.251 1.943,51.252C1.893,51.256 1.844,51.259 1.795,51.268C1.755,51.275 1.716,51.285 1.677,51.295C1.634,51.306 1.592,51.319 1.55,51.334C1.511,51.349 1.473,51.366 1.436,51.385C1.397,51.404 1.359,51.424 1.321,51.447C1.286,51.469 1.253,51.492 1.221,51.517C1.186,51.544 1.151,51.571 1.118,51.602C1.087,51.631 1.059,51.661 1.031,51.692C1.003,51.724 0.975,51.756 0.949,51.791C0.921,51.829 0.897,51.87 0.873,51.911C0.86,51.934 0.843,51.953 0.831,51.977C0.825,51.989 0.823,52.002 0.817,52.014C0.797,52.057 0.781,52.103 0.766,52.149C0.753,52.188 0.739,52.227 0.73,52.266C0.721,52.306 0.716,52.347 0.71,52.388C0.703,52.436 0.697,52.483 0.696,52.53C0.697,52.544 0.693,52.556 0.693,52.569L0.693,72.1C0.693,72.126 0.699,72.151 0.701,72.177C0.704,72.225 0.707,72.273 0.715,72.32C0.722,72.362 0.732,72.402 0.743,72.442C0.754,72.484 0.766,72.525 0.781,72.565C0.796,72.605 0.814,72.644 0.833,72.682C0.852,72.72 0.871,72.758 0.894,72.794C0.916,72.829 0.94,72.863 0.965,72.896C0.992,72.931 1.019,72.965 1.049,72.998C1.077,73.029 1.108,73.057 1.139,73.085C1.171,73.114 1.203,73.141 1.239,73.167C1.277,73.194 1.316,73.218 1.357,73.242C1.38,73.256 1.4,73.273 1.425,73.285L37.946,91.543C37.953,91.547 37.961,91.547 37.968,91.551C37.985,91.559 38,91.568 38.017,91.576C38.027,91.58 38.037,91.583 38.047,91.587C38.103,91.609 38.16,91.628 38.218,91.642C38.23,91.645 38.242,91.648 38.254,91.651C38.27,91.654 38.286,91.656 38.302,91.659C38.379,91.673 38.456,91.683 38.534,91.683L38.542,91.683C38.62,91.683 38.698,91.673 38.774,91.659C38.79,91.656 38.806,91.654 38.822,91.651C38.834,91.648 38.846,91.645 38.858,91.642C38.916,91.628 38.973,91.609 39.028,91.587C39.038,91.583 39.049,91.58 39.059,91.576C39.076,91.569 39.091,91.559 39.108,91.552C39.115,91.549 39.123,91.548 39.13,91.544L61.746,81.642L71.208,86.863C71.226,86.873 71.245,86.88 71.264,86.889C71.283,86.899 71.302,86.909 71.322,86.918C71.33,86.921 71.338,86.925 71.346,86.928C71.377,86.941 71.409,86.951 71.441,86.961C71.46,86.967 71.479,86.974 71.499,86.98C71.52,86.986 71.542,86.991 71.563,86.995C71.578,86.998 71.592,87.001 71.607,87.003C71.614,87.004 71.622,87.006 71.629,87.007C71.643,87.009 71.657,87.013 71.671,87.015C71.73,87.023 71.788,87.028 71.847,87.028L71.852,87.028C71.93,87.028 72.007,87.018 72.084,87.004C72.097,87.002 72.11,87.001 72.123,86.998C72.133,86.996 72.142,86.992 72.152,86.99C72.222,86.973 72.292,86.953 72.359,86.925C72.366,86.922 72.373,86.918 72.38,86.915C72.384,86.913 72.388,86.911 72.392,86.909C72.398,86.906 72.404,86.906 72.41,86.903L97.238,75.317C97.703,75.098 98,74.631 98,74.117L98,38.034C98,38.028 97.998,38.023 97.998,38.017C97.997,37.943 97.989,37.871 97.976,37.8ZM37.214,78.417L29.6,82.083L33.572,84.069L37.213,82.083L37.213,88.373L3.341,71.438L3.341,61.609L12.019,65.85L4.762,69.2L8.734,71.186L16.003,67.808L20.316,69.859L12.829,73.315L16.801,75.301L24.304,71.819L28.925,74.163L21.544,77.57L25.516,79.556L32.911,76.122L37.214,78.233L37.214,78.417ZM65.228,76.939L39.862,88.216L39.862,71.646L65.228,60.37L65.228,76.939ZM3.341,58.528L3.341,55.218L37.214,71.821L37.214,75.131L3.341,58.528Z" style="fill:white;fill-rule:nonzero;"/>
                </g>
                <g id="polygon3506" transform="matrix(0.447759,0.894154,-0.894154,0.447759,70.4632,-16.3044)">
                    <path d="M33.117,56.241L39.407,53.262L45.366,56.241L39.076,59.22L33.117,56.241Z" style="fill:white;fill-rule:nonzero;"/>
                </g>
                <g id="polygon3508" transform="matrix(0.447759,0.894154,-0.894154,0.447759,70.0257,-16.5544)">
                    <path d="M28.814,53.593L22.855,50.613L29.145,47.634L35.103,50.613L28.814,53.593Z" style="fill:white;fill-rule:nonzero;"/>
                </g>
                <path id="path4818-2-4-3" d="M45.058,34.348C47.183,37.052 49.353,42.333 49.353,47.213C49.353,52.091 47.183,53.755 45.058,52.917L45.058,34.348Z" style="fill:white;fill-rule:nonzero;"/>
            </g>
        </g>
    </g>
</svg>
