<?xml version="1.0" encoding="UTF-8" standalone="no"?>
<!DOCTYPE svg PUBLIC "-//W3C//DTD SVG 1.1//EN" "http://www.w3.org/Graphics/SVG/1.1/DTD/svg11.dtd">
<svg width="100%" height="100%" viewBox="0 0 60 42" version="1.1" xmlns="http://www.w3.org/2000/svg" xmlns:xlink="http://www.w3.org/1999/xlink" xml:space="preserve" xmlns:serif="http://www.serif.com/" style="fill-rule:evenodd;clip-rule:evenodd;stroke-linejoin:round;stroke-miterlimit:2;">
    <path d="M17.457,22.04C17.101,22.04 17.048,22.112 16.709,22.112C16.336,22.112 16.158,21.933 16.158,21.471C16.158,20.423 17.012,19.267 17.012,18.005C17.012,16.956 16.212,16.459 14.683,16.459C13.758,16.459 12.744,16.726 11.072,16.726C9.399,16.726 8.368,16.494 6.82,16.494C3.404,16.494 1.501,17.845 1.501,20.298C1.501,21.56 2.343,22.379 3.322,22.948C1.845,23.303 0.853,23.984 0.853,25.158C0.853,25.794 1.352,26.35 2.063,26.591C1.094,26.642 0,27.036 0,28.12C0,29.755 2.642,30.234 5.025,30.234C8.21,30.234 10.92,28.893 10.92,26.618C10.92,22.964 4.306,25.247 4.486,23.542C4.491,23.487 4.514,23.423 4.537,23.391C5.213,23.569 5.909,23.642 6.71,23.642C9.624,23.642 11.323,22.519 11.323,20.689C11.323,19.872 11.003,19.25 10.345,18.805C12.445,18.912 12.711,19.267 12.711,20.138C12.711,20.885 12.231,22.289 12.231,23.373C12.231,24.652 13.032,25.382 14.881,25.382C16.322,25.382 18.19,24.458 18.19,23.142C18.19,22.502 17.959,22.04 17.461,22.04L17.457,22.04ZM5.049,27.071C6.668,27.177 7.077,27.213 7.077,27.569C7.077,27.961 6.65,28.263 5.476,28.263C4.303,28.263 3.307,27.943 3.307,27.302C3.307,27.142 3.342,27.017 3.414,26.911C3.965,26.999 4.535,27.036 5.05,27.071L5.049,27.071ZM6.508,21.436C5.904,21.436 5.458,21.116 5.458,20.441C5.458,19.73 5.921,19.143 6.615,19.143C7.219,19.143 7.664,19.463 7.664,20.139C7.664,20.849 7.202,21.436 6.508,21.436ZM12.263,9.19C12.263,6.932 13.294,4.444 15.073,4.444C16.248,4.444 17.031,5.066 17.031,5.955C17.031,7.022 16.07,7.679 16.07,9.03C16.07,9.83 16.532,10.203 17.101,10.203C17.812,10.203 18.293,9.723 18.293,8.799C18.293,8.266 18.239,8.017 18.239,7.662C18.239,6.702 18.738,6.169 20.036,6.169C21.246,6.169 21.602,6.649 21.602,7.573C21.602,7.982 21.388,8.427 21.388,9.084C21.388,9.813 21.727,10.258 22.384,10.258C23.185,10.258 23.541,9.494 23.541,8.675C23.541,7.555 23.114,6.738 23.114,6.098C23.114,5.084 24.038,4.445 25.337,4.445C26.742,4.445 27.436,5.582 27.436,7.858C27.436,11.093 25.585,13.279 22.793,13.333C21.708,13.333 20.339,13.119 19.502,11.715C18.631,12.888 17.492,13.333 16.532,13.333C13.668,13.333 12.263,11.91 12.263,9.191L12.263,9.19ZM28.078,10.949C28.078,4.497 30.924,0 33.574,0C34.624,0 35.318,0.96 35.318,1.742C35.318,2.062 35.229,2.364 34.714,2.773C33.611,3.662 32.917,4.639 32.437,6.24C33.38,4.764 34.536,4.444 35.391,4.444C36.742,4.444 37.472,5.154 37.472,6.683C37.472,7.75 37.045,8.603 37.045,9.456C37.045,10.132 37.365,10.434 37.969,10.434C38.194,10.434 38.426,10.386 38.659,10.298C38.581,9.958 38.538,9.589 38.538,9.19C38.538,6.719 40.299,4.444 43.768,4.444C46.312,4.444 48.322,5.653 48.322,8.586C48.322,11.057 46.561,13.332 43.092,13.332C41.494,13.332 40.108,12.798 39.296,11.71C38.441,12.714 37.309,13.332 36.084,13.332C34.126,13.332 33.38,12.211 33.38,10.879C33.38,9.777 33.665,9.136 33.665,8.354C33.665,7.839 33.433,7.59 33.007,7.59C32.473,7.59 32.1,8.177 31.993,9.35C31.958,9.918 31.886,10.789 31.833,12.105C31.798,12.958 31.281,13.314 30.445,13.314C29.021,13.314 28.079,12.656 28.079,10.949L28.078,10.949ZM42.326,9.243C42.326,9.9 42.628,10.434 43.286,10.434C43.945,10.434 44.55,9.812 44.55,8.514C44.55,7.857 44.248,7.324 43.589,7.324C42.93,7.324 42.326,7.946 42.326,9.243ZM24.315,17.669C24.315,18.682 24.368,18.966 24.368,20.353C24.368,21.74 23.924,22.273 23.319,22.273C22.892,22.273 22.536,22.024 22.536,21.366C22.536,20.246 23.23,19.34 23.23,18.273C23.23,17.206 22.483,16.477 20.864,16.477C19.993,16.477 19.013,16.655 18.356,17.046C17.893,17.312 17.662,17.668 17.662,18.236C17.662,18.574 17.715,18.965 17.91,19.339C18.071,19.641 18.319,19.765 18.782,19.765C19.137,19.765 19.209,19.89 19.209,20.174C19.209,20.956 18.889,21.65 18.889,22.716C18.889,24.44 19.991,25.364 22.001,25.364C25.096,25.364 28.085,22.716 28.085,18.627C28.085,17.223 26.929,16.476 25.488,16.476C24.794,16.476 24.314,16.796 24.314,17.667L24.315,17.669ZM34.241,21.899C33.493,21.899 32.782,21.774 32.088,21.491C32.355,22.238 33.138,22.628 34.045,22.628C34.721,22.628 35.237,22.343 35.771,22.343C36.393,22.343 36.785,22.877 36.785,23.534C36.785,23.907 36.696,24.316 36.323,24.601C35.754,25.028 34.846,25.365 33.512,25.365C30.773,25.365 28.496,24.121 28.496,21.152C28.496,18.415 30.649,16.477 33.779,16.477C36.056,16.477 37.497,17.472 37.497,19.143C37.497,20.814 36.359,21.898 34.242,21.898L34.241,21.899ZM34.205,19.518C34.205,19.18 34.01,18.949 33.494,18.949C33.014,18.949 32.445,19.234 32.178,19.926C32.605,20.105 32.96,20.158 33.281,20.158C33.921,20.158 34.205,19.909 34.205,19.518ZM42.761,18.842C43.509,18.842 44.255,19.589 45.056,19.606C45.607,19.625 46.141,18.966 46.141,18.149C46.141,17.172 44.878,16.478 42.636,16.478C40.2,16.478 38.082,17.562 38.082,19.5C38.082,22.201 41.569,21.757 41.569,22.7C41.569,22.913 41.426,23.038 41.177,23.038C40.002,23.038 39.451,21.971 38.615,21.971C37.939,21.971 37.423,22.681 37.423,23.393C37.423,24.53 38.793,25.366 41.213,25.366C44.023,25.366 45.856,24.175 45.856,22.184C45.856,19.731 42.316,19.998 42.316,19.163C42.316,18.984 42.441,18.842 42.76,18.842L42.761,18.842ZM59.998,23.588C59.998,24.157 59.803,24.477 59.375,24.797C58.842,25.189 58.077,25.366 57.294,25.366C56.156,25.366 55.088,24.921 54.644,23.89C54.11,24.974 53.079,25.366 52.101,25.366C50.34,25.366 49.005,24.085 49.005,21.669C49.005,18.505 51.14,16.478 53.578,16.478C54.378,16.478 55.108,16.727 55.623,17.278C56.032,16.638 56.531,16.478 57.1,16.478C57.794,16.478 59.057,16.887 59.057,17.917C59.057,18.948 58.221,20.672 58.221,21.686C58.221,22.095 58.363,22.238 58.684,22.238L58.879,22.238C59.164,22.238 59.484,22.256 59.733,22.611C59.929,22.896 60,23.251 60,23.588L59.998,23.588ZM54.84,19.66C54.537,19.535 54.394,19.518 54.182,19.518C53.292,19.518 52.705,20.3 52.705,21.295C52.705,21.953 53.061,22.326 53.63,22.326C54.146,22.326 54.484,21.917 54.608,21.029C54.643,20.744 54.75,20.175 54.84,19.66ZM17.226,31.516C17.973,31.516 18.24,31.871 18.773,31.871C19.449,31.871 20.001,30.894 20.001,30.182C20.001,29.755 19.716,29.4 19.218,29.08C18.685,28.76 17.884,28.511 16.782,28.511C14.238,28.511 11.961,30.289 11.961,33.222C11.961,35.96 13.722,37.399 16.426,37.399C17.529,37.399 18.383,37.15 18.988,36.777C19.522,36.439 19.699,36.102 19.699,35.621C19.699,34.839 19.29,34.129 18.649,34.129C18.062,34.129 17.813,34.377 17.119,34.377C16.372,34.377 15.786,33.986 15.786,33.045C15.786,32.156 16.426,31.516 17.226,31.516ZM26.494,28.512C25.498,28.512 24.787,29.348 24.36,30.77C24.395,30.503 24.413,30.218 24.413,29.935C24.413,29.064 24.004,28.512 22.581,28.512C21.584,28.512 21.14,28.921 20.82,30.308C20.5,31.694 20.375,33.348 20.375,34.894C20.375,36.796 21.424,37.4 22.865,37.4C23.576,37.4 24.056,37.045 24.093,36.066C24.128,35.018 24.164,34.235 24.235,33.809C24.43,32.528 25.017,32.333 25.835,32.191C27.027,31.978 27.792,31.321 27.792,30.005C27.792,29.045 27.347,28.512 26.494,28.512ZM48.498,32.067C48.498,35.054 46.808,37.4 44.158,37.4C43.517,37.4 42.841,37.24 42.165,36.848C42.077,37.719 42.005,38.715 41.97,39.817C41.935,40.812 41.383,41.096 40.6,41.096C39.283,41.096 38.234,40.492 38.252,38.678C38.257,37.866 38.294,37.055 38.359,36.247C37.696,36.924 36.863,37.398 35.796,37.398C34.568,37.398 33.769,36.918 33.235,35.922C32.684,37.006 31.669,37.398 30.691,37.398C28.931,37.398 27.596,36.118 27.596,33.701C27.596,30.537 29.73,28.51 32.168,28.51C32.951,28.51 33.662,28.759 34.179,29.274C34.641,28.634 35.175,28.51 35.584,28.51C36.705,28.51 37.63,29.025 37.63,30.074C37.63,30.998 36.794,32.581 36.794,33.629C36.794,34.198 37.132,34.393 37.594,34.393C37.908,34.393 38.246,34.313 38.598,34.149C38.773,32.96 39.013,31.778 39.32,30.607C39.747,28.954 40.191,28.509 41.224,28.509C42.754,28.509 43.198,29.06 43.198,29.931L43.198,30.198C43.678,29.043 44.585,28.509 45.778,28.509C47.575,28.509 48.499,29.985 48.499,32.064L48.498,32.067ZM33.431,31.694C33.129,31.569 32.986,31.552 32.774,31.552C31.884,31.552 31.297,32.334 31.297,33.33C31.297,33.987 31.652,34.36 32.168,34.36C32.737,34.36 33.076,33.952 33.2,33.063C33.235,32.778 33.342,32.209 33.431,31.694ZM44.762,32.778C44.762,32.049 44.477,31.676 43.873,31.676C43.357,31.676 42.965,31.996 42.734,33.062C42.699,33.187 42.61,33.666 42.486,34.413C42.771,34.554 43.055,34.608 43.322,34.608C44.246,34.608 44.762,33.772 44.762,32.777L44.762,32.778Z" style="fill:white;fill-rule:nonzero;"/>
</svg>
